<svg width="28" height="19" viewBox="0 0 28 19" fill="none" xmlns="http://www.w3.org/2000/svg">
<path d="M1.44378 3.46204L0.429443 5.15259C16.4559 5.55833 22.0686 3.39441 24.8411 1.77148C24.9763 1.56861 25.3144 0.960011 25.4497 0.689522C19.837 3.12392 11.4519 4.13826 1.44378 3.46204ZM7.12405 12.9968L6.85356 14.0787C5.90685 14.214 4.48678 14.214 4.48678 14.214C1.91713 14.214 0.970421 12.9292 1.37616 10.9005C1.78189 8.87182 3.40482 7.45175 5.97447 7.45175C5.97447 7.45175 7.52978 7.51937 8.54412 7.58699L7.93552 8.66895H5.7716C4.41916 8.66895 3.81056 9.75091 3.54007 10.9005C3.3372 11.9824 3.40482 12.9292 4.82489 12.9292L7.12405 12.9968ZM11.9252 8.73657H11.0461L10.6404 10.63H11.4519C12.2633 10.63 13.0748 10.4271 13.2777 9.68328C13.3453 8.87182 12.7367 8.73657 11.9252 8.73657ZM13.4129 11.5091C13.0072 11.6443 12.3986 11.712 11.79 11.712C11.3843 11.712 10.708 11.712 10.3699 11.712L9.89656 14.1464H7.86789L9.28796 7.58699H12.5338C13.4129 7.58699 14.1568 7.65462 14.6301 7.99273C15.2387 8.39846 15.4416 8.93944 15.2387 9.68328C15.0359 10.4948 14.4273 11.171 13.4129 11.5091ZM23.6239 12.3882C23.4886 12.7263 23.7591 13.0644 24.0972 13.0644H26.9374L26.3288 14.214H22.2038C21.6628 14.214 21.3247 13.7406 21.46 13.1996L22.6095 7.72224H24.6382C24.6382 7.58699 23.6239 12.3882 23.6239 12.3882ZM17.8084 10.2919H20.919L20.7161 11.3738H17.6055L16.9969 14.1464H15.0359L16.1854 8.66895C16.3207 8.12797 16.8617 7.65462 17.4026 7.65462H22.0009L21.3923 8.8042H18.8227C18.4846 8.8042 18.1465 9.07469 18.0789 9.4128L17.8084 10.2919ZM8.20601 16.7836H9.62607L9.49083 17.257H8.07076L7.93552 18.0008H9.35558L9.22034 18.4742H6.92118L7.46216 16.1074C7.52978 15.8369 7.73265 15.634 8.00314 15.634H10.0318L9.76132 16.1074H8.61174C8.47649 16.1074 8.34125 16.2426 8.27363 16.3779L8.20601 16.7836ZM14.833 16.7836H16.2531L16.1178 17.257H14.6977L14.5625 18.0008H15.9826L15.8473 18.4742H13.5482L14.0891 16.1074C14.1568 15.8369 14.3596 15.634 14.6301 15.634H16.6588L16.3883 16.1074H15.2387C15.1035 16.1074 14.9682 16.2426 14.9006 16.3779L14.833 16.7836ZM22.88 18.4742L23.4886 15.634H24.4354L23.8267 18.4742H22.88ZM11.79 18.4742L11.1138 16.1074L10.5728 18.4742H9.76132L10.3699 15.634H11.6547L12.331 18.0008L12.8719 15.634H13.6834L13.0072 18.4742H11.79ZM18.2141 16.1074H17.8084L17.6055 16.9189H18.0112C18.417 16.9189 18.7551 16.8512 18.8227 16.5131C18.8903 16.175 18.5522 16.1074 18.2141 16.1074ZM19.2284 18.4742H18.2141L17.876 17.3922H17.4703L17.2674 18.4742H16.3883L16.9969 15.634H18.417C18.8227 15.634 19.1608 15.634 19.3637 15.7693C19.6342 15.9045 19.7018 16.175 19.6342 16.5131C19.5665 16.8512 19.2961 17.1894 18.6875 17.257L19.2284 18.4742ZM22.7448 16.9189L22.3391 18.4742C21.6628 18.5418 21.1219 18.5418 21.1219 18.5418C19.9723 18.5418 19.5665 18.0008 19.7018 17.1217C19.9047 16.2426 20.6485 15.634 21.7305 15.634C21.7305 15.634 22.4067 15.634 22.88 15.7017L22.7448 16.1074H21.7305C21.1219 16.1074 20.8514 16.5131 20.7161 17.0541C20.5809 17.5275 20.7837 18.0008 21.3923 18.0008C21.5952 18.0008 21.5952 17.9332 21.5952 17.9332L21.8657 16.8512L22.7448 16.9189ZM26.3288 16.1074L25.5849 17.3922H26.464L26.3288 16.1074ZM26.7345 18.4742L26.5993 17.8656H25.3821L24.9763 18.4742H24.0972L26.0583 15.634H26.9374L27.6812 18.4742H26.7345Z" fill="#006B9C"/>
</svg>
