<svg width="132" height="112" viewBox="0 0 132 112" fill="none" xmlns="http://www.w3.org/2000/svg">
<path d="M13.8561 71.7687C19.7789 80.4837 29.3841 86.6231 40.0756 88.7452C50.5675 90.8334 55.3803 81.5803 65.4152 77.8336C73.5583 74.7876 82.6253 76.0568 90.8293 73.3458C98.6576 70.7601 105.437 65.2231 109.153 57.8043C113.989 48.1619 112.5 38.1032 108.686 28.4473C106.317 22.4703 103.592 16.8149 99.2939 11.9683C89.7835 1.23611 75.4536 -2.42929 62.2947 3.64247C57.262 5.96084 52.737 9.23363 48.2965 12.547C37.2361 20.7984 26.4497 29.4119 15.5415 37.8663C13.5752 39.3927 11.5749 40.953 10.1738 43.0141C7.89938 46.358 7.46617 50.6461 7.80462 54.6804C8.29753 60.8067 10.3837 66.6976 13.8561 71.7687Z" fill="#19AFC5"/>
<path opacity="0.9" d="M13.8561 71.7687C19.7789 80.4837 29.3841 86.6231 40.0756 88.7452C50.5675 90.8334 55.3803 81.5803 65.4152 77.8336C73.5583 74.7876 82.6253 76.0568 90.8293 73.3458C98.6576 70.7601 105.437 65.2231 109.153 57.8043C113.989 48.1619 112.5 38.1032 108.686 28.4473C106.317 22.4703 103.592 16.8149 99.2939 11.9683C89.7835 1.23611 75.4536 -2.42929 62.2947 3.64247C57.262 5.96084 52.737 9.23363 48.2965 12.547C37.2361 20.7984 26.4497 29.4119 15.5415 37.8663C13.5752 39.3927 11.5749 40.953 10.1738 43.0141C7.89938 46.358 7.46617 50.6461 7.80462 54.6804C8.29753 60.8067 10.3837 66.6976 13.8561 71.7687Z" fill="white"/>
<path d="M65.6217 112C101.864 112 131.243 110.285 131.243 108.169C131.243 106.053 101.864 104.338 65.6217 104.338C29.3798 104.338 0 106.053 0 108.169C0 110.285 29.3798 112 65.6217 112Z" fill="#F5F5F5"/>
<path d="M33.442 105.498H36.0582L37.1041 99.4436H34.4879L33.442 105.498Z" fill="#FFC3BD"/>
<path d="M18.0664 105.498H20.6826L23.072 99.4436H20.4558L18.0664 105.498Z" fill="#FFC3BD"/>
<path d="M21.0481 105.197H17.8599C17.8078 105.198 17.7573 105.216 17.7159 105.247C17.6744 105.279 17.6443 105.323 17.6298 105.373L16.9766 107.698C16.9603 107.752 16.9566 107.808 16.9659 107.863C16.9751 107.918 16.997 107.97 17.0299 108.015C17.0627 108.06 17.1056 108.096 17.1551 108.122C17.2046 108.148 17.2593 108.161 17.315 108.162C18.3304 108.145 19.0953 108.084 20.3847 108.084C21.1801 108.084 22.8114 108.169 23.9114 108.169C25.0113 108.169 25.2144 107.082 24.771 106.984C22.781 106.544 22.0634 105.935 21.4475 105.356C21.3384 105.256 21.1963 105.199 21.0481 105.197Z" fill="#263238"/>
<path d="M36.0549 105.197H33.2018C33.1492 105.198 33.0982 105.215 33.0562 105.247C33.0142 105.279 32.9834 105.323 32.9682 105.373L32.3184 107.698C32.3014 107.752 32.2971 107.808 32.3061 107.863C32.315 107.919 32.3369 107.971 32.3698 108.016C32.4028 108.061 32.446 108.098 32.4959 108.123C32.5458 108.149 32.6009 108.162 32.6569 108.162C33.6722 108.145 35.1783 108.084 36.4712 108.084C37.9874 108.084 39.2871 108.169 41.0639 108.169C42.1368 108.169 42.4955 107.082 42.0522 106.984C40.0215 106.537 38.3665 106.49 36.6641 105.4C36.4843 105.276 36.2731 105.206 36.0549 105.197Z" fill="#263238"/>
<path d="M35.9195 30.6134C37.3004 31.4798 38.7523 32.353 40.1839 33.1822C41.6156 34.0114 43.0709 34.8169 44.5262 35.5141C44.8884 35.6935 45.2505 35.8526 45.6126 36.015C45.792 36.0963 45.9714 36.1606 46.1508 36.235L46.4215 36.3467L46.6415 36.4279C47.1065 36.6306 47.6199 36.6952 48.1205 36.6141C48.6674 36.4763 49.1581 36.1724 49.5251 35.7443C49.7646 35.4869 49.983 35.2108 50.1783 34.9185C50.2798 34.7662 50.378 34.6071 50.4694 34.4446L50.73 33.9674L52.6456 34.4074C52.6176 34.6622 52.5758 34.9153 52.5204 35.1655C52.4662 35.4024 52.4053 35.6394 52.3308 35.8763C52.1834 36.3618 51.9825 36.8295 51.7318 37.2707C51.4558 37.7523 51.1141 38.1931 50.7164 38.5805C50.2839 39.0073 49.7769 39.3514 49.2205 39.5958C48.6476 39.8441 48.0337 39.9841 47.4098 40.0087C46.8258 40.0353 46.2409 39.9772 45.6736 39.8361C45.545 39.8057 45.3893 39.7718 45.281 39.7346L44.9425 39.6297C44.7225 39.5586 44.4958 39.4909 44.2825 39.4131C43.8561 39.254 43.4161 39.1051 43.0066 38.9291C41.3732 38.2526 39.7789 37.4854 38.2311 36.631C37.4628 36.2113 36.7047 35.7815 35.9601 35.328C35.2155 34.8745 34.4811 34.4277 33.7331 33.9234L35.9195 30.6134Z" fill="#FFC3BD"/>
<path d="M31.9834 33.0265C32.5012 35.5243 38.7862 39.1186 38.7862 39.1186L41.0775 33.0976C41.0775 33.0976 39.2871 31.9773 36.6133 30.1903C33.9396 28.4033 31.4114 30.2851 31.9834 33.0265Z" fill="#263238"/>
<path d="M50.0023 34.932L51.8198 32.0789L53.1736 35.1858C53.1736 35.1858 52.0973 36.8172 50.4355 35.9778L50.0023 34.932Z" fill="#FFC3BD"/>
<path d="M54.1382 30.9992L55.0283 33.3278L53.177 35.1825L51.8198 32.0789L54.1382 30.9992Z" fill="#FFC3BD"/>
<path opacity="0.2" d="M37.1041 99.447L36.5626 102.567H33.9497L34.4879 99.447H37.1041Z" fill="black"/>
<path opacity="0.2" d="M20.4558 99.447H23.072L21.8367 102.567H19.2239L20.4558 99.447Z" fill="black"/>
<path d="M35.0159 29.5676C35.0159 29.5676 38.6474 37.0541 36.8062 52.1218L22.9299 53.9426C22.6794 51.8104 23.2683 41.173 20.4694 31.3411C21.9757 30.844 23.5119 30.4427 25.0689 30.1396C27.0164 29.7687 28.9839 29.511 30.9612 29.3679C32.3159 29.3266 33.6718 29.3933 35.0159 29.5676Z" fill="#263238"/>
<path opacity="0.2" d="M20.4829 31.3478L20.5438 31.3275C21.8976 30.9485 23.4578 32.3767 24.2904 34.4616C25.5054 37.5076 26.9371 41.525 26.9371 41.525L22.4526 42.5978C22.1446 38.7951 21.4852 35.029 20.4829 31.3478Z" fill="black"/>
<path d="M25.1805 23.3842C25.6916 25.2456 26.3143 28.6978 25.0824 30.1531C26.6789 31.4845 28.6362 32.3094 30.704 32.5223C32.0003 31.1448 30.9748 29.3848 30.9748 29.3848C28.8222 29.1513 28.7647 27.564 29.0253 26.0308L25.1805 23.3842Z" fill="#FFC3BD"/>
<path d="M35.9804 46.6321L32.8701 29.3713C32.2978 29.4741 31.7514 29.6887 31.2621 30.0027C30.7727 30.3167 30.35 30.7241 30.0182 31.2015C29.6863 31.6789 29.4517 32.217 29.3278 32.7851C29.2039 33.3532 29.1931 33.9401 29.2961 34.5123L30.836 43.0683C31.0468 44.2224 31.7069 45.2458 32.6713 45.9139C33.6357 46.5821 34.8258 46.8404 35.9804 46.6321Z" fill="#19AFC5"/>
<path opacity="0.3" d="M35.9804 46.6321L32.8701 29.3713C32.2978 29.4741 31.7514 29.6887 31.2621 30.0027C30.7727 30.3167 30.35 30.7241 30.0182 31.2015C29.6863 31.6789 29.4517 32.217 29.3278 32.7851C29.2039 33.3532 29.1931 33.9401 29.2961 34.5123L30.836 43.0683C31.0468 44.2224 31.7069 45.2458 32.6713 45.9139C33.6357 46.5821 34.8258 46.8404 35.9804 46.6321Z" fill="black"/>
<path d="M47.8972 63.717L45.7176 64.1096C45.3428 64.1769 44.958 64.1636 44.5888 64.0707C44.2195 63.9779 43.8743 63.8075 43.5759 63.5709C43.2776 63.3344 43.033 63.037 42.8584 62.6987C42.6838 62.3603 42.5832 61.9887 42.5633 61.6085L41.6664 44.3476C41.6315 43.6954 41.8362 43.0529 42.242 42.5412C42.6478 42.0294 43.2267 41.6836 43.8697 41.569L47.9006 40.8413C48.3334 40.7641 48.7786 40.7945 49.1969 40.9296C49.6153 41.0648 49.9941 41.3007 50.2999 41.6166C50.6057 41.9324 50.8293 42.3186 50.9509 42.7411C51.0725 43.1636 51.0885 43.6095 50.9974 44.0396L49.3762 51.6276C49.3213 51.889 49.3053 52.157 49.3288 52.423L50.0802 60.8402C50.1402 61.5055 49.9497 62.1692 49.5458 62.7014C49.142 63.2335 48.5541 63.5957 47.8972 63.717Z" fill="#19AFC5"/>
<path opacity="0.2" d="M47.9006 40.8345L43.8697 41.5588C43.2273 41.6748 42.6493 42.021 42.2437 42.5324C41.8382 43.0439 41.6329 43.6856 41.6664 44.3375L41.9608 50.0674C44.6188 49.6161 47.2835 49.2405 49.955 48.9404L50.9974 44.0261C51.088 43.5963 51.0717 43.1509 50.9498 42.7289C50.8279 42.3069 50.6042 41.9214 50.2983 41.6062C49.9925 41.2909 49.6139 41.0557 49.1957 40.9212C48.7776 40.7866 48.3329 40.7569 47.9006 40.8345Z" fill="black"/>
<path d="M51.2309 56.9345L47.5655 57.5911L47.596 51.235L51.2613 50.5751L51.2309 56.9345Z" fill="#19AFC5"/>
<path d="M51.7859 53.6549C51.7859 55.4115 51.5287 56.8804 51.2309 56.9311C50.933 56.9819 50.6961 55.6078 50.7029 53.8512C50.7097 52.0947 50.9601 50.6292 51.2613 50.5751C51.5626 50.5209 51.7961 51.9052 51.7859 53.6549Z" fill="#19AFC5"/>
<path opacity="0.2" d="M51.7859 53.6549C51.7859 55.4115 51.5287 56.8804 51.2309 56.9311C50.933 56.9819 50.6961 55.6078 50.7029 53.8512C50.7097 52.0947 50.9601 50.6292 51.2613 50.5751C51.5626 50.5209 51.7961 51.9052 51.7859 53.6549Z" fill="black"/>
<path d="M36.2444 25.0696C35.0398 25.2896 33.9716 25.9781 33.2738 26.9842C32.5759 27.9904 32.3054 29.2322 32.5215 30.4374L35.2764 45.7454C35.4956 46.9504 36.1839 48.0192 37.1903 48.7172C38.1966 49.4152 39.4389 49.6854 40.6442 49.4683C49.6402 47.8512 58.775 47.1358 67.913 47.3327L77.3117 47.5392L71.2941 14.0904L62.5554 17.5595C54.0574 20.9338 45.2432 23.4497 36.2444 25.0696Z" fill="#19AFC5"/>
<path opacity="0.3" d="M60.3758 18.3988L65.5743 47.3057C66.0312 47.3057 66.4915 47.3057 66.9484 47.3057L61.6551 17.8945C61.2219 18.0841 60.8022 18.2465 60.3758 18.3988Z" fill="black"/>
<path d="M75.7142 30.5829C77.376 39.8192 78.0834 47.4207 77.3049 47.5629C76.5265 47.705 74.5398 40.3302 72.878 31.094C71.2163 21.8577 70.5089 14.2562 71.2873 14.1141C72.0658 13.9719 74.0525 21.3298 75.7142 30.5829Z" fill="#19AFC5"/>
<path opacity="0.2" d="M75.7142 30.5829C77.376 39.8192 78.0834 47.4207 77.3049 47.5629C76.5265 47.705 74.5398 40.3302 72.878 31.094C71.2163 21.8577 70.5089 14.2562 71.2873 14.1141C72.0658 13.9719 74.0525 21.3298 75.7142 30.5829Z" fill="black"/>
<path opacity="0.2" d="M26.7476 24.4604L29.0219 26.0207C28.9558 26.3757 28.9207 26.7358 28.917 27.0969C28.1014 27.0969 26.9269 26.3388 26.778 25.4995C26.7053 25.1578 26.695 24.8058 26.7476 24.4604Z" fill="black"/>
<path d="M28.6666 15.786C30.0407 15.9112 32.112 19.6037 30.7345 20.9033C29.357 22.203 26.0639 15.5457 28.6666 15.786Z" fill="#263238"/>
<path d="M23.8437 21.0522C24.6458 23.4891 24.9876 24.9613 26.5784 25.8345C28.9678 27.1477 31.7498 25.029 31.6991 22.3587C31.6551 19.9557 30.3453 16.3749 27.658 16.1651C27.0488 16.1279 26.4398 16.2395 25.8834 16.4903C25.327 16.7411 24.84 17.1236 24.4646 17.6047C24.0891 18.0859 23.8363 18.6511 23.7281 19.2518C23.62 19.8524 23.6596 20.4704 23.8437 21.0522Z" fill="#FFC3BD"/>
<path d="M30.4231 15.39C29.7553 15.2538 29.0733 15.2004 28.3924 15.2309C28.7881 14.8661 29.1474 14.4638 29.4653 14.0295C28.8289 14.4654 28.1227 14.7893 27.3771 14.9873C27.5017 14.6756 27.5793 14.3471 27.6072 14.0125C27.0894 14.6353 26.2094 15.0583 25.2584 15.4137C25.6639 14.9086 25.9767 14.3357 26.1824 13.7215C25.5901 14.8147 23.3665 15.7522 21.9653 16.6829H21.945C21.8466 16.7412 21.7527 16.8068 21.6641 16.8792C21.5496 16.9597 21.4509 17.0607 21.373 17.177C21.2405 17.3235 21.1407 17.4966 21.0803 17.6847C21.0199 17.8728 21.0002 18.0716 21.0227 18.2679C21.0451 18.4642 21.109 18.6534 21.2103 18.8231C21.3116 18.9927 21.4478 19.1388 21.6099 19.2517C21.3536 19.4334 21.1703 19.7004 21.0928 20.0048C21.0153 20.3093 21.0487 20.6314 21.1869 20.9135C21.1666 20.4397 21.2783 19.9218 21.6201 19.712C21.0447 21.3772 22.9739 22.9476 24.6932 23.3909C25.7085 23.6481 26.3313 19.7628 25.3701 18.2262C26.6731 18.0604 27.7866 17.7355 28.4534 17.2752C27.9514 17.438 27.4187 17.4832 26.8965 17.4072C28.1488 16.913 29.4958 16.2158 30.5585 16.3918C30.0467 16.2055 29.5056 16.1127 28.961 16.1177C29.3212 15.97 29.7057 15.8908 30.0948 15.8842C31.2354 15.9315 31.9868 16.8995 31.6957 17.5493C32.1323 16.8487 31.9732 15.7183 30.4231 15.39Z" fill="#263238"/>
<path d="M23.4308 24.1524C23.6686 24.3621 23.9468 24.521 24.2483 24.6194C24.5498 24.7177 24.8682 24.7535 25.1839 24.7244C26.0402 24.6432 26.1993 23.7903 25.7525 23.1337C25.3396 22.5448 24.3987 21.8747 23.6406 22.2842C23.4774 22.3713 23.3378 22.4969 23.2339 22.65C23.1299 22.8031 23.0649 22.9792 23.0442 23.1631C23.0236 23.347 23.0479 23.5332 23.1153 23.7055C23.1826 23.8779 23.2909 24.0313 23.4308 24.1524Z" fill="#FFC3BD"/>
<path d="M36.8062 52.1285C36.8062 52.1285 43.9136 71.6671 43.1589 79.6376C42.3839 87.933 37.5813 101.975 37.5813 101.975H33.151C33.151 101.975 35.7503 88.4372 36.0278 80.284C36.329 71.4065 28.1927 60.1802 27.6952 53.3402L36.8062 52.1285Z" fill="#19AFC5"/>
<path opacity="0.2" d="M29.5567 58.8637C29.3974 58.7612 29.2241 58.6826 29.0422 58.6301C30.5991 62.8235 33.1205 67.7141 34.6706 72.4862C34.8399 64.597 33.1307 61.0839 29.5567 58.8637Z" fill="black"/>
<path d="M31.8886 52.775C31.8886 52.775 33.9193 72.1004 31.8581 79.5834C29.6007 87.7807 23.1025 101.962 23.1025 101.962H18.3134C18.3134 101.962 22.4831 88.4575 23.9723 80.3348C25.5901 71.5351 23.4206 60.4984 22.957 53.9562L31.8886 52.775Z" fill="#19AFC5"/>
<path d="M23.9452 102.067H17.8633L18.2728 100.273H24.7846L23.9452 102.067Z" fill="#19AFC5"/>
<path opacity="0.4" d="M23.9452 102.067H17.8633L18.2728 100.273H24.7846L23.9452 102.067Z" fill="black"/>
<path d="M38.5628 102.067H32.5452L32.6433 100.361L38.8979 100.273L38.5628 102.067Z" fill="#19AFC5"/>
<path opacity="0.4" d="M38.5628 102.067H32.5452L32.6433 100.361L38.8979 100.273L38.5628 102.067Z" fill="black"/>
<path d="M27.8069 20.5412C27.8577 20.7409 28.01 20.8796 28.1453 20.8289C28.2807 20.7781 28.3416 20.5886 28.2909 20.3855C28.2401 20.1824 28.0878 20.0471 27.9524 20.0978C27.817 20.1486 27.7527 20.3381 27.8069 20.5412Z" fill="#263238"/>
<path d="M30.0847 19.8068C30.1388 20.0098 30.2877 20.1452 30.4231 20.0978C30.5585 20.0504 30.6228 19.8541 30.5686 19.6545C30.5145 19.4548 30.3656 19.316 30.2302 19.3634C30.0948 19.4108 30.0474 19.6037 30.0847 19.8068Z" fill="#263238"/>
<path d="M29.4078 20.1418C29.8092 20.6808 30.2869 21.1585 30.8259 21.5599C30.7156 21.7027 30.5761 21.8203 30.4168 21.9049C30.2575 21.9895 30.082 22.0392 29.9019 22.0507L29.4078 20.1418Z" fill="#ED847E"/>
<path d="M29.4484 22.7986C29.1854 22.8945 28.9028 22.9237 28.6257 22.8836C28.3487 22.8434 28.086 22.7351 27.8611 22.5685C27.8551 22.5628 27.8504 22.556 27.8472 22.5484C27.844 22.5409 27.8423 22.5327 27.8423 22.5245C27.8423 22.5163 27.844 22.5081 27.8472 22.5006C27.8504 22.493 27.8551 22.4862 27.8611 22.4805C27.8724 22.4695 27.8876 22.4634 27.9034 22.4634C27.9192 22.4634 27.9343 22.4695 27.9457 22.4805C28.1566 22.6317 28.4011 22.7295 28.6581 22.7654C28.9151 22.8014 29.177 22.7745 29.4213 22.6869C29.4289 22.6844 29.4369 22.6834 29.4448 22.6841C29.4528 22.6847 29.4605 22.6871 29.4675 22.6909C29.4745 22.6947 29.4806 22.6999 29.4855 22.7062C29.4904 22.7126 29.4939 22.7198 29.4958 22.7276C29.4972 22.743 29.4933 22.7586 29.4847 22.7715C29.4761 22.7845 29.4633 22.794 29.4484 22.7986Z" fill="#263238"/>
<path d="M26.9236 20.0234C26.898 20.0301 26.8712 20.0301 26.8457 20.0234C26.8305 20.0178 26.8166 20.0092 26.8048 19.998C26.7931 19.9869 26.7837 19.9734 26.7774 19.9585C26.7711 19.9436 26.7678 19.9275 26.7679 19.9113C26.7681 19.8951 26.7715 19.8791 26.778 19.8643C26.8481 19.6752 26.9605 19.5047 27.1065 19.3657C27.2526 19.2266 27.4285 19.1228 27.6208 19.0622C27.6363 19.0582 27.6526 19.0574 27.6684 19.0599C27.6843 19.0624 27.6995 19.0681 27.7132 19.0766C27.7268 19.0852 27.7385 19.0964 27.7476 19.1096C27.7568 19.1229 27.7631 19.1378 27.7663 19.1536C27.7709 19.1865 27.7635 19.22 27.7455 19.2479C27.7275 19.2759 27.7 19.2964 27.6681 19.3059C27.5139 19.3536 27.3727 19.4361 27.2554 19.547C27.138 19.6579 27.0477 19.7943 26.9912 19.9455C26.9792 19.979 26.9551 20.0068 26.9236 20.0234Z" fill="#263238"/>
<path d="M30.9003 18.7C30.8787 18.7072 30.8555 18.7081 30.8334 18.7027C30.8112 18.6973 30.791 18.6859 30.7751 18.6696C30.6785 18.5501 30.5537 18.4565 30.4118 18.3974C30.27 18.3383 30.1157 18.3156 29.9628 18.3311C29.9474 18.3346 29.9314 18.3347 29.9159 18.3315C29.9005 18.3283 29.8858 18.3218 29.8731 18.3125C29.8603 18.3032 29.8496 18.2914 29.8417 18.2776C29.8339 18.2639 29.829 18.2487 29.8275 18.233C29.8242 18.2001 29.833 18.1671 29.8523 18.1403C29.8717 18.1135 29.9001 18.0947 29.9324 18.0874C30.1212 18.0635 30.313 18.0872 30.4904 18.1563C30.6677 18.2255 30.825 18.3379 30.9477 18.4834C30.9701 18.5073 30.9825 18.5387 30.9825 18.5714C30.9825 18.6041 30.9701 18.6356 30.9477 18.6594C30.9368 18.6778 30.9201 18.692 30.9003 18.7Z" fill="#263238"/>
<path d="M23.2683 33.4597C23.5594 34.5935 23.864 35.7849 24.1923 36.939C24.5206 38.0931 24.8489 39.254 25.2076 40.3912C25.5664 41.5283 25.9658 42.652 26.3888 43.7418C26.7849 44.7933 27.2636 45.8119 27.8204 46.7878C27.8881 46.8927 27.9524 47.0146 28.0201 47.1094L28.1251 47.2617L28.1758 47.3361C28.2726 47.4532 28.3867 47.5548 28.5143 47.6373C28.9446 47.9356 29.3972 48.2003 29.8681 48.4293C30.8834 48.9336 31.9901 49.3973 33.107 49.8339C35.3475 50.7071 37.6693 51.5261 39.9707 52.3113L39.524 54.2235C37.0413 53.8641 34.5821 53.3578 32.1594 52.7073C30.9145 52.3758 29.6896 51.9735 28.4906 51.5024C27.8295 51.2444 27.1911 50.932 26.5817 50.5683C26.1828 50.3291 25.8184 50.0364 25.4987 49.6985L25.3464 49.536L25.2618 49.4277L25.0892 49.2043C24.9707 49.0554 24.8793 48.9099 24.7744 48.761C24.0338 47.6402 23.3971 46.4541 22.8723 45.2174C22.3444 44.0362 21.8976 42.8483 21.4813 41.64C20.6506 39.254 19.9534 36.8236 19.3931 34.36L23.2683 33.4597Z" fill="#FFC3BD"/>
<path d="M18.9328 32.7862C17.6467 35.7849 19.7383 42.6249 19.7383 42.6249L25.9996 41.0173C25.6127 38.6038 25.0551 36.2208 24.331 33.8862C23.248 30.6811 19.9312 30.478 18.9328 32.7862Z" fill="#263238"/>
<path d="M21.8875 105.654C21.659 105.648 21.4318 105.617 21.2106 105.559C21.1991 105.556 21.1888 105.55 21.1809 105.541C21.1731 105.532 21.1681 105.52 21.1666 105.509C21.1662 105.496 21.1691 105.484 21.1751 105.473C21.181 105.463 21.1898 105.454 21.2004 105.448C21.2986 105.387 22.1718 104.869 22.4527 105.018C22.4839 105.035 22.5094 105.06 22.5262 105.092C22.5431 105.123 22.5504 105.158 22.5474 105.194C22.5524 105.258 22.5418 105.322 22.5164 105.381C22.4911 105.44 22.4518 105.492 22.4019 105.532C22.2486 105.629 22.0677 105.671 21.8875 105.654ZM21.3933 105.471C21.6985 105.573 22.0309 105.557 22.3241 105.424C22.357 105.397 22.383 105.363 22.4001 105.324C22.4172 105.285 22.4247 105.243 22.4222 105.201C22.4233 105.186 22.4204 105.171 22.4139 105.158C22.4073 105.145 22.3973 105.134 22.385 105.126C22.2395 105.041 21.7453 105.275 21.3933 105.471Z" fill="#19AFC5"/>
<path d="M21.2207 105.559H21.1902C21.1811 105.554 21.1738 105.546 21.169 105.536C21.1642 105.527 21.1622 105.516 21.1632 105.505C21.1632 105.471 21.2749 104.717 21.593 104.47C21.6295 104.438 21.6722 104.415 21.7183 104.402C21.7644 104.388 21.8128 104.385 21.8604 104.392C21.906 104.39 21.9505 104.406 21.9854 104.435C22.0203 104.464 22.0433 104.506 22.0499 104.551C22.0871 104.845 21.5321 105.417 21.2512 105.566C21.2405 105.568 21.2297 105.565 21.2207 105.559ZM21.813 104.5C21.7599 104.502 21.7088 104.521 21.6675 104.554C21.472 104.787 21.3475 105.071 21.3087 105.373C21.5896 105.17 21.9484 104.737 21.9247 104.564C21.9247 104.564 21.9247 104.514 21.8401 104.503L21.813 104.5Z" fill="#19AFC5"/>
<path d="M37.1176 105.654C36.8433 105.648 36.5702 105.617 36.302 105.559C36.2894 105.558 36.2777 105.552 36.2691 105.543C36.2604 105.533 36.2553 105.521 36.2546 105.509C36.2534 105.495 36.2563 105.482 36.263 105.47C36.2696 105.459 36.2797 105.45 36.2918 105.444C36.4136 105.383 37.4933 104.849 37.8013 105.028C37.8301 105.044 37.854 105.068 37.8707 105.096C37.8873 105.125 37.8961 105.157 37.896 105.19C37.8984 105.248 37.8874 105.305 37.8639 105.357C37.8404 105.409 37.8051 105.455 37.7607 105.492C37.5705 105.616 37.3441 105.673 37.1176 105.654ZM36.5118 105.471C37.0838 105.566 37.5271 105.542 37.6828 105.4C37.7122 105.376 37.7355 105.346 37.7508 105.311C37.7661 105.276 37.773 105.238 37.7708 105.201C37.7719 105.188 37.7692 105.175 37.7633 105.163C37.7573 105.152 37.7481 105.143 37.737 105.136C37.5677 105.041 36.9552 105.265 36.5152 105.471H36.5118Z" fill="#19AFC5"/>
<path d="M36.3121 105.559C36.3011 105.563 36.2893 105.563 36.2782 105.559C36.2695 105.553 36.2627 105.544 36.2585 105.534C36.2543 105.524 36.253 105.513 36.2545 105.502C36.302 105.124 36.4638 104.77 36.7182 104.486C36.8132 104.409 36.9342 104.37 37.0567 104.378C37.2259 104.398 37.2699 104.483 37.28 104.554C37.3105 104.849 36.6505 105.414 36.329 105.569L36.3121 105.559ZM37.0127 104.5C36.932 104.5 36.854 104.529 36.7927 104.581C36.5847 104.805 36.448 105.085 36.4001 105.387C36.7385 105.194 37.1853 104.75 37.165 104.571C37.165 104.571 37.165 104.514 37.0499 104.503L37.0127 104.5Z" fill="#19AFC5"/>
<path d="M39.4732 52.2673L42.0894 51.8375L41.0369 55.09C41.0369 55.09 38.7557 54.958 38.7591 53.7125L39.4732 52.2673Z" fill="#FFC3BD"/>
<path d="M44.5668 53.0457L43.565 55.6721L41.0368 55.09L42.0894 51.8375L44.5668 53.0457Z" fill="#FFC3BD"/>
<path d="M113.793 15.8706L109.958 1.62194C109.884 1.34411 109.755 1.0837 109.58 0.855588C109.405 0.627479 109.186 0.43614 108.937 0.292503C108.688 0.148866 108.413 0.055748 108.127 0.0184669C107.842 -0.0188141 107.552 0.000473502 107.274 0.0752278L79.5217 7.52108C78.9604 7.67249 78.4821 8.04062 78.1921 8.54453C77.902 9.04844 77.824 9.64691 77.975 10.2084L81.8063 24.457C81.957 25.0183 82.3243 25.4967 82.8275 25.7874C83.3307 26.078 83.9287 26.157 84.4902 26.0071L88.406 24.9545L93.7975 28.0581L92.6501 23.814L112.246 18.5477C112.805 18.3962 113.282 18.0296 113.572 17.5281C113.861 17.0265 113.941 16.4306 113.793 15.8706Z" fill="#19AFC5"/>
<path opacity="0.2" d="M113.793 15.8706L109.958 1.62194C109.884 1.34411 109.755 1.0837 109.58 0.855588C109.405 0.627479 109.186 0.43614 108.937 0.292503C108.688 0.148866 108.413 0.055748 108.127 0.0184669C107.842 -0.0188141 107.552 0.000473502 107.274 0.0752278L79.5217 7.52108C78.9604 7.67249 78.4821 8.04062 78.1921 8.54453C77.902 9.04844 77.824 9.64691 77.975 10.2084L81.8063 24.457C81.957 25.0183 82.3243 25.4967 82.8275 25.7874C83.3307 26.078 83.9287 26.157 84.4902 26.0071L88.406 24.9545L93.7975 28.0581L92.6501 23.814L112.246 18.5477C112.805 18.3962 113.282 18.0296 113.572 17.5281C113.861 17.0265 113.941 16.4306 113.793 15.8706Z" fill="black"/>
<path d="M125.101 45.7048L126.583 36.059C126.641 35.6793 126.546 35.292 126.319 34.9823C126.092 34.6726 125.751 34.4658 125.371 34.4074L106.574 31.5171C106.386 31.4877 106.194 31.4958 106.009 31.5409C105.824 31.586 105.65 31.6671 105.496 31.7797C105.343 31.8923 105.213 32.0341 105.115 32.1969C105.016 32.3598 104.951 32.5405 104.922 32.7287L103.437 42.3745C103.378 42.7542 103.473 43.1415 103.7 43.4512C103.928 43.7609 104.268 43.9677 104.648 44.0261L107.298 44.4356L109.732 47.7524L110.175 44.8756L123.435 46.9063C123.624 46.9372 123.816 46.9306 124.002 46.8869C124.188 46.8432 124.363 46.7632 124.518 46.6516C124.672 46.5399 124.804 46.3988 124.904 46.2363C125.004 46.0739 125.071 45.8932 125.101 45.7048Z" fill="#19AFC5"/>
<path opacity="0.3" d="M125.101 45.7048L126.583 36.059C126.641 35.6793 126.546 35.292 126.319 34.9823C126.092 34.6726 125.751 34.4658 125.371 34.4074L106.574 31.5171C106.386 31.4877 106.194 31.4958 106.009 31.5409C105.824 31.586 105.65 31.6671 105.496 31.7797C105.343 31.8923 105.213 32.0341 105.115 32.1969C105.016 32.3598 104.951 32.5405 104.922 32.7287L103.437 42.3745C103.378 42.7542 103.473 43.1415 103.7 43.4512C103.928 43.7609 104.268 43.9677 104.648 44.0261L107.298 44.4356L109.732 47.7524L110.175 44.8756L123.435 46.9063C123.624 46.9372 123.816 46.9306 124.002 46.8869C124.188 46.8432 124.363 46.7632 124.518 46.6516C124.672 46.5399 124.804 46.3988 124.904 46.2363C125.004 46.0739 125.071 45.8932 125.101 45.7048Z" fill="white"/>
<path d="M124.434 30.0685L122.017 12.8076C121.922 12.1268 121.559 11.5119 121.01 11.098C120.461 10.6842 119.771 10.5054 119.09 10.601L85.4446 15.3054C84.7638 15.401 84.1488 15.7632 83.735 16.3122C83.3212 16.8612 83.1424 17.5521 83.2379 18.233L85.6544 35.4938C85.701 35.831 85.8136 36.1556 85.9859 36.4491C86.1581 36.7427 86.3867 36.9993 86.6583 37.2043C86.93 37.4093 87.2395 37.5587 87.569 37.6438C87.8985 37.729 88.2416 37.7482 88.5786 37.7005L93.3169 37.0236L99.189 41.4539L98.4681 36.3027L122.217 32.9825C122.897 32.8883 123.511 32.529 123.927 31.9829C124.342 31.4369 124.524 30.7486 124.434 30.0685Z" fill="#19AFC5"/>
<path d="M88.7817 22.8866L90.6871 22.6192L93.6824 25.9225L93.1713 22.2706L95.0937 22.0033L96.0177 28.603L94.0953 28.8738L91.117 25.5942L91.6246 29.219L89.7056 29.4864L88.7817 22.8866Z" fill="white"/>
<path d="M96.4442 21.8137L101.913 21.0489L102.11 22.4602L98.6881 22.9374L98.8336 23.9866L102.008 23.5432L102.198 24.897L99.0231 25.3404L99.2025 26.64L102.726 26.1493L102.936 27.6418L97.3681 28.4203L96.4442 21.8137Z" fill="white"/>
<path d="M102.431 20.9778L104.367 20.707L105.582 24.3047L106.087 20.4667L108.016 20.196L109.556 23.7429L109.738 19.9557L111.664 19.6849L111.133 26.4911L109.133 26.7686L107.393 22.7749L106.821 27.0935L104.821 27.3711L102.431 20.9778Z" fill="white"/>
<path d="M112.592 24.0577L114.517 23.6651C114.57 23.9161 114.686 24.1492 114.856 24.342C114.983 24.4598 115.135 24.546 115.302 24.5937C115.468 24.6413 115.644 24.649 115.814 24.6161C116.058 24.5982 116.287 24.491 116.457 24.3149C116.521 24.2485 116.57 24.1684 116.6 24.0806C116.63 23.9927 116.64 23.8993 116.629 23.8072C116.614 23.7193 116.581 23.6356 116.53 23.562C116.48 23.4884 116.415 23.4266 116.338 23.3808C115.994 23.2235 115.62 23.1427 115.242 23.1439C114.532 23.1282 113.836 22.945 113.211 22.6091C113.004 22.4796 112.829 22.3054 112.698 22.0992C112.567 21.893 112.485 21.6602 112.456 21.4178C112.407 21.0707 112.464 20.7169 112.619 20.4024C112.792 20.0526 113.066 19.7619 113.404 19.5665C113.895 19.301 114.435 19.1365 114.991 19.0825C115.662 18.9456 116.358 19.0153 116.988 19.2822C117.244 19.428 117.466 19.6275 117.639 19.867C117.811 20.1065 117.93 20.3803 117.986 20.6698L116.081 21.0522C116.02 20.8073 115.874 20.5924 115.668 20.4464C115.452 20.3302 115.202 20.2919 114.961 20.3381C114.768 20.3506 114.586 20.431 114.446 20.5649C114.396 20.6162 114.359 20.6783 114.336 20.7463C114.314 20.8143 114.308 20.8866 114.318 20.9575C114.327 21.0129 114.349 21.0655 114.382 21.1112C114.415 21.157 114.458 21.1947 114.507 21.2215C114.733 21.3212 114.978 21.3709 115.225 21.367C115.9 21.3939 116.57 21.4996 117.221 21.6818C117.588 21.795 117.915 22.0084 118.166 22.2977C118.384 22.5682 118.522 22.894 118.565 23.2386C118.626 23.6542 118.561 24.0786 118.379 24.457C118.19 24.8524 117.889 25.1832 117.513 25.4081C117.034 25.6789 116.506 25.8483 115.959 25.9056C114.831 26.0635 114.023 25.9507 113.536 25.5671C113.053 25.1906 112.719 24.6562 112.592 24.0577Z" fill="white"/>
</svg>
