<svg width="147" height="162" viewBox="0 0 147 162" fill="none" xmlns="http://www.w3.org/2000/svg">
<rect y="9" width="138" height="153" rx="8" fill="#ED1CD8"/>
<path d="M24.1328 96.7734V101H22.1562V89.625H26.5078C27.7786 89.625 28.7865 89.9557 29.5312 90.6172C30.2812 91.2786 30.6562 92.1536 30.6562 93.2422C30.6562 94.3568 30.2891 95.224 29.5547 95.8438C28.8255 96.4635 27.8021 96.7734 26.4844 96.7734H24.1328ZM24.1328 95.1875H26.5078C27.2109 95.1875 27.7474 95.0234 28.1172 94.6953C28.487 94.362 28.6719 93.8828 28.6719 93.2578C28.6719 92.6432 28.4844 92.1536 28.1094 91.7891C27.7344 91.4193 27.2188 91.2292 26.5625 91.2188H24.1328V95.1875ZM37.1641 101C37.0807 100.839 37.0078 100.576 36.9453 100.211C36.3411 100.841 35.6016 101.156 34.7266 101.156C33.8776 101.156 33.1849 100.914 32.6484 100.43C32.112 99.9453 31.8438 99.3464 31.8438 98.6328C31.8438 97.7318 32.1771 97.0417 32.8438 96.5625C33.5156 96.0781 34.474 95.8359 35.7188 95.8359H36.8828V95.2812C36.8828 94.8438 36.7604 94.4948 36.5156 94.2344C36.2708 93.9688 35.8984 93.8359 35.3984 93.8359C34.9661 93.8359 34.612 93.9453 34.3359 94.1641C34.0599 94.3776 33.9219 94.651 33.9219 94.9844H32.0234C32.0234 94.5208 32.1771 94.0885 32.4844 93.6875C32.7917 93.2812 33.2083 92.9635 33.7344 92.7344C34.2656 92.5052 34.8568 92.3906 35.5078 92.3906C36.4974 92.3906 37.2865 92.6406 37.875 93.1406C38.4635 93.6354 38.7656 94.3333 38.7812 95.2344V99.0469C38.7812 99.8073 38.888 100.414 39.1016 100.867V101H37.1641ZM35.0781 99.6328C35.4531 99.6328 35.8047 99.5417 36.1328 99.3594C36.4661 99.1771 36.7161 98.9323 36.8828 98.625V97.0312H35.8594C35.1562 97.0312 34.6276 97.1536 34.2734 97.3984C33.9193 97.6432 33.7422 97.9896 33.7422 98.4375C33.7422 98.8021 33.862 99.0938 34.1016 99.3125C34.3464 99.526 34.6719 99.6328 35.0781 99.6328ZM40.4375 96.7109C40.4375 95.3984 40.7448 94.3516 41.3594 93.5703C41.9792 92.7839 42.7995 92.3906 43.8203 92.3906C44.7839 92.3906 45.5417 92.7266 46.0938 93.3984L46.1797 92.5469H47.8906V100.742C47.8906 101.852 47.5443 102.727 46.8516 103.367C46.1641 104.008 45.2344 104.328 44.0625 104.328C43.4427 104.328 42.8359 104.198 42.2422 103.938C41.6536 103.682 41.2057 103.346 40.8984 102.93L41.7969 101.789C42.3802 102.482 43.099 102.828 43.9531 102.828C44.5833 102.828 45.0807 102.656 45.4453 102.312C45.8099 101.974 45.9922 101.474 45.9922 100.812V100.242C45.4453 100.852 44.7161 101.156 43.8047 101.156C42.8151 101.156 42.0052 100.763 41.375 99.9766C40.75 99.1901 40.4375 98.1016 40.4375 96.7109ZM42.3281 96.875C42.3281 97.724 42.5 98.3932 42.8438 98.8828C43.1927 99.3672 43.6745 99.6094 44.2891 99.6094C45.0547 99.6094 45.6224 99.2812 45.9922 98.625V94.9062C45.6328 94.2656 45.0703 93.9453 44.3047 93.9453C43.6797 93.9453 43.1927 94.1927 42.8438 94.6875C42.5 95.1823 42.3281 95.9115 42.3281 96.875ZM54.8984 101C54.8151 100.839 54.7422 100.576 54.6797 100.211C54.0755 100.841 53.3359 101.156 52.4609 101.156C51.612 101.156 50.9193 100.914 50.3828 100.43C49.8464 99.9453 49.5781 99.3464 49.5781 98.6328C49.5781 97.7318 49.9115 97.0417 50.5781 96.5625C51.25 96.0781 52.2083 95.8359 53.4531 95.8359H54.6172V95.2812C54.6172 94.8438 54.4948 94.4948 54.25 94.2344C54.0052 93.9688 53.6328 93.8359 53.1328 93.8359C52.7005 93.8359 52.3464 93.9453 52.0703 94.1641C51.7943 94.3776 51.6562 94.651 51.6562 94.9844H49.7578C49.7578 94.5208 49.9115 94.0885 50.2188 93.6875C50.526 93.2812 50.9427 92.9635 51.4688 92.7344C52 92.5052 52.5911 92.3906 53.2422 92.3906C54.2318 92.3906 55.0208 92.6406 55.6094 93.1406C56.1979 93.6354 56.5 94.3333 56.5156 95.2344V99.0469C56.5156 99.8073 56.6224 100.414 56.8359 100.867V101H54.8984ZM52.8125 99.6328C53.1875 99.6328 53.5391 99.5417 53.8672 99.3594C54.2005 99.1771 54.4505 98.9323 54.6172 98.625V97.0312H53.5938C52.8906 97.0312 52.362 97.1536 52.0078 97.3984C51.6536 97.6432 51.4766 97.9896 51.4766 98.4375C51.4766 98.8021 51.5964 99.0938 51.8359 99.3125C52.0807 99.526 52.4062 99.6328 52.8125 99.6328ZM60.2891 92.5469L60.3438 93.4297C60.9375 92.737 61.75 92.3906 62.7812 92.3906C63.9115 92.3906 64.6849 92.8229 65.1016 93.6875C65.7161 92.8229 66.5807 92.3906 67.6953 92.3906C68.6276 92.3906 69.3203 92.6484 69.7734 93.1641C70.2318 93.6797 70.4661 94.4401 70.4766 95.4453V101H68.5781V95.5C68.5781 94.9635 68.4609 94.5703 68.2266 94.3203C67.9922 94.0703 67.6042 93.9453 67.0625 93.9453C66.6302 93.9453 66.276 94.0625 66 94.2969C65.7292 94.526 65.5391 94.8281 65.4297 95.2031L65.4375 101H63.5391V95.4375C63.513 94.4427 63.0052 93.9453 62.0156 93.9453C61.2552 93.9453 60.7161 94.2552 60.3984 94.875V101H58.5V92.5469H60.2891ZM76.1484 101.156C74.9453 101.156 73.9688 100.779 73.2188 100.023C72.474 99.263 72.1016 98.2526 72.1016 96.9922V96.7578C72.1016 95.9141 72.263 95.1615 72.5859 94.5C72.9141 93.8333 73.3724 93.3151 73.9609 92.9453C74.5495 92.5755 75.2057 92.3906 75.9297 92.3906C77.0807 92.3906 77.9688 92.7578 78.5938 93.4922C79.224 94.2266 79.5391 95.2656 79.5391 96.6094V97.375H74.0156C74.0729 98.0729 74.3047 98.625 74.7109 99.0312C75.1224 99.4375 75.638 99.6406 76.2578 99.6406C77.1276 99.6406 77.8359 99.2891 78.3828 98.5859L79.4062 99.5625C79.0677 100.068 78.6146 100.461 78.0469 100.742C77.4844 101.018 76.8516 101.156 76.1484 101.156ZM75.9219 93.9141C75.401 93.9141 74.9792 94.0964 74.6562 94.4609C74.3385 94.8255 74.1354 95.3333 74.0469 95.9844H77.6641V95.8438C77.6224 95.2083 77.4531 94.7292 77.1562 94.4062C76.8594 94.0781 76.4479 93.9141 75.9219 93.9141ZM82.7812 92.5469L82.8359 93.5234C83.4609 92.7682 84.2812 92.3906 85.2969 92.3906C87.0573 92.3906 87.9531 93.3984 87.9844 95.4141V101H86.0859V95.5234C86.0859 94.987 85.9688 94.5911 85.7344 94.3359C85.5052 94.0755 85.1276 93.9453 84.6016 93.9453C83.8359 93.9453 83.2656 94.2917 82.8906 94.9844V101H80.9922V92.5469H82.7812ZM92.3047 90.4922V92.5469H93.7969V93.9531H92.3047V98.6719C92.3047 98.9948 92.3672 99.2292 92.4922 99.375C92.6224 99.5156 92.8516 99.5859 93.1797 99.5859C93.3984 99.5859 93.6198 99.5599 93.8438 99.5078V100.977C93.4115 101.096 92.9948 101.156 92.5938 101.156C91.1354 101.156 90.4062 100.352 90.4062 98.7422V93.9531H89.0156V92.5469H90.4062V90.4922H92.3047ZM94.6641 96.6953C94.6641 95.8672 94.8281 95.1224 95.1562 94.4609C95.4844 93.7943 95.9453 93.2839 96.5391 92.9297C97.1328 92.5703 97.8151 92.3906 98.5859 92.3906C99.7266 92.3906 100.651 92.7578 101.359 93.4922C102.073 94.2266 102.458 95.2005 102.516 96.4141L102.523 96.8594C102.523 97.6927 102.362 98.4375 102.039 99.0938C101.721 99.75 101.263 100.258 100.664 100.617C100.07 100.977 99.3828 101.156 98.6016 101.156C97.4089 101.156 96.4531 100.76 95.7344 99.9688C95.0208 99.1719 94.6641 98.112 94.6641 96.7891V96.6953ZM96.5625 96.8594C96.5625 97.7292 96.7422 98.4115 97.1016 98.9062C97.4609 99.3958 97.9609 99.6406 98.6016 99.6406C99.2422 99.6406 99.7396 99.3906 100.094 98.8906C100.453 98.3906 100.633 97.6589 100.633 96.6953C100.633 95.8411 100.448 95.1641 100.078 94.6641C99.7135 94.1641 99.2161 93.9141 98.5859 93.9141C97.9661 93.9141 97.474 94.1615 97.1094 94.6562C96.7448 95.1458 96.5625 95.8802 96.5625 96.8594ZM24.1328 115.773V120H22.1562V108.625H26.5078C27.7786 108.625 28.7865 108.956 29.5312 109.617C30.2812 110.279 30.6562 111.154 30.6562 112.242C30.6562 113.357 30.2891 114.224 29.5547 114.844C28.8255 115.464 27.8021 115.773 26.4844 115.773H24.1328ZM24.1328 114.188H26.5078C27.2109 114.188 27.7474 114.023 28.1172 113.695C28.487 113.362 28.6719 112.883 28.6719 112.258C28.6719 111.643 28.4844 111.154 28.1094 110.789C27.7344 110.419 27.2188 110.229 26.5625 110.219H24.1328V114.188ZM37.1641 120C37.0807 119.839 37.0078 119.576 36.9453 119.211C36.3411 119.841 35.6016 120.156 34.7266 120.156C33.8776 120.156 33.1849 119.914 32.6484 119.43C32.112 118.945 31.8438 118.346 31.8438 117.633C31.8438 116.732 32.1771 116.042 32.8438 115.562C33.5156 115.078 34.474 114.836 35.7188 114.836H36.8828V114.281C36.8828 113.844 36.7604 113.495 36.5156 113.234C36.2708 112.969 35.8984 112.836 35.3984 112.836C34.9661 112.836 34.612 112.945 34.3359 113.164C34.0599 113.378 33.9219 113.651 33.9219 113.984H32.0234C32.0234 113.521 32.1771 113.089 32.4844 112.688C32.7917 112.281 33.2083 111.964 33.7344 111.734C34.2656 111.505 34.8568 111.391 35.5078 111.391C36.4974 111.391 37.2865 111.641 37.875 112.141C38.4635 112.635 38.7656 113.333 38.7812 114.234V118.047C38.7812 118.807 38.888 119.414 39.1016 119.867V120H37.1641ZM35.0781 118.633C35.4531 118.633 35.8047 118.542 36.1328 118.359C36.4661 118.177 36.7161 117.932 36.8828 117.625V116.031H35.8594C35.1562 116.031 34.6276 116.154 34.2734 116.398C33.9193 116.643 33.7422 116.99 33.7422 117.438C33.7422 117.802 33.862 118.094 34.1016 118.312C34.3464 118.526 34.6719 118.633 35.0781 118.633ZM45.1953 113.281C44.9453 113.24 44.6875 113.219 44.4219 113.219C43.5521 113.219 42.9661 113.552 42.6641 114.219V120H40.7656V111.547H42.5781L42.625 112.492C43.0833 111.758 43.7188 111.391 44.5312 111.391C44.8021 111.391 45.026 111.427 45.2031 111.5L45.1953 113.281ZM49.7109 118.641C50.1849 118.641 50.5781 118.503 50.8906 118.227C51.2031 117.951 51.3698 117.609 51.3906 117.203H53.1797C53.1589 117.729 52.9948 118.221 52.6875 118.68C52.3802 119.133 51.9635 119.492 51.4375 119.758C50.9115 120.023 50.3438 120.156 49.7344 120.156C48.5521 120.156 47.6146 119.773 46.9219 119.008C46.2292 118.242 45.8828 117.185 45.8828 115.836V115.641C45.8828 114.354 46.2266 113.326 46.9141 112.555C47.6016 111.779 48.5391 111.391 49.7266 111.391C50.7318 111.391 51.5495 111.685 52.1797 112.273C52.8151 112.857 53.1484 113.625 53.1797 114.578H51.3906C51.3698 114.094 51.2031 113.695 50.8906 113.383C50.5833 113.07 50.1901 112.914 49.7109 112.914C49.0964 112.914 48.6224 113.138 48.2891 113.586C47.9557 114.029 47.7865 114.703 47.7812 115.609V115.914C47.7812 116.831 47.9453 117.516 48.2734 117.969C48.6068 118.417 49.0859 118.641 49.7109 118.641ZM56.6328 120H54.7344V111.547H56.6328V120ZM54.6172 109.352C54.6172 109.06 54.7083 108.818 54.8906 108.625C55.0781 108.432 55.3438 108.336 55.6875 108.336C56.0312 108.336 56.2969 108.432 56.4844 108.625C56.6719 108.818 56.7656 109.06 56.7656 109.352C56.7656 109.638 56.6719 109.878 56.4844 110.07C56.2969 110.258 56.0312 110.352 55.6875 110.352C55.3438 110.352 55.0781 110.258 54.8906 110.07C54.7083 109.878 54.6172 109.638 54.6172 109.352ZM63.7578 120C63.6745 119.839 63.6016 119.576 63.5391 119.211C62.9349 119.841 62.1953 120.156 61.3203 120.156C60.4714 120.156 59.7786 119.914 59.2422 119.43C58.7057 118.945 58.4375 118.346 58.4375 117.633C58.4375 116.732 58.7708 116.042 59.4375 115.562C60.1094 115.078 61.0677 114.836 62.3125 114.836H63.4766V114.281C63.4766 113.844 63.3542 113.495 63.1094 113.234C62.8646 112.969 62.4922 112.836 61.9922 112.836C61.5599 112.836 61.2057 112.945 60.9297 113.164C60.6536 113.378 60.5156 113.651 60.5156 113.984H58.6172C58.6172 113.521 58.7708 113.089 59.0781 112.688C59.3854 112.281 59.8021 111.964 60.3281 111.734C60.8594 111.505 61.4505 111.391 62.1016 111.391C63.0911 111.391 63.8802 111.641 64.4688 112.141C65.0573 112.635 65.3594 113.333 65.375 114.234V118.047C65.375 118.807 65.4818 119.414 65.6953 119.867V120H63.7578ZM61.6719 118.633C62.0469 118.633 62.3984 118.542 62.7266 118.359C63.0599 118.177 63.3099 117.932 63.4766 117.625V116.031H62.4531C61.75 116.031 61.2214 116.154 60.8672 116.398C60.513 116.643 60.3359 116.99 60.3359 117.438C60.3359 117.802 60.4557 118.094 60.6953 118.312C60.9401 118.526 61.2656 118.633 61.6719 118.633ZM69.3828 120H67.4844V108H69.3828V120ZM75.0859 115.711C75.0859 114.409 75.388 113.365 75.9922 112.578C76.5964 111.786 77.4062 111.391 78.4219 111.391C79.3177 111.391 80.0417 111.703 80.5938 112.328V108H82.4922V120H80.7734L80.6797 119.125C80.112 119.812 79.3542 120.156 78.4062 120.156C77.4167 120.156 76.6146 119.758 76 118.961C75.3906 118.164 75.0859 117.081 75.0859 115.711ZM76.9844 115.875C76.9844 116.734 77.1484 117.406 77.4766 117.891C77.8099 118.37 78.2812 118.609 78.8906 118.609C79.6667 118.609 80.2344 118.263 80.5938 117.57V113.961C80.2448 113.284 79.6823 112.945 78.9062 112.945C78.2917 112.945 77.8177 113.19 77.4844 113.68C77.151 114.164 76.9844 114.896 76.9844 115.875ZM88.1953 120.156C86.9922 120.156 86.0156 119.779 85.2656 119.023C84.5208 118.263 84.1484 117.253 84.1484 115.992V115.758C84.1484 114.914 84.3099 114.161 84.6328 113.5C84.9609 112.833 85.4193 112.315 86.0078 111.945C86.5964 111.576 87.2526 111.391 87.9766 111.391C89.1276 111.391 90.0156 111.758 90.6406 112.492C91.2708 113.227 91.5859 114.266 91.5859 115.609V116.375H86.0625C86.1198 117.073 86.3516 117.625 86.7578 118.031C87.1693 118.438 87.6849 118.641 88.3047 118.641C89.1745 118.641 89.8828 118.289 90.4297 117.586L91.4531 118.562C91.1146 119.068 90.6615 119.461 90.0938 119.742C89.5312 120.018 88.8984 120.156 88.1953 120.156ZM87.9688 112.914C87.4479 112.914 87.026 113.096 86.7031 113.461C86.3854 113.826 86.1823 114.333 86.0938 114.984H89.7109V114.844C89.6693 114.208 89.5 113.729 89.2031 113.406C88.9062 113.078 88.4948 112.914 87.9688 112.914ZM25.4453 137.641C25.9193 137.641 26.3125 137.503 26.625 137.227C26.9375 136.951 27.1042 136.609 27.125 136.203H28.9141C28.8932 136.729 28.7292 137.221 28.4219 137.68C28.1146 138.133 27.6979 138.492 27.1719 138.758C26.6458 139.023 26.0781 139.156 25.4688 139.156C24.2865 139.156 23.349 138.773 22.6562 138.008C21.9635 137.242 21.6172 136.185 21.6172 134.836V134.641C21.6172 133.354 21.9609 132.326 22.6484 131.555C23.3359 130.779 24.2734 130.391 25.4609 130.391C26.4661 130.391 27.2839 130.685 27.9141 131.273C28.5495 131.857 28.8828 132.625 28.9141 133.578H27.125C27.1042 133.094 26.9375 132.695 26.625 132.383C26.3177 132.07 25.9245 131.914 25.4453 131.914C24.8307 131.914 24.3568 132.138 24.0234 132.586C23.6901 133.029 23.5208 133.703 23.5156 134.609V134.914C23.5156 135.831 23.6797 136.516 24.0078 136.969C24.3411 137.417 24.8203 137.641 25.4453 137.641ZM29.9922 134.695C29.9922 133.867 30.1562 133.122 30.4844 132.461C30.8125 131.794 31.2734 131.284 31.8672 130.93C32.4609 130.57 33.1432 130.391 33.9141 130.391C35.0547 130.391 35.9792 130.758 36.6875 131.492C37.401 132.227 37.7865 133.201 37.8438 134.414L37.8516 134.859C37.8516 135.693 37.6901 136.438 37.3672 137.094C37.0495 137.75 36.5911 138.258 35.9922 138.617C35.3984 138.977 34.7109 139.156 33.9297 139.156C32.737 139.156 31.7812 138.76 31.0625 137.969C30.349 137.172 29.9922 136.112 29.9922 134.789V134.695ZM31.8906 134.859C31.8906 135.729 32.0703 136.411 32.4297 136.906C32.7891 137.396 33.2891 137.641 33.9297 137.641C34.5703 137.641 35.0677 137.391 35.4219 136.891C35.7812 136.391 35.9609 135.659 35.9609 134.695C35.9609 133.841 35.776 133.164 35.4062 132.664C35.0417 132.164 34.5443 131.914 33.9141 131.914C33.2943 131.914 32.8021 132.161 32.4375 132.656C32.0729 133.146 31.8906 133.88 31.8906 134.859ZM41.2188 130.547L41.2734 131.523C41.8984 130.768 42.7188 130.391 43.7344 130.391C45.4948 130.391 46.3906 131.398 46.4219 133.414V139H44.5234V133.523C44.5234 132.987 44.4062 132.591 44.1719 132.336C43.9427 132.076 43.5651 131.945 43.0391 131.945C42.2734 131.945 41.7031 132.292 41.3281 132.984V139H39.4297V130.547H41.2188ZM50.7422 128.492V130.547H52.2344V131.953H50.7422V136.672C50.7422 136.995 50.8047 137.229 50.9297 137.375C51.0599 137.516 51.2891 137.586 51.6172 137.586C51.8359 137.586 52.0573 137.56 52.2812 137.508V138.977C51.849 139.096 51.4323 139.156 51.0312 139.156C49.5729 139.156 48.8438 138.352 48.8438 136.742V131.953H47.4531V130.547H48.8438V128.492H50.7422ZM58.7422 139C58.6589 138.839 58.5859 138.576 58.5234 138.211C57.9193 138.841 57.1797 139.156 56.3047 139.156C55.4557 139.156 54.763 138.914 54.2266 138.43C53.6901 137.945 53.4219 137.346 53.4219 136.633C53.4219 135.732 53.7552 135.042 54.4219 134.562C55.0938 134.078 56.0521 133.836 57.2969 133.836H58.4609V133.281C58.4609 132.844 58.3385 132.495 58.0938 132.234C57.849 131.969 57.4766 131.836 56.9766 131.836C56.5443 131.836 56.1901 131.945 55.9141 132.164C55.638 132.378 55.5 132.651 55.5 132.984H53.6016C53.6016 132.521 53.7552 132.089 54.0625 131.688C54.3698 131.281 54.7865 130.964 55.3125 130.734C55.8438 130.505 56.4349 130.391 57.0859 130.391C58.0755 130.391 58.8646 130.641 59.4531 131.141C60.0417 131.635 60.3438 132.333 60.3594 133.234V137.047C60.3594 137.807 60.4661 138.414 60.6797 138.867V139H58.7422ZM56.6562 137.633C57.0312 137.633 57.3828 137.542 57.7109 137.359C58.0443 137.177 58.2943 136.932 58.4609 136.625V135.031H57.4375C56.7344 135.031 56.2057 135.154 55.8516 135.398C55.4974 135.643 55.3203 135.99 55.3203 136.438C55.3203 136.802 55.4401 137.094 55.6797 137.312C55.9245 137.526 56.25 137.633 56.6562 137.633Z" fill="white"/>
<circle cx="135.5" cy="11.5" r="11.5" fill="#80C342"/>
<path d="M127.384 9.24512L127.411 9.84277C127.774 9.38574 128.249 9.15723 128.834 9.15723C129.839 9.15723 130.346 9.72412 130.355 10.8579V14H129.542V10.8535C129.539 10.5107 129.46 10.2573 129.305 10.0933C129.152 9.9292 128.914 9.84717 128.588 9.84717C128.325 9.84717 128.093 9.91748 127.894 10.0581C127.695 10.1987 127.54 10.3833 127.428 10.6118V14H126.615V9.24512H127.384ZM131.366 11.5786C131.366 11.1128 131.457 10.6938 131.638 10.3218C131.823 9.94971 132.078 9.6626 132.403 9.46045C132.731 9.2583 133.104 9.15723 133.523 9.15723C134.171 9.15723 134.694 9.38135 135.092 9.82959C135.494 10.2778 135.694 10.874 135.694 11.6182V11.6753C135.694 12.1382 135.605 12.5542 135.426 12.9233C135.25 13.2896 134.997 13.5752 134.666 13.7803C134.338 13.9854 133.96 14.0879 133.532 14.0879C132.888 14.0879 132.365 13.8638 131.963 13.4155C131.565 12.9673 131.366 12.374 131.366 11.6357V11.5786ZM132.183 11.6753C132.183 12.2026 132.305 12.626 132.548 12.9453C132.794 13.2646 133.122 13.4243 133.532 13.4243C133.945 13.4243 134.273 13.2632 134.517 12.9409C134.76 12.6157 134.881 12.1616 134.881 11.5786C134.881 11.0571 134.757 10.6353 134.508 10.313C134.262 9.98779 133.934 9.8252 133.523 9.8252C133.122 9.8252 132.798 9.98486 132.552 10.3042C132.306 10.6235 132.183 11.0806 132.183 11.6753ZM138.212 12.897L139.39 9.24512H140.221L138.516 14H137.896L136.173 9.24512H137.004L138.212 12.897ZM140.717 11.5786C140.717 11.1128 140.808 10.6938 140.99 10.3218C141.174 9.94971 141.429 9.6626 141.754 9.46045C142.083 9.2583 142.456 9.15723 142.875 9.15723C143.522 9.15723 144.045 9.38135 144.444 9.82959C144.845 10.2778 145.046 10.874 145.046 11.6182V11.6753C145.046 12.1382 144.957 12.5542 144.778 12.9233C144.602 13.2896 144.349 13.5752 144.018 13.7803C143.689 13.9854 143.312 14.0879 142.884 14.0879C142.239 14.0879 141.716 13.8638 141.315 13.4155C140.917 12.9673 140.717 12.374 140.717 11.6357V11.5786ZM141.535 11.6753C141.535 12.2026 141.656 12.626 141.899 12.9453C142.146 13.2646 142.474 13.4243 142.884 13.4243C143.297 13.4243 143.625 13.2632 143.868 12.9409C144.111 12.6157 144.233 12.1616 144.233 11.5786C144.233 11.0571 144.108 10.6353 143.859 10.313C143.613 9.98779 143.285 9.8252 142.875 9.8252C142.474 9.8252 142.15 9.98486 141.904 10.3042C141.658 10.6235 141.535 11.0806 141.535 11.6753Z" fill="white"/>
<path d="M43.3013 40.7498L41.9741 40.5538C41.3708 40.4633 41.0164 40.2295 41.0164 39.8525C41.0164 39.4754 41.5443 39.0984 42.2531 39.1361H42.7961C43.5049 39.1361 44.0328 39.5131 44.0328 39.8525V40.0561H45.541V39.8525C45.541 38.5705 44.3344 37.5902 42.7961 37.5902H42.2531C40.7148 37.5902 39.5082 38.5705 39.5082 39.8525C39.632 41.0286 40.5898 41.9418 41.7705 42.0092L43.0751 42.2053C43.6784 42.2957 44.0328 42.5672 44.0328 42.9066C44.0328 43.2459 43.5049 43.623 42.7961 43.623H42.2531C41.5443 43.623 41.0164 43.2459 41.0164 42.9066V42.703H39.5082V42.9066C39.5082 44.1508 40.7449 45.1312 42.2531 45.1312H42.7961C44.3344 45.1312 45.541 44.1508 45.5636 42.9443C45.4573 41.7534 44.495 40.8199 43.3013 40.7498Z" fill="white"/>
<path d="M43.2787 44.377H41.7705V45.8852H43.2787V44.377Z" fill="white"/>
<path d="M42.5246 33.8197C38.3598 33.8197 34.9836 37.1959 34.9836 41.3607C34.9836 45.5254 38.3598 48.9016 42.5246 48.9016C46.6894 48.9016 50.0656 45.5254 50.0656 41.3607C50.0656 37.1959 46.6894 33.8197 42.5246 33.8197ZM42.5246 47.3934C39.1928 47.3934 36.4918 44.6925 36.4918 41.3607C36.4918 38.0289 39.1928 35.3279 42.5246 35.3279C45.8564 35.3279 48.5574 38.0289 48.5574 41.3607C48.5574 44.6925 45.8564 47.3934 42.5246 47.3934Z" fill="white"/>
<path d="M43.2787 36.8361H41.7705V38.3443H43.2787V36.8361Z" fill="white"/>
<path d="M31.9672 30.8033V30.4036C31.9024 29.3167 30.9733 28.4852 29.8859 28.541H29.5239C28.4365 28.4853 27.5075 29.3167 27.4426 30.4036C27.4873 31.3443 28.2044 32.1155 29.1393 32.2285L30.0216 32.3718C30.2931 32.417 30.459 32.5452 30.459 32.7111C30.459 32.877 30.2177 33.0656 29.8859 33.0656H29.5239C29.1921 33.0656 28.9508 32.877 28.9508 32.7111V32.3115H27.4426V32.7111C27.5075 33.7981 28.4365 34.6296 29.5239 34.5738H29.8859C30.9733 34.6295 31.9024 33.7981 31.9672 32.7111C31.9225 31.7704 31.2055 30.9992 30.2705 30.8862L29.3882 30.743C29.1167 30.6977 28.9508 30.5695 28.9508 30.4036C28.9508 30.2377 29.1921 30.0492 29.5239 30.0492H29.8859C30.2177 30.0492 30.459 30.2377 30.459 30.4036V30.8033H31.9672Z" fill="white"/>
<path d="M30.459 33.8197H28.9508V35.3279H30.459V33.8197Z" fill="white"/>
<path d="M29.7049 25.5246C26.3731 25.5246 23.6721 28.2256 23.6721 31.5574C23.6721 34.8892 26.3731 37.5902 29.7049 37.5902C33.0367 37.5902 35.7377 34.8892 35.7377 31.5574C35.7377 28.2256 33.0367 25.5246 29.7049 25.5246ZM29.7049 36.082C27.206 36.082 25.1803 34.0563 25.1803 31.5574C25.1803 29.0585 27.206 27.0328 29.7049 27.0328C32.2038 27.0328 34.2295 29.0585 34.2295 31.5574C34.2295 34.0563 32.2038 36.082 29.7049 36.082Z" fill="white"/>
<path d="M30.459 27.7869H28.9508V29.2951H30.459V27.7869Z" fill="white"/>
<path d="M51.5738 26.2787V25.879C51.5089 24.7921 50.5799 23.9606 49.4925 24.0164H49.1305C48.0431 23.9607 47.114 24.7921 47.0492 25.879C47.0939 26.8198 47.8109 27.5909 48.7459 27.7039L49.6282 27.8472C49.8997 27.8925 50.0656 28.0207 50.0656 28.1866C50.0656 28.3525 49.8243 28.541 49.4925 28.541H49.1305C48.7987 28.541 48.5574 28.3525 48.5574 28.1866V27.7869H47.0492V28.1866C47.114 29.2735 48.0431 30.105 49.1305 30.0492H49.4925C50.5799 30.1049 51.5089 29.2735 51.5738 28.1866C51.5291 27.2458 50.8121 26.4747 49.8771 26.3616L48.9948 26.2184C48.7233 26.1731 48.5574 26.0449 48.5574 25.879C48.5574 25.7131 48.7987 25.5246 49.1305 25.5246H49.4925C49.8243 25.5246 50.0656 25.7131 50.0656 25.879V26.2787H51.5738Z" fill="white"/>
<path d="M50.0656 29.2951H48.5574V30.8033H50.0656V29.2951Z" fill="white"/>
<path d="M49.3115 21C45.9797 21 43.2787 23.701 43.2787 27.0328C43.2787 30.3646 45.9797 33.0656 49.3115 33.0656C52.6433 33.0656 55.3443 30.3646 55.3443 27.0328C55.3443 23.701 52.6433 21 49.3115 21ZM49.3115 31.5574C46.8126 31.5574 44.7869 29.5317 44.7869 27.0328C44.7869 24.5339 46.8126 22.5082 49.3115 22.5082C51.8104 22.5082 53.8361 24.5339 53.8361 27.0328C53.8361 29.5317 51.8104 31.5574 49.3115 31.5574Z" fill="white"/>
<path d="M50.0656 23.2623H48.5574V24.7705H50.0656V23.2623Z" fill="white"/>
<path d="M56.0983 36.8361H54.5901V42.1148H56.0983V36.8361Z" fill="white"/>
<path d="M56.0983 33.8197H54.5901V35.3279H56.0983V33.8197Z" fill="white"/>
<path d="M29.7049 42.8689H28.1967V48.1475H29.7049V42.8689Z" fill="white"/>
<path d="M29.7049 39.8525H28.1967V41.3607H29.7049V39.8525Z" fill="white"/>
<path d="M53.082 44.377H51.5738V48.1475H53.082V44.377Z" fill="white"/>
<path d="M40.2623 24.0164H38.7541V30.8033H40.2623V24.0164Z" fill="white"/>
<path d="M28.1967 21H26.6885V23.2623H28.1967V21Z" fill="white"/>
<path d="M60.4043 52.1367L57.3879 49.1203C57.1247 48.8563 56.708 48.8242 56.4075 49.0449L43.1957 58.5918L36.9066 55.6885H42.5246C42.941 55.6885 43.2787 55.3509 43.2787 54.9344V51.1639C43.2787 50.7475 42.941 50.4098 42.5246 50.4098H38.0754L30.5344 49.6557C30.4081 49.6444 30.281 49.6653 30.1649 49.7161L25.022 51.918H15.377V53.4262H25.1803C25.2824 53.4213 25.3825 53.3956 25.4744 53.3508L30.5797 51.1639L38 51.918H41.7705V54.1803H33.4754C33.1812 54.1816 32.9146 54.354 32.7927 54.6218C32.62 55.0008 32.7873 55.448 33.1662 55.6206L42.9695 60.1452C43.2162 60.2574 43.5041 60.2287 43.7236 60.0698L56.777 50.6436L58.7603 52.6269L43.7538 65.4918H39.6439L25.4443 60.2583C25.3597 60.2276 25.2703 60.2123 25.1803 60.2131H15.377V61.7213H25.0446L39.2443 66.9547C39.3288 66.9855 39.4183 67.0007 39.5082 67H44.0328C44.2164 66.9917 44.3908 66.9166 44.5229 66.7888L60.359 53.2151C60.5188 53.0788 60.6144 52.882 60.6229 52.6721C60.6241 52.4717 60.5455 52.2791 60.4043 52.1367Z" fill="white"/>
<path d="M109.445 56.6243L102.324 63.7444C102.16 63.9092 101.94 64 101.706 64C101.471 64 101.251 63.9092 101.087 63.7444L100.562 63.2202C100.221 62.8786 100.221 62.3234 100.562 61.9823L106.541 56.0033L100.556 50.0177C100.391 49.8529 100.3 49.6332 100.3 49.3989C100.3 49.1643 100.391 48.9446 100.556 48.7797L101.08 48.2556C101.245 48.0908 101.465 48 101.699 48C101.933 48 102.153 48.0908 102.318 48.2556L109.445 55.3822C109.61 55.5475 109.7 55.7683 109.7 56.0029C109.7 56.2385 109.61 56.4591 109.445 56.6243Z" fill="white"/>
</svg>
