<svg width="158" height="143" viewBox="0 0 158 143" fill="none" xmlns="http://www.w3.org/2000/svg">
<path d="M78.4336 27.8939C59.0758 25.4492 44.6155 19.1949 28.1301 33.4596C16.9905 43.0917 9.2694 59.4466 13.6087 73.9069C21.4562 100.069 63.9244 135.232 91.5086 113.385C104.983 102.713 109.567 88.1228 125.852 79.3789C142.138 70.6351 155.661 62.4658 153.477 40.92C152.08 27.1197 141.319 12.1745 126.239 12.3253C108.006 12.5046 100.187 30.6278 78.4336 27.8939Z" fill="#BDF4FB"/>
<path opacity="0.9" d="M78.4336 27.8939C59.0758 25.4492 44.6155 19.1949 28.1301 33.4596C16.9905 43.0917 9.2694 59.4466 13.6087 73.9069C21.4562 100.069 63.9244 135.232 91.5086 113.385C104.983 102.713 109.567 88.1228 125.852 79.3789C142.138 70.6351 155.661 62.4658 153.477 40.92C152.08 27.1197 141.319 12.1745 126.239 12.3253C108.006 12.5046 100.187 30.6278 78.4336 27.8939Z" fill="white"/>
<path d="M69.8706 30.8714C52.9526 32.5494 34.2145 24.1279 19.0614 35.2144C4.82816 45.6535 3.41076 66.3459 9.16327 81.1279C23.1951 117.155 70.3128 109.839 99.8255 98.7684C126.914 88.6097 166.12 55.978 149.052 22.6C142.553 9.88681 126.547 1.14552 112.235 3.33676C92.474 6.35318 90.2827 28.85 69.8706 30.8714Z" fill="#5EC7D6"/>
<path opacity="0.9" d="M69.8706 30.8714C52.9526 32.5494 34.2145 24.1279 19.0614 35.2144C4.82816 45.6535 3.41076 66.3459 9.16327 81.1279C23.1951 117.155 70.3128 109.839 99.8255 98.7684C126.914 88.6097 166.12 55.978 149.052 22.6C142.553 9.88681 126.547 1.14552 112.235 3.33676C92.474 6.35318 90.2827 28.85 69.8706 30.8714Z" fill="#C8F9FF"/>
<path d="M79 142.427C122.63 142.427 158 140.362 158 137.815C158 135.268 122.63 133.203 79 133.203C35.3695 133.203 0 135.268 0 137.815C0 140.362 35.3695 142.427 79 142.427Z" fill="#F5F5F5"/>
<path d="M77.6106 4.07447C77.2398 1.82536 78.7596 0 81.0087 0H64.5764C62.3273 0 60.8075 1.82129 61.1782 4.07447H77.6106Z" fill="#19AFC5"/>
<path opacity="0.3" d="M77.6106 4.07447C77.2398 1.82536 78.7596 0 81.0087 0H64.5764C62.3273 0 60.8075 1.82129 61.1782 4.07447H77.6106Z" fill="black"/>
<path d="M81.0085 0H64.5762C65.7133 0.0377804 66.8036 0.462005 67.6673 1.20271C68.531 1.94341 69.1164 2.95636 69.327 4.07448L72.9248 25.7996C73.1361 26.9174 73.7217 27.9299 74.5852 28.6705C75.4487 29.411 76.5387 29.8355 77.6756 29.8741H85.9631C88.2122 29.8741 89.732 28.0487 89.3612 25.7996L85.7594 4.07448C85.5487 2.95636 84.9633 1.94341 84.0997 1.20271C83.236 0.462005 82.1457 0.0377804 81.0085 0Z" fill="#19AFC5"/>
<path d="M81.0739 25.8118C81.4447 28.0609 79.9249 29.8863 77.6758 29.8863H94.1081C94.6196 29.9035 95.1282 29.8038 95.5953 29.5947C96.0623 29.3857 96.4755 29.0727 96.8032 28.6797C97.131 28.2867 97.3647 27.8241 97.4865 27.3271C97.6083 26.8301 97.6151 26.3118 97.5063 25.8118H81.0739Z" fill="#19AFC5"/>
<path opacity="0.3" d="M81.0739 25.8118C81.4447 28.0609 79.9249 29.8863 77.6758 29.8863H94.1081C94.6196 29.9035 95.1282 29.8038 95.5953 29.5947C96.0623 29.3857 96.4755 29.0727 96.8032 28.6797C97.131 28.2867 97.3647 27.8241 97.4865 27.3271C97.6083 26.8301 97.6151 26.3118 97.5063 25.8118H81.0739Z" fill="black"/>
<path d="M83.7183 5.96094H71.9879C71.9197 5.95847 71.8543 5.93295 71.8025 5.88855C71.7507 5.84414 71.7155 5.78348 71.7027 5.71647C71.6957 5.68644 71.6958 5.65521 71.7029 5.62522C71.7101 5.59523 71.7241 5.5673 71.7438 5.54362C71.7635 5.51994 71.7885 5.50115 71.8167 5.48873C71.8449 5.4763 71.8756 5.47058 71.9064 5.472H83.6368C83.705 5.47446 83.7703 5.49998 83.8221 5.54439C83.8739 5.58879 83.9091 5.64946 83.922 5.71647C83.929 5.7465 83.9289 5.77773 83.9217 5.80772C83.9146 5.8377 83.9006 5.86563 83.8809 5.88931C83.8611 5.91299 83.8362 5.93178 83.808 5.94421C83.7798 5.95663 83.7491 5.96236 83.7183 5.96094Z" fill="white"/>
<path d="M77.2194 7.65595H72.2689C72.2007 7.65348 72.1354 7.62796 72.0835 7.58356C72.0317 7.53915 71.9965 7.47849 71.9837 7.41148C71.9767 7.38145 71.9768 7.35022 71.9839 7.32023C71.9911 7.29024 72.0051 7.26231 72.0248 7.23863C72.0445 7.21495 72.0695 7.19616 72.0977 7.18374C72.1259 7.17131 72.1566 7.16558 72.1874 7.16701H77.1379C77.2061 7.16947 77.2714 7.19499 77.3232 7.2394C77.375 7.2838 77.4102 7.34447 77.4231 7.41148C77.4292 7.44142 77.4285 7.47235 77.421 7.50199C77.4136 7.53163 77.3996 7.5592 77.38 7.58268C77.3604 7.60616 77.3358 7.62494 77.308 7.63762C77.2802 7.6503 77.2499 7.65656 77.2194 7.65595Z" fill="white"/>
<path d="M81.7991 7.65594H78.3766C78.3089 7.6533 78.2441 7.62763 78.193 7.58317C78.1419 7.53872 78.1075 7.47814 78.0954 7.41147C78.0886 7.38178 78.0886 7.35092 78.0955 7.32125C78.1025 7.29158 78.1161 7.26389 78.1353 7.2403C78.1546 7.2167 78.179 7.19783 78.2067 7.18512C78.2344 7.17242 78.2646 7.16622 78.2951 7.167H81.7177C81.7854 7.16964 81.8501 7.19531 81.9012 7.23976C81.9524 7.28422 81.9868 7.34479 81.9988 7.41147C82.0056 7.44115 82.0056 7.47201 81.9987 7.50168C81.9918 7.53135 81.9782 7.55904 81.9589 7.58264C81.9396 7.60623 81.9152 7.6251 81.8875 7.63781C81.8598 7.65051 81.8296 7.65672 81.7991 7.65594Z" fill="white"/>
<path d="M84.2968 9.37128H72.5501C72.4823 9.36974 72.417 9.34507 72.3651 9.30134C72.3133 9.25762 72.2779 9.19747 72.2649 9.13088C72.258 9.10085 72.2581 9.06962 72.2652 9.03963C72.2723 9.00964 72.2863 8.98172 72.306 8.95804C72.3258 8.93436 72.3507 8.91557 72.3789 8.90314C72.4071 8.89072 72.4378 8.88499 72.4686 8.88641H84.1991C84.2672 8.88888 84.3326 8.9144 84.3844 8.95881C84.4362 9.00321 84.4714 9.06387 84.4843 9.13088C84.4902 9.15928 84.4899 9.18864 84.4833 9.2169C84.4768 9.24517 84.4641 9.27166 84.4463 9.29454C84.4285 9.31743 84.4058 9.33615 84.38 9.3494C84.3542 9.36265 84.3258 9.37012 84.2968 9.37128Z" fill="white"/>
<path d="M83.4043 11.05H72.8311C72.7629 11.0475 72.6976 11.022 72.6458 10.9776C72.5939 10.9332 72.5587 10.8725 72.5459 10.8055C72.5398 10.7756 72.5405 10.7446 72.5479 10.715C72.5554 10.6853 72.5694 10.6578 72.589 10.6343C72.6085 10.6108 72.6331 10.592 72.6609 10.5794C72.6887 10.5667 72.719 10.5604 72.7496 10.561H83.3432C83.4114 10.5635 83.4768 10.589 83.5286 10.6334C83.5804 10.6778 83.6156 10.7385 83.6284 10.8055C83.6352 10.8372 83.6342 10.8701 83.6257 10.9014C83.6171 10.9327 83.6012 10.9615 83.5793 10.9854C83.5574 11.0093 83.5301 11.0277 83.4997 11.0389C83.4692 11.0501 83.4365 11.0539 83.4043 11.05Z" fill="white"/>
<path d="M80.2222 12.745H73.1122C73.044 12.7425 72.9787 12.717 72.9269 12.6726C72.8751 12.6282 72.8399 12.5675 72.827 12.5005C72.8208 12.4707 72.8214 12.44 72.8289 12.4105C72.8363 12.381 72.8504 12.3537 72.8701 12.3305C72.8897 12.3073 72.9144 12.2889 72.9423 12.2767C72.9701 12.2645 73.0004 12.2588 73.0307 12.2601H80.1447C80.2122 12.2631 80.2767 12.2882 80.3283 12.3317C80.3799 12.3752 80.4156 12.4346 80.43 12.5005C80.4362 12.5308 80.4354 12.5621 80.4277 12.592C80.42 12.622 80.4056 12.6498 80.3856 12.6733C80.3656 12.6969 80.3405 12.7156 80.3121 12.728C80.2838 12.7404 80.2531 12.7462 80.2222 12.745Z" fill="white"/>
<path d="M85.1118 14.444H73.3936C73.3254 14.4415 73.2601 14.416 73.2083 14.3716C73.1565 14.3272 73.1212 14.2665 73.1084 14.1995C73.1023 14.1696 73.103 14.1387 73.1104 14.109C73.1179 14.0794 73.1319 14.0518 73.1515 14.0283C73.171 14.0048 73.1956 13.9861 73.2234 13.9734C73.2512 13.9607 73.2815 13.9544 73.3121 13.9551H85.0425C85.1107 13.9575 85.176 13.983 85.2278 14.0274C85.2796 14.0719 85.3149 14.1325 85.3277 14.1995C85.3351 14.2306 85.3349 14.263 85.3271 14.2941C85.3193 14.3251 85.3042 14.3537 85.2831 14.3777C85.2619 14.4017 85.2353 14.4202 85.2055 14.4317C85.1757 14.4433 85.1436 14.4475 85.1118 14.444Z" fill="white"/>
<path d="M85.405 16.139H73.6746C73.6064 16.1365 73.5411 16.111 73.4893 16.0666C73.4375 16.0222 73.4022 15.9615 73.3894 15.8945C73.3833 15.8646 73.384 15.8337 73.3914 15.804C73.3989 15.7744 73.4129 15.7468 73.4325 15.7233C73.452 15.6998 73.4766 15.6811 73.5044 15.6684C73.5322 15.6557 73.5625 15.6494 73.5931 15.6501H85.3276C85.3953 15.6527 85.4601 15.6784 85.5112 15.7228C85.5623 15.7673 85.5967 15.8279 85.6087 15.8945C85.6157 15.9246 85.6156 15.9558 85.6085 15.9858C85.6013 16.0158 85.5873 16.0437 85.5676 16.0674C85.5479 16.0911 85.5229 16.1098 85.4947 16.1223C85.4665 16.1347 85.4358 16.1404 85.405 16.139Z" fill="white"/>
<path d="M81.0699 17.834H73.9558C73.8884 17.831 73.8239 17.8058 73.7723 17.7623C73.7207 17.7188 73.685 17.6595 73.6706 17.5936C73.6645 17.5636 73.6652 17.5327 73.6727 17.5031C73.6801 17.4734 73.6942 17.4458 73.7137 17.4224C73.7333 17.3989 73.7579 17.3801 73.7857 17.3674C73.8135 17.3547 73.8438 17.3485 73.8744 17.3491H80.9884C81.0566 17.3516 81.1219 17.3771 81.1737 17.4215C81.2255 17.4659 81.2607 17.5266 81.2736 17.5936C81.2798 17.6233 81.2792 17.6541 81.2717 17.6836C81.2642 17.713 81.2501 17.7404 81.2305 17.7636C81.2108 17.7868 81.1862 17.8051 81.1583 17.8173C81.1305 17.8295 81.1002 17.8352 81.0699 17.834Z" fill="white"/>
<path d="M87.8043 22.4989L88.5383 22.9543L99.7986 4.80041L99.0645 4.3451L87.8043 22.4989Z" fill="#263238"/>
<path opacity="0.3" d="M87.8043 22.4989L88.5383 22.9543L99.7986 4.80041L99.0645 4.3451L87.8043 22.4989Z" fill="black"/>
<path d="M86.3392 21.5914L87.0732 22.0467L98.3335 3.89288L97.5994 3.43758L86.3392 21.5914Z" fill="#263238"/>
<path opacity="0.3" d="M86.3392 21.5914L87.0732 22.0467L98.3335 3.89288L97.5994 3.43758L86.3392 21.5914Z" fill="black"/>
<path d="M87.077 22.0435L87.811 22.4988L99.0713 4.34492L98.3372 3.88961L87.077 22.0435Z" fill="#263238"/>
<path d="M86.3218 23.3386L86.9818 23.7501L88.5424 22.9556L86.3421 21.5906L86.3218 23.3386Z" fill="#FF8B7B"/>
<path d="M86.3137 24.0924L86.9819 23.7501L86.3219 23.3386L86.3137 24.0924Z" fill="#263238"/>
<path d="M85.9265 24.2431H85.8979C85.3518 24.0182 84.8692 23.6628 84.4922 23.2082C84.2557 22.9546 83.9981 22.7215 83.7222 22.5115C83.6804 22.4767 83.6278 22.4576 83.5735 22.4576C83.5191 22.4576 83.4665 22.4767 83.4247 22.5115C83.3915 22.5476 83.3731 22.5948 83.3731 22.6439C83.3731 22.6929 83.3915 22.7402 83.4247 22.7763C83.5225 22.923 83.6325 23.0615 83.7425 23.1837C83.7868 23.2322 83.8143 23.2937 83.8209 23.359C83.8275 23.4243 83.8129 23.49 83.7792 23.5464C83.7438 23.5959 83.6933 23.6326 83.6353 23.651C83.5772 23.6694 83.5148 23.6684 83.4573 23.6482C83.3023 23.5977 83.15 23.5392 83.001 23.473C82.9878 23.4613 82.9706 23.455 82.9529 23.4556C82.9353 23.4561 82.9185 23.4633 82.906 23.4758C82.8935 23.4883 82.8863 23.5051 82.8857 23.5228C82.8852 23.5404 82.8915 23.5576 82.9032 23.5708L82.9236 23.6238C82.9477 23.6775 82.9574 23.7366 82.9517 23.7952C82.9459 23.8538 82.925 23.9099 82.891 23.9579C82.8561 24.0039 82.8102 24.0404 82.7575 24.0639C82.7048 24.0874 82.647 24.0972 82.5895 24.0924C80.7962 24.0077 78.9997 24.0145 77.2071 24.1127C77.1801 24.1127 77.1542 24.102 77.1351 24.0829C77.116 24.0638 77.1052 24.0379 77.1052 24.0109C77.1052 23.9838 77.116 23.9579 77.1351 23.9388C77.1542 23.9197 77.1801 23.909 77.2071 23.909C79.0065 23.8108 80.8097 23.804 82.6098 23.8886C82.6327 23.8925 82.6563 23.89 82.6778 23.8814C82.6994 23.8727 82.7182 23.8583 82.7321 23.8397C82.7442 23.8187 82.7506 23.7948 82.7506 23.7705C82.7506 23.7461 82.7442 23.7223 82.7321 23.7012L82.7117 23.6564C82.6832 23.6046 82.6723 23.5449 82.6806 23.4864C82.6889 23.4278 82.716 23.3736 82.7578 23.3317C82.7997 23.2899 82.8539 23.2628 82.9125 23.2545C82.971 23.2462 83.0307 23.2571 83.0825 23.2856C83.2223 23.3515 83.3666 23.4073 83.5144 23.4527C83.5272 23.4626 83.543 23.4679 83.5592 23.4679C83.5754 23.4679 83.5912 23.4626 83.604 23.4527C83.6142 23.4335 83.6178 23.4115 83.6141 23.3901C83.6104 23.3687 83.5997 23.3491 83.5836 23.3345C83.4655 23.196 83.3555 23.0493 83.2536 22.9026C83.1949 22.8262 83.1651 22.7315 83.1696 22.6353C83.1741 22.5391 83.2125 22.4476 83.2781 22.377C83.3534 22.3071 83.4524 22.2683 83.5551 22.2683C83.6579 22.2683 83.7568 22.3071 83.8322 22.377C84.1258 22.5913 84.3986 22.8328 84.6471 23.0982C84.9955 23.5061 85.4333 23.8282 85.9265 24.0394C85.9394 24.0435 85.9514 24.0502 85.9617 24.059C85.972 24.0679 85.9804 24.0787 85.9865 24.0908C85.9926 24.103 85.9962 24.1162 85.9971 24.1298C85.9979 24.1433 85.9961 24.1569 85.9917 24.1698C85.9878 24.1865 85.9799 24.202 85.9685 24.2148C85.9571 24.2276 85.9426 24.2374 85.9265 24.2431Z" fill="white"/>
<path d="M84.1785 39.172L86.9044 34.4578H81.4568L84.1785 39.172Z" fill="#19AFC5"/>
<path d="M114.766 25.3269C113.607 24.3019 112.099 23.7621 110.553 23.8194C109.563 21.8229 107.521 20.6576 105.362 21.0528C102.265 21.6191 101.32 25.3391 103.471 26.6959C104.183 27.1467 104.953 27.4964 105.761 27.7349V27.8327C104.496 28.289 103.389 29.1006 102.574 30.1703C101.759 31.2399 101.27 32.5221 101.165 33.8629C100.847 38.4752 105.802 41.1725 108.499 38.6056C108.872 38.2515 109.226 37.8775 109.559 37.4851C110.08 38.2186 110.642 38.9683 111.25 39.7506C117.989 36.6458 119.126 29.0877 114.766 25.3269Z" fill="#263238"/>
<path d="M101.218 43.2587C101.178 43.8291 101.129 44.3262 101.055 44.8477C100.982 45.3693 100.913 45.8745 100.827 46.3838C100.656 47.4065 100.42 48.421 100.179 49.4193C99.6835 51.45 98.9902 53.4274 98.1094 55.3232L98.0239 55.5025C97.9913 55.5717 97.9831 55.5962 97.922 55.7184C97.82 55.9199 97.6986 56.111 97.5594 56.2888C97.2968 56.6114 96.9813 56.887 96.6263 57.1037C96.0399 57.4532 95.3931 57.6896 94.7195 57.8005C93.6092 57.9714 92.4806 57.9865 91.3662 57.8453C89.3032 57.5924 87.2758 57.1044 85.3237 56.3907L85.7719 54.7609C86.7131 54.9035 87.6951 55.0339 88.6567 55.1195C89.6038 55.2226 90.5561 55.2715 91.5088 55.2662C92.3834 55.2821 93.2567 55.189 94.1083 54.9891C94.4165 54.9147 94.708 54.7834 94.968 54.602C95.0325 54.5552 95.0866 54.4955 95.1269 54.4268C95.1379 54.4063 95.1462 54.3843 95.1514 54.3616L95.2655 54.0683C95.4366 53.6323 95.6036 53.1922 95.7462 52.74C95.8889 52.2877 96.0396 51.8395 96.1822 51.3872C96.4389 50.4705 96.6915 49.5537 96.8993 48.6166C97.1071 47.6795 97.2782 46.7423 97.4371 45.7971C97.5961 44.8518 97.7224 43.8739 97.8161 42.9938L101.218 43.2587Z" fill="#FFB573"/>
<path d="M98.8998 39.1801C97.5226 39.5265 96.561 45.1859 96.561 45.1859L100.35 47.761C100.35 47.761 103.985 42.0567 102.925 40.5451C101.817 38.9683 100.904 38.6668 98.8998 39.1801Z" fill="#263238"/>
<path opacity="0.2" d="M99.0221 40.4432L97.9668 46.1434L100.094 47.5898L99.0221 40.4432Z" fill="black"/>
<path d="M84.354 54.8343L81.783 55.8203L84.6881 57.5723C84.6881 57.5723 86.542 56.5007 86.4931 55.1276L86.2078 54.9646C85.9279 54.8065 85.6163 54.7128 85.2956 54.6903C84.9749 54.6677 84.6533 54.7169 84.354 54.8343Z" fill="#FFB573"/>
<path opacity="0.1" d="M84.1624 54.9606L82.8912 55.4128C82.6427 55.4968 82.3992 55.5947 82.1619 55.7062C82.1619 55.7062 83.0012 56.0566 83.4209 55.8203C84.0574 55.8682 84.6974 55.8298 85.3236 55.7062L84.1624 54.9606Z" fill="black"/>
<path d="M80.1816 57.7312L82.3696 59.5525L84.6839 57.5886L81.7829 55.8366L80.1816 57.7312Z" fill="#FFB573"/>
<path d="M106.336 134.409H103.003L102.779 126.684H106.116L106.336 134.409Z" fill="#FFB573"/>
<path d="M102.889 134.022H106.633C106.698 134.02 106.762 134.042 106.811 134.084C106.861 134.127 106.893 134.185 106.902 134.25L107.31 137.216C107.318 137.291 107.31 137.366 107.287 137.438C107.263 137.509 107.225 137.575 107.175 137.631C107.125 137.687 107.063 137.731 106.994 137.762C106.925 137.792 106.851 137.807 106.776 137.807C105.472 137.786 104.841 137.709 103.19 137.709C102.18 137.709 99.2666 137.815 97.865 137.815C96.4634 137.815 96.39 136.43 96.9727 136.303C99.5885 135.741 101.455 134.967 102.314 134.225C102.476 134.092 102.679 134.02 102.889 134.022Z" fill="#263238"/>
<g opacity="0.2">
<path opacity="0.2" d="M102.779 126.684L102.893 130.668H106.23L106.116 126.684H102.779Z" fill="black"/>
</g>
<path d="M98.8999 39.1801C98.8999 39.1801 97.3109 39.7383 100.493 59.3121H114.041C113.813 53.7993 113.808 50.3972 116.445 39.0823C114.548 38.6898 112.625 38.4365 110.691 38.3245C108.643 38.1776 106.587 38.1776 104.539 38.3245C101.895 38.5649 98.8999 39.1801 98.8999 39.1801Z" fill="#263238"/>
<path d="M108.23 44.5462C107.111 44.5129 106.023 44.1686 105.089 43.552C105.078 43.5447 105.069 43.5352 105.061 43.5242C105.054 43.5132 105.049 43.5009 105.047 43.4879C105.045 43.475 105.045 43.4618 105.048 43.449C105.051 43.4362 105.057 43.4241 105.064 43.4135C105.072 43.4022 105.081 43.3924 105.093 43.3848C105.104 43.3772 105.116 43.372 105.13 43.3693C105.143 43.3666 105.157 43.3667 105.17 43.3694C105.183 43.372 105.196 43.3774 105.207 43.385C106.206 44.0399 107.383 44.37 108.577 44.3303C109.021 44.0491 112.093 41.9996 112.325 38.4508C112.326 38.4374 112.33 38.4243 112.336 38.4124C112.342 38.4004 112.35 38.3897 112.361 38.381C112.371 38.3723 112.383 38.3657 112.395 38.3616C112.408 38.3575 112.422 38.356 112.435 38.3571C112.448 38.3581 112.461 38.3618 112.473 38.3679C112.485 38.374 112.496 38.3824 112.505 38.3926C112.513 38.4028 112.52 38.4147 112.524 38.4274C112.528 38.4402 112.53 38.4537 112.529 38.4671C112.292 42.0974 109.269 44.1428 108.662 44.5136C108.647 44.5176 108.632 44.5176 108.617 44.5136C108.487 44.5421 108.356 44.5462 108.23 44.5462Z" fill="white"/>
<path d="M102.465 43.9187C102.448 43.9246 102.429 43.9246 102.412 43.9187C102.263 43.8033 102.142 43.6566 102.056 43.4891C101.97 43.3215 101.922 43.1372 101.915 42.949C101.724 41.7063 102.184 39.5346 103.137 38.41C103.147 38.4002 103.158 38.3923 103.171 38.387C103.183 38.3816 103.197 38.3789 103.211 38.3789C103.224 38.3789 103.238 38.3816 103.251 38.387C103.263 38.3923 103.275 38.4002 103.284 38.41C103.303 38.4291 103.313 38.4547 103.313 38.4814C103.313 38.508 103.303 38.5336 103.284 38.5527C102.38 39.6079 101.911 41.7307 102.094 42.9286C102.113 43.2385 102.248 43.5299 102.473 43.7435C103.037 43.6455 103.586 43.4714 104.103 43.2261C104.128 43.2162 104.156 43.2162 104.181 43.2261C104.206 43.2359 104.226 43.2548 104.237 43.279C104.243 43.2913 104.246 43.3046 104.246 43.318C104.246 43.3314 104.244 43.3448 104.239 43.3573C104.234 43.3698 104.227 43.3812 104.217 43.3908C104.208 43.4005 104.197 43.4082 104.185 43.4135C103.638 43.6626 103.059 43.8327 102.465 43.9187Z" fill="white"/>
<path d="M110.08 31.3979C109.693 33.374 109.306 37.0044 110.691 38.3245C110.691 38.3245 110.149 40.3332 106.47 40.3332C102.424 40.3332 104.539 38.3245 104.539 38.3245C106.743 37.7948 106.686 36.1569 106.303 34.6208L110.08 31.3979Z" fill="#FFB573"/>
<path d="M110.687 38.3245C108.639 38.1776 106.583 38.1776 104.535 38.3245L104.127 38.3652C103.634 39.2942 103.512 40.7244 104.69 42.8472C104.69 42.8472 110.084 40.6714 111.49 38.3978C111.229 38.3571 110.96 38.3367 110.687 38.3245Z" fill="#FFB573"/>
<path opacity="0.2" d="M108.54 32.7139L106.299 34.633C106.396 34.9904 106.46 35.3559 106.49 35.725C107.334 35.6027 108.491 34.6778 108.581 33.7937C108.634 33.4344 108.62 33.0682 108.54 32.7139Z" fill="black"/>
<path d="M112.215 27.9672C111.461 31.1901 111.209 32.5713 109.278 33.9607C106.377 36.055 102.583 34.4252 102.351 31.0393C102.147 27.9957 103.418 23.2326 106.833 22.4829C107.584 22.3136 108.365 22.3389 109.104 22.5565C109.842 22.774 110.513 23.1765 111.052 23.7258C111.591 24.2752 111.981 24.9531 112.184 25.6954C112.388 26.4376 112.399 27.2196 112.215 27.9672Z" fill="#FFB573"/>
<path d="M100.493 59.3121C100.493 59.3121 97.8609 85.0098 98.0809 95.1675C98.3091 105.761 102.184 129.878 102.184 129.878H106.707C106.707 129.878 105.994 106.364 106.393 95.9742C106.829 84.6431 110.427 59.304 110.427 59.304L100.493 59.3121Z" fill="#19AFC5"/>
<path opacity="0.3" d="M100.493 59.3121C100.493 59.3121 97.8609 85.0098 98.0809 95.1675C98.3091 105.761 102.184 129.878 102.184 129.878H106.707C106.707 129.878 105.994 106.364 106.393 95.9742C106.829 84.6431 110.427 59.304 110.427 59.304L100.493 59.3121Z" fill="white"/>
<path d="M107.086 130.057H101.793L101.406 128.37L107.334 128.163L107.086 130.057Z" fill="#263238"/>
<path opacity="0.2" d="M106.336 65.705C103.011 72.3993 105.668 84.6105 106.845 89.1536C107.448 82.3329 108.475 73.9884 109.261 67.8644C108.744 64.4011 107.872 62.6206 106.336 65.705Z" fill="black"/>
<path d="M121.929 134.409H118.592L117.369 126.684H120.702L121.929 134.409Z" fill="#FFB573"/>
<path d="M118.429 134.022H122.19C122.257 134.023 122.321 134.046 122.374 134.087C122.427 134.128 122.465 134.185 122.483 134.25L123.298 137.216C123.318 137.286 123.321 137.36 123.307 137.432C123.293 137.503 123.262 137.571 123.217 137.628C123.173 137.686 123.115 137.732 123.049 137.763C122.983 137.794 122.91 137.809 122.838 137.807C121.53 137.786 120.89 137.709 119.24 137.709C118.225 137.709 115.328 137.815 113.943 137.815C112.558 137.815 112.289 136.43 112.855 136.303C115.398 135.741 117.141 134.967 117.928 134.225C118.065 134.099 118.243 134.027 118.429 134.022Z" fill="#263238"/>
<g opacity="0.2">
<path opacity="0.2" d="M117.369 126.684L118.001 130.668H121.338L120.706 126.684H117.369Z" fill="black"/>
</g>
<path d="M104.262 59.3121C104.262 59.3121 107.061 85.0098 108.601 95.1675C110.202 105.761 117.21 129.878 117.21 129.878H121.7C121.7 129.878 117.936 106.364 116.986 95.9742C115.951 84.6431 114.163 59.304 114.163 59.304L104.262 59.3121Z" fill="#19AFC5"/>
<path opacity="0.3" d="M104.262 59.3121C104.262 59.3121 107.061 85.0098 108.601 95.1675C110.202 105.761 117.21 129.878 117.21 129.878H121.7C121.7 129.878 117.936 106.364 116.986 95.9742C115.951 84.6431 114.163 59.304 114.163 59.304L104.262 59.3121Z" fill="white"/>
<path d="M122.112 130.057H116.819L116.212 128.37L122.112 128.163V130.057Z" fill="#263238"/>
<path d="M117.251 134.604C116.958 134.628 116.665 134.556 116.416 134.401C116.357 134.355 116.309 134.296 116.276 134.229C116.242 134.162 116.225 134.088 116.224 134.014C116.22 133.972 116.227 133.931 116.246 133.894C116.265 133.857 116.294 133.826 116.33 133.806C116.709 133.582 118.127 134.258 118.286 134.34C118.302 134.346 118.316 134.357 118.325 134.372C118.335 134.387 118.34 134.404 118.339 134.421C118.339 134.436 118.334 134.451 118.325 134.463C118.315 134.475 118.301 134.483 118.286 134.486C117.946 134.559 117.599 134.598 117.251 134.604ZM116.567 133.916C116.517 133.912 116.468 133.922 116.424 133.944C116.409 133.953 116.397 133.965 116.39 133.981C116.383 133.996 116.38 134.013 116.383 134.03C116.384 134.078 116.395 134.126 116.416 134.17C116.437 134.213 116.468 134.252 116.506 134.282C116.734 134.466 117.284 134.494 118.009 134.372C117.556 134.144 117.069 133.99 116.567 133.916Z" fill="#19AFC5"/>
<path d="M118.27 134.486H118.237C117.83 134.303 116.938 133.586 116.95 133.207C116.95 133.117 117.003 133.007 117.219 132.983C117.382 132.969 117.544 133.019 117.671 133.121C118.012 133.476 118.244 133.922 118.339 134.405C118.342 134.418 118.341 134.432 118.337 134.445C118.333 134.458 118.325 134.469 118.315 134.478C118.301 134.485 118.285 134.488 118.27 134.486ZM117.3 133.133H117.255C117.113 133.133 117.109 133.207 117.109 133.223C117.109 133.451 117.708 134.018 118.144 134.262C118.06 133.873 117.866 133.517 117.585 133.235C117.505 133.17 117.404 133.134 117.3 133.133Z" fill="#19AFC5"/>
<path d="M106.874 27.9468C106.829 28.2116 106.65 28.4031 106.466 28.3543C106.283 28.3054 106.185 28.0853 106.234 27.8205C106.283 27.5557 106.454 27.3642 106.641 27.3927C106.829 27.4212 106.918 27.682 106.874 27.9468Z" fill="#263238"/>
<path d="M103.875 27.4375C103.83 27.7023 103.651 27.8938 103.467 27.8449C103.284 27.796 103.19 27.5801 103.235 27.3112C103.28 27.0423 103.455 26.8548 103.642 26.9037C103.83 26.9526 103.919 27.1726 103.875 27.4375Z" fill="#263238"/>
<path d="M103.716 26.9322L103.109 26.6389C103.109 26.6389 103.353 27.193 103.716 26.9322Z" fill="#263238"/>
<path d="M104.718 28.0731C104.382 28.6371 103.971 29.1525 103.496 29.6051C103.615 29.724 103.759 29.8158 103.917 29.8742C104.076 29.9325 104.244 29.9561 104.413 29.9433L104.718 28.0731Z" fill="#ED893E"/>
<path d="M105.668 31.2267C105.531 31.2268 105.395 31.2146 105.26 31.1901C105.25 31.1886 105.24 31.1851 105.231 31.1797C105.222 31.1744 105.215 31.1673 105.209 31.159C105.203 31.1506 105.198 31.1412 105.196 31.1311C105.194 31.121 105.193 31.1106 105.195 31.1004C105.199 31.0795 105.211 31.0609 105.228 31.0487C105.246 31.0365 105.268 31.0317 105.289 31.0352C105.617 31.0982 105.955 31.0831 106.277 30.9911C106.598 30.8991 106.893 30.7327 107.138 30.5056C107.146 30.4977 107.155 30.4913 107.164 30.487C107.174 30.4827 107.185 30.4805 107.196 30.4805C107.206 30.4805 107.217 30.4827 107.227 30.487C107.236 30.4913 107.245 30.4977 107.253 30.5056C107.26 30.5128 107.266 30.5213 107.27 30.5308C107.273 30.5402 107.275 30.5503 107.275 30.5606C107.275 30.5708 107.273 30.5809 107.27 30.5904C107.266 30.5998 107.26 30.6084 107.253 30.6156C106.826 31.0209 106.256 31.2407 105.668 31.2267Z" fill="#263238"/>
<path d="M113.788 22.9474C113.405 22.679 112.971 22.4931 112.513 22.4014C112.142 19.2233 109.595 17.2024 106.756 17.8421C103.537 18.5674 102.416 22.5603 104.58 23.9212C105.852 24.6988 107.29 25.1664 108.777 25.2862C108.834 27.9224 110.476 30.1755 111.629 30.2978C114.921 28.9858 115.772 24.345 113.788 22.9474Z" fill="#263238"/>
<path d="M112.59 31.1045C112.265 31.6562 111.737 32.0585 111.119 32.225C110.304 32.4328 109.897 31.6953 110.149 30.9293C110.365 30.2407 111.058 29.2995 111.877 29.4258C112.055 29.4583 112.222 29.5345 112.363 29.6475C112.504 29.7604 112.615 29.9067 112.686 30.0731C112.756 30.2395 112.785 30.4209 112.768 30.6009C112.751 30.7809 112.69 30.954 112.59 31.1045Z" fill="#FFB573"/>
<path d="M108.181 27.5394C108.148 27.5393 108.115 27.5286 108.088 27.5088C108.061 27.4891 108.041 27.4613 108.031 27.4294C107.815 26.7326 106.922 26.4311 106.914 26.4311C106.874 26.418 106.841 26.3897 106.822 26.3523C106.803 26.3149 106.799 26.2714 106.812 26.2315C106.818 26.2114 106.828 26.1927 106.842 26.1766C106.855 26.1605 106.872 26.1473 106.89 26.1378C106.909 26.1283 106.929 26.1226 106.95 26.1212C106.971 26.1198 106.992 26.1227 107.012 26.1296C107.053 26.1296 108.071 26.4841 108.332 27.3519C108.345 27.3919 108.341 27.4354 108.322 27.4728C108.303 27.5102 108.27 27.5385 108.23 27.5516L108.181 27.5394Z" fill="#263238"/>
<path d="M103.211 25.8973C103.183 25.8973 103.156 25.8902 103.131 25.8766C103.107 25.8631 103.087 25.8435 103.072 25.8199C103.052 25.7832 103.047 25.7398 103.058 25.6993C103.069 25.6588 103.097 25.6245 103.133 25.604C103.348 25.4742 103.59 25.3976 103.84 25.3806C104.091 25.3636 104.341 25.4066 104.572 25.5062C104.603 25.5279 104.626 25.5605 104.636 25.598C104.646 25.6354 104.641 25.675 104.624 25.7095C104.606 25.744 104.577 25.7709 104.541 25.7852C104.505 25.7995 104.465 25.8003 104.429 25.7873C104.245 25.712 104.046 25.6809 103.848 25.6965C103.65 25.7121 103.458 25.7739 103.288 25.877C103.265 25.8912 103.238 25.8983 103.211 25.8973Z" fill="#263238"/>
<path d="M118.001 42.9653C118.409 44.8844 118.677 46.7709 118.906 48.6981C119.147 50.6328 119.283 52.5792 119.313 54.5287C119.313 54.6265 119.313 54.8302 119.313 55.0094C119.313 55.1887 119.285 55.3354 119.264 55.4862C119.215 55.7836 119.162 56.0607 119.093 56.3011C118.963 56.8226 118.808 57.3075 118.645 57.7842C118.319 58.7335 117.932 59.634 117.541 60.5222C116.744 62.2838 115.859 64.0041 114.888 65.6764L113.356 64.9634L114.265 62.2824C114.57 61.3942 114.864 60.4978 115.137 59.6055C115.41 58.7131 115.675 57.829 115.903 56.957C116.013 56.5211 116.106 56.0892 116.172 55.6817C116.204 55.478 116.229 55.2743 116.245 55.1113C116.245 55.0257 116.245 54.9483 116.245 54.8791L116.225 54.6468C116.151 53.7341 116.045 52.8174 115.935 51.8965L115.552 49.1259C115.271 47.2842 114.957 45.4181 114.644 43.5968L118.001 42.9653Z" fill="#FFB573"/>
<path d="M116.445 39.0823C117.801 39.4898 119.431 44.1673 119.431 44.1673L114.163 47.9321C114.163 47.9321 112.244 44.0328 112.814 42.2767C113.409 40.4514 114.892 38.6097 116.445 39.0823Z" fill="#263238"/>
<path d="M101.634 134.604C101.347 134.633 101.059 134.561 100.819 134.401C100.765 134.353 100.723 134.293 100.698 134.225C100.673 134.158 100.666 134.085 100.676 134.014C100.678 133.971 100.691 133.929 100.714 133.892C100.737 133.856 100.769 133.826 100.807 133.806C101.214 133.582 102.546 134.258 102.697 134.34C102.712 134.347 102.723 134.359 102.731 134.374C102.738 134.388 102.741 134.405 102.738 134.421C102.736 134.437 102.729 134.452 102.718 134.463C102.707 134.475 102.692 134.483 102.677 134.486C102.333 134.558 101.984 134.597 101.634 134.604ZM101.039 133.916C100.988 133.913 100.938 133.923 100.892 133.944C100.876 133.952 100.863 133.965 100.854 133.98C100.844 133.995 100.839 134.012 100.839 134.03C100.833 134.076 100.838 134.123 100.853 134.167C100.869 134.211 100.895 134.251 100.929 134.282C101.132 134.466 101.683 134.494 102.42 134.372C101.989 134.142 101.522 133.987 101.039 133.916Z" fill="#19AFC5"/>
<path d="M102.669 134.486H102.632C102.225 134.303 101.446 133.586 101.512 133.207C101.512 133.117 101.589 133.007 101.805 132.983C101.884 132.975 101.964 132.983 102.039 133.007C102.115 133.031 102.185 133.07 102.245 133.121C102.653 133.472 102.742 134.368 102.742 134.405C102.744 134.419 102.743 134.433 102.737 134.446C102.731 134.459 102.722 134.47 102.71 134.478C102.697 134.484 102.683 134.487 102.669 134.486ZM101.874 133.133H101.817C101.675 133.133 101.666 133.207 101.662 133.223C101.626 133.451 102.16 134.018 102.563 134.262C102.537 133.886 102.394 133.527 102.155 133.235C102.078 133.167 101.978 133.131 101.874 133.133Z" fill="#19AFC5"/>
<path d="M106.706 27.4416L106.099 27.1482C106.099 27.1482 106.352 27.7064 106.706 27.4416Z" fill="#263238"/>
<path d="M114.245 58.5176L114.591 59.7399C114.64 59.8377 114.526 59.9314 114.371 59.9314H100.424C100.302 59.9314 100.204 59.8703 100.196 59.797L100.073 58.5746C100.073 58.4891 100.171 58.4198 100.302 58.4198H114.041C114.08 58.4189 114.119 58.4272 114.154 58.4442C114.19 58.4612 114.221 58.4864 114.245 58.5176Z" fill="#19AFC5"/>
<path d="M112.411 60.0496H112.777C112.851 60.0496 112.904 60.0129 112.9 59.9681L112.729 58.3913C112.729 58.3465 112.659 58.3057 112.586 58.3057H112.219C112.146 58.3057 112.089 58.3465 112.093 58.3913L112.268 59.9681C112.264 60.0129 112.329 60.0496 112.411 60.0496Z" fill="#19AFC5"/>
<g opacity="0.3">
<path opacity="0.3" d="M112.411 60.0496H112.777C112.851 60.0496 112.904 60.0129 112.9 59.9681L112.729 58.3913C112.729 58.3465 112.659 58.3057 112.586 58.3057H112.219C112.146 58.3057 112.089 58.3465 112.093 58.3913L112.268 59.9681C112.264 60.0129 112.329 60.0496 112.411 60.0496Z" fill="white"/>
</g>
<path d="M101.459 60.0496H101.825C101.899 60.0496 101.956 60.0129 101.952 59.9681L101.776 58.3913C101.776 58.3465 101.707 58.3057 101.634 58.3057H101.267C101.194 58.3057 101.137 58.3465 101.145 58.3913L101.316 59.9681C101.32 60.0129 101.385 60.0496 101.459 60.0496Z" fill="#19AFC5"/>
<path opacity="0.3" d="M101.459 60.0496H101.825C101.899 60.0496 101.956 60.0129 101.952 59.9681L101.776 58.3913C101.776 58.3465 101.707 58.3057 101.634 58.3057H101.267C101.194 58.3057 101.137 58.3465 101.145 58.3913L101.316 59.9681C101.32 60.0129 101.385 60.0496 101.459 60.0496Z" fill="white"/>
<path d="M106.931 60.0496H107.297C107.371 60.0496 107.428 60.0129 107.42 59.9681L107.249 58.3913C107.249 58.3465 107.179 58.3057 107.106 58.3057H106.739C106.666 58.3057 106.609 58.3465 106.617 58.3913L106.788 59.9681C106.792 60.0129 106.857 60.0496 106.931 60.0496Z" fill="#19AFC5"/>
<path opacity="0.3" d="M106.931 60.0496H107.297C107.371 60.0496 107.428 60.0129 107.42 59.9681L107.249 58.3913C107.249 58.3465 107.179 58.3057 107.106 58.3057H106.739C106.666 58.3057 106.609 58.3465 106.617 58.3913L106.788 59.9681C106.792 60.0129 106.857 60.0496 106.931 60.0496Z" fill="white"/>
<path d="M113.417 64.6619L110.83 67.1718L114.203 67.5099C114.203 67.5099 115.426 65.7457 114.786 64.5152L113.417 64.6619Z" fill="#FFB573"/>
<path d="M110.447 69.9506L113.291 70.0809L114.203 67.51L110.83 67.1718L110.447 69.9506Z" fill="#FFB573"/>
<path d="M44.4894 134.91C44.8107 134.947 45.1347 134.868 45.4021 134.686C45.4392 134.644 45.463 134.593 45.4702 134.537C45.4775 134.482 45.4679 134.426 45.4428 134.376C45.4244 134.335 45.3968 134.299 45.3622 134.27C45.3276 134.241 45.2869 134.22 45.2432 134.209C44.7624 134.075 43.6134 134.67 43.5808 134.698C43.5669 134.704 43.5552 134.715 43.5472 134.728C43.5393 134.741 43.5353 134.756 43.536 134.771C43.5366 134.785 43.5417 134.798 43.5506 134.808C43.5594 134.819 43.5715 134.826 43.5848 134.828C43.8834 134.882 44.1861 134.909 44.4894 134.91ZM45.0516 134.331C45.0962 134.325 45.1415 134.325 45.1861 134.331C45.2128 134.337 45.2378 134.348 45.2591 134.365C45.2803 134.382 45.2972 134.404 45.3083 134.429C45.345 134.519 45.3083 134.564 45.3083 134.588C45.1413 134.78 44.3834 134.784 43.8375 134.706C44.2171 134.511 44.6281 134.384 45.0516 134.331Z" fill="#19AFC5"/>
<path d="M43.5972 134.828H43.6298C44.0128 134.665 44.8236 134.013 44.8196 133.679C44.8196 133.598 44.7748 133.5 44.5833 133.48C44.4371 133.47 44.2923 133.513 44.1758 133.602C43.8619 133.92 43.6431 134.319 43.5443 134.755C43.5402 134.767 43.5399 134.779 43.5436 134.791C43.5473 134.803 43.5547 134.813 43.5646 134.82C43.5744 134.826 43.5858 134.829 43.5972 134.828ZM44.5058 133.606H44.5507C44.6729 133.606 44.677 133.667 44.677 133.683C44.677 133.887 44.1188 134.397 43.7154 134.617C43.8057 134.267 43.9888 133.949 44.2451 133.696C44.3213 133.642 44.4125 133.613 44.5058 133.614V133.606Z" fill="#19AFC5"/>
<path d="M40.3171 134.759H43.3119L44.6279 127.824H41.6332L40.3171 134.759Z" fill="#B55B52"/>
<path d="M43.3405 134.413H40.0809C40.0186 134.415 39.9584 134.436 39.9077 134.472C39.857 134.508 39.818 134.558 39.7957 134.617L38.8138 137.277C38.7863 137.335 38.7743 137.399 38.7787 137.462C38.7832 137.526 38.8041 137.588 38.8394 137.641C38.8746 137.694 38.9231 137.738 38.98 137.767C39.0369 137.796 39.1003 137.81 39.1642 137.807C40.3498 137.807 42.0611 137.721 43.5442 137.721C45.2759 137.721 45.117 137.815 47.1501 137.815C48.3725 137.815 48.9022 136.572 48.4051 136.458C46.1397 135.949 45.8748 135.892 44.0372 134.645C43.8343 134.498 43.5911 134.417 43.3405 134.413Z" fill="#263238"/>
<path opacity="0.2" d="M44.6278 127.828L43.9474 131.402H40.9526L41.6331 127.828H44.6278Z" fill="black"/>
<path d="M44.852 60.0781L46.8118 62.1357L43.65 63.2399C43.65 63.2399 42.501 61.5612 43.3851 60.4122L44.852 60.0781Z" fill="#B55B52"/>
<path d="M47.3984 65.0123L44.2692 65.4687L43.6499 63.2399L46.8117 62.1357L47.3984 65.0123Z" fill="#B55B52"/>
<path d="M33.1053 77.1542L48.3764 77.8224C48.7352 77.828 49.085 77.7093 49.3664 77.4866C49.6478 77.2638 49.8436 76.9507 49.9206 76.6001L51.746 67.2696C51.7839 67.1115 51.7857 66.9469 51.7514 66.788C51.7171 66.6291 51.6475 66.48 51.5477 66.3516C51.4479 66.2233 51.3205 66.119 51.175 66.0466C51.0295 65.9741 50.8695 65.9354 50.707 65.9331L35.4359 65.2608C35.0777 65.2562 34.7289 65.3753 34.4483 65.598C34.1677 65.8207 33.9726 66.1333 33.8957 66.4832L32.0663 75.8137C32.0276 75.9721 32.0252 76.1371 32.0592 76.2965C32.0932 76.4559 32.1627 76.6056 32.2626 76.7345C32.3624 76.8633 32.4901 76.9679 32.636 77.0406C32.7819 77.1133 32.9423 77.1521 33.1053 77.1542Z" fill="#263238"/>
<path d="M34.1523 80.0227L53.0171 80.8376C53.445 80.8539 53.8628 80.7053 54.1843 80.4225C54.5058 80.1397 54.7064 79.7442 54.7447 79.3178L55.743 67.7381C55.7631 67.5324 55.7409 67.3247 55.6776 67.1278C55.6143 66.931 55.5113 66.7493 55.375 66.5938C55.2386 66.4384 55.0718 66.3126 54.885 66.2242C54.6981 66.1358 54.495 66.0866 54.2884 66.0798L35.4276 65.2649C34.9998 65.2505 34.5826 65.3996 34.2609 65.682C33.9392 65.9643 33.7372 66.3587 33.696 66.7847L32.6977 78.3644C32.6782 78.57 32.7008 78.7775 32.7644 78.9741C32.8279 79.1706 32.9309 79.3521 33.0672 79.5074C33.2034 79.6627 33.3699 79.7885 33.5565 79.8771C33.7431 79.9657 33.9459 80.0153 34.1523 80.0227Z" fill="#19AFC5"/>
<path opacity="0.2" d="M34.1523 80.0227L53.0171 80.8376C53.445 80.8539 53.8628 80.7053 54.1843 80.4225C54.5058 80.1397 54.7064 79.7442 54.7447 79.3178L55.743 67.7381C55.7631 67.5324 55.7409 67.3247 55.6776 67.1278C55.6143 66.931 55.5113 66.7493 55.375 66.5938C55.2386 66.4384 55.0718 66.3126 54.885 66.2242C54.6981 66.1358 54.495 66.0866 54.2884 66.0798L35.4276 65.2649C34.9998 65.2505 34.5826 65.3996 34.2609 65.682C33.9392 65.9643 33.7372 66.3587 33.696 66.7847L32.6977 78.3644C32.6782 78.57 32.7008 78.7775 32.7644 78.9741C32.8279 79.1706 32.9309 79.3521 33.0672 79.5074C33.2034 79.6627 33.3699 79.7885 33.5565 79.8771C33.7431 79.9657 33.9459 80.0153 34.1523 80.0227Z" fill="black"/>
<path d="M47.9935 69.1479H47.9446L42.4686 68.9075C42.3259 68.9026 42.1857 68.8685 42.0567 68.8075C41.9276 68.7464 41.8124 68.6596 41.7182 68.5523C41.6239 68.4451 41.5526 68.3197 41.5086 68.1839C41.4645 68.0481 41.4487 67.9047 41.4622 67.7626L41.6781 65.2649C41.7313 64.7543 41.9753 64.2826 42.3614 63.9442C42.7474 63.6057 43.247 63.4255 43.7602 63.4396L47.4272 63.5985C47.6922 63.609 47.9523 63.6733 48.1916 63.7875C48.431 63.9016 48.6446 64.0633 48.8196 64.2626C48.9945 64.4619 49.1271 64.6948 49.2092 64.9469C49.2913 65.1991 49.3213 65.4653 49.2974 65.7294L49.0896 68.1497C49.0624 68.422 48.9354 68.6747 48.733 68.859C48.5307 69.0433 48.2673 69.1462 47.9935 69.1479ZM42.6967 67.6892L47.8754 67.9174L48.075 65.6194C48.0863 65.5188 48.0767 65.417 48.0467 65.3204C48.0168 65.2237 47.9671 65.1343 47.9009 65.0577C47.8347 64.9812 47.7533 64.9192 47.662 64.8756C47.5707 64.832 47.4713 64.8078 47.3701 64.8045L43.7031 64.6415C43.5035 64.64 43.3103 64.7117 43.1601 64.8431C43.0099 64.9746 42.9132 65.1565 42.8882 65.3546L42.6967 67.6892Z" fill="#19AFC5"/>
<path d="M55.0341 80.9394L36.1734 80.1245C35.7424 80.0994 35.3363 79.9141 35.0348 79.6051C34.7333 79.296 34.5581 78.8855 34.5436 78.454L34.291 66.8214C34.2827 66.6161 34.3175 66.4113 34.3931 66.2202C34.4688 66.0292 34.5836 65.8561 34.7303 65.7121C34.8769 65.5682 35.0521 65.4565 35.2445 65.3844C35.4369 65.3123 35.6423 65.2813 35.8474 65.2935L54.7123 66.1084C55.1436 66.1326 55.5502 66.3176 55.8519 66.6268C56.1536 66.936 56.3285 67.3471 56.3421 67.7789L56.5906 79.4115C56.5983 79.6167 56.5631 79.8212 56.4872 80.0119C56.4113 80.2027 56.2964 80.3755 56.1499 80.5193C56.0034 80.6632 55.8285 80.7748 55.6364 80.8472C55.4443 80.9195 55.2391 80.9509 55.0341 80.9394Z" fill="#19AFC5"/>
<path d="M49.448 37.2896C49.2484 37.697 49.0121 38.1615 48.8002 38.6057C48.5883 39.0498 48.3928 39.5224 48.1687 39.9828C47.7612 40.9077 47.3538 41.8367 47.0034 42.7698C46.653 43.7028 46.327 44.644 46.0377 45.5771C45.9033 46.0456 45.7647 46.5101 45.6629 46.9705C45.6017 47.2028 45.5488 47.435 45.508 47.6591L45.4428 48.0014C45.4184 48.1196 45.3939 48.2377 45.3858 48.3192C45.3858 48.4985 45.3369 48.6615 45.3287 48.9019C45.3206 49.1422 45.3002 49.3378 45.3002 49.5864C45.3002 50.0631 45.3002 50.5642 45.3002 51.0654C45.3206 52.0799 45.3817 53.1026 45.4428 54.1539C45.561 56.2359 45.7362 58.3506 45.8992 60.4367L42.167 61.0397C41.6617 58.9169 41.2624 56.8145 40.9039 54.6591C40.7327 53.5834 40.5861 52.4996 40.4638 51.3995C40.4068 50.8372 40.3497 50.279 40.3212 49.6882C40.2968 49.4071 40.2927 49.0893 40.2886 48.7796C40.2846 48.47 40.2886 48.1196 40.3253 47.7691C40.3334 47.6095 40.3498 47.4504 40.3742 47.2924L40.4312 46.8442C40.4638 46.5427 40.5086 46.2494 40.5616 45.9642C40.6594 45.3774 40.7816 44.8111 40.9039 44.2447C41.1687 43.1242 41.4702 42.0201 41.8288 40.9525C42.1873 39.885 42.5663 38.8257 42.99 37.7908C43.2019 37.2733 43.3975 36.7599 43.6501 36.2465C43.9027 35.7331 44.1023 35.2442 44.3835 34.6819L49.448 37.2896Z" fill="#19AFC5"/>
<path d="M57.6133 58.6194C57.6133 58.6194 54.7326 81.0005 53.0662 90.1274C51.3304 99.6209 45.182 130.709 45.182 130.709H40.093C40.093 130.709 42.6762 100.175 43.8212 90.8526C45.072 80.6664 47.0807 58.6194 47.0807 58.6194H57.6133Z" fill="#263238"/>
<path d="M46.437 128.688C46.4614 128.688 45.8421 130.795 45.8421 130.795H39.6733L39.7834 128.916L46.437 128.688Z" fill="#19AFC5"/>
<path d="M60.0662 21.4521C60.0662 21.7047 60.2006 21.9125 60.3677 21.9125C60.5347 21.9125 60.6651 21.7047 60.6651 21.4521C60.6651 21.1995 60.5307 20.9958 60.3677 20.9958C60.2047 20.9958 60.0662 21.1873 60.0662 21.4521Z" fill="#263238"/>
<path d="M60.1763 21.9125C60.4823 22.6877 60.8936 23.4171 61.3986 24.0801C61.224 24.2054 61.024 24.2907 60.8128 24.3301C60.6016 24.3696 60.3843 24.3621 60.1763 24.3083V21.9125Z" fill="#A02724"/>
<path d="M59.1698 20.0464C59.2 20.0466 59.2297 20.0381 59.2553 20.022C59.4035 19.9071 59.5769 19.8295 59.7612 19.7954C59.9455 19.7614 60.1353 19.772 60.3147 19.8264C60.3515 19.8398 60.392 19.8383 60.4278 19.8224C60.4635 19.8064 60.4916 19.7772 60.5062 19.7408C60.5134 19.7226 60.5169 19.7032 60.5164 19.6837C60.516 19.6642 60.5117 19.6449 60.5037 19.6271C60.4957 19.6092 60.4843 19.5932 60.47 19.5798C60.4557 19.5665 60.439 19.5561 60.4206 19.5493C60.1953 19.4767 59.9558 19.4595 59.7224 19.4992C59.4891 19.5389 59.2687 19.6344 59.0801 19.7775C59.0487 19.8011 59.0277 19.836 59.0216 19.8748C59.0155 19.9136 59.0248 19.9532 59.0475 19.9853C59.0614 20.0046 59.0798 20.0203 59.1011 20.031C59.1224 20.0416 59.146 20.0469 59.1698 20.0464Z" fill="#263238"/>
<path d="M52.0436 24.2512C52.451 26.4433 52.8992 30.4567 51.3672 31.9153C51.3672 31.9153 51.9661 34.1359 56.0365 34.1359C60.5185 34.1359 58.1716 31.9153 58.1716 31.9153C55.7269 31.3327 55.7961 29.5236 56.2199 27.8205L52.0436 24.2512Z" fill="#B55B52"/>
<path d="M50.7804 32.6772C50.4626 31.9764 50.1081 31.1697 50.8374 30.9171C51.6523 30.64 56.0405 30.3589 57.5563 30.8804C57.7562 30.9358 57.9432 31.0304 58.1063 31.1585C58.2695 31.2867 58.4056 31.446 58.5068 31.6271C58.6079 31.8082 58.6722 32.0077 58.6958 32.2138C58.7193 32.4199 58.7018 32.6287 58.6441 32.828L50.7804 32.6772Z" fill="#263238"/>
<path d="M45.4714 32.7751C42.8515 33.9648 41.2217 42.9857 41.2217 42.9857L46.3596 44.6155C47.369 42.2334 48.2078 39.7825 48.8695 37.2814C49.8025 33.5166 48.1524 31.5609 45.4714 32.7751Z" fill="#19AFC5"/>
<path d="M77.3704 55.1113H80.5322L79.9781 58.8924C79.9781 58.8924 77.5008 58.8028 76.3762 56.9367L77.3704 55.1113Z" fill="#B55B52"/>
<path d="M83.5065 56.4274L81.9174 59.3488L79.9617 58.9006L80.5158 55.1195L83.5065 56.4274Z" fill="#B55B52"/>
<path d="M51.6116 20.9142C51.8031 24.0271 51.7582 25.8607 53.331 27.4579C55.6942 29.8618 59.5364 28.4357 60.278 25.3269C60.9502 22.5318 60.5224 17.9114 57.4747 16.6727C56.8044 16.3965 56.0746 16.2962 55.3546 16.3813C54.6346 16.4665 53.9483 16.7342 53.3609 17.1592C52.7734 17.5841 52.3044 18.1522 51.9982 18.8094C51.6921 19.4666 51.559 20.1911 51.6116 20.9142Z" fill="#B55B52"/>
<path d="M51.2531 25.1476C51.2531 25.1476 48.4336 20.9183 49.0447 18.1599C49.6029 15.6378 55.295 14.7374 57.6582 14.99C60.168 15.263 61.1459 16.3427 59.7688 18.5185C58.9561 18.9036 58.1015 19.1935 57.2222 19.3823C57.2222 19.3823 58.6197 21.0976 58.632 22.2344C58.2245 22.4463 56.9655 22.9515 56.9655 22.9515C56.9655 22.9515 55.1809 27.356 55.1279 27.3479C54.4393 27.2664 52.8462 27.2419 52.2758 27.4579C51.8716 26.7174 51.5296 25.9447 51.2531 25.1476Z" fill="#263238"/>
<path d="M55.7308 22.4951C55.9363 23.2397 56.38 23.8966 56.9939 24.3653C57.8088 24.9765 58.4159 24.3979 58.3548 23.4812C58.3018 22.6663 57.8129 21.3502 56.9165 21.0935C56.0201 20.8368 55.4945 21.5947 55.7308 22.4951Z" fill="#B55B52"/>
<path opacity="0.3" d="M55.4536 66.9843C51.4484 67.9133 52.1941 82.4022 52.9641 90.6611C53.0008 90.4737 53.0293 90.2985 53.0619 90.1274C54.0561 84.692 55.4781 74.5629 56.4682 67.2533C56.1599 67.0751 55.8097 66.9823 55.4536 66.9843Z" fill="black"/>
<path d="M59.3286 134.91C59.7116 134.91 60.0824 134.857 60.2087 134.686C60.2412 134.641 60.2587 134.587 60.2587 134.531C60.2587 134.475 60.2412 134.421 60.2087 134.376C60.1846 134.335 60.1523 134.298 60.1138 134.27C60.0753 134.241 60.0313 134.22 59.9846 134.209C59.4875 134.075 58.4404 134.67 58.3955 134.698C58.3832 134.705 58.3734 134.716 58.3675 134.73C58.3617 134.743 58.3601 134.757 58.363 134.771C58.3658 134.785 58.3728 134.798 58.3829 134.808C58.3931 134.819 58.4059 134.826 58.42 134.828C58.72 134.881 59.024 134.908 59.3286 134.91ZM59.8053 134.331C59.8499 134.325 59.8952 134.325 59.9398 134.331C59.9684 134.337 59.9956 134.349 60.0195 134.365C60.0433 134.382 60.0634 134.404 60.0783 134.429C60.1313 134.519 60.1109 134.564 60.0783 134.588C59.9398 134.78 59.1819 134.784 58.6237 134.706C58.9895 134.506 59.3908 134.378 59.8053 134.331Z" fill="#19AFC5"/>
<path d="M58.424 134.828H58.4525C58.8152 134.665 59.5323 134.014 59.4752 133.679C59.4752 133.598 59.406 133.5 59.2104 133.48C59.1377 133.471 59.064 133.477 58.9939 133.498C58.9237 133.519 58.8587 133.555 58.8029 133.602C58.4199 133.916 58.3425 134.722 58.3384 134.755C58.3369 134.768 58.3387 134.78 58.3437 134.792C58.3487 134.803 58.3568 134.813 58.367 134.82C58.3842 134.83 58.4047 134.833 58.424 134.828ZM59.1533 133.606H59.1982C59.3245 133.606 59.3326 133.667 59.3367 133.683C59.3693 133.887 58.8804 134.397 58.5218 134.617C58.5592 134.275 58.7015 133.953 58.9293 133.696C58.9931 133.645 59.0718 133.616 59.1533 133.614V133.606Z" fill="#19AFC5"/>
<path d="M55.1318 134.759H58.1266L58.424 127.824H55.4333L55.1318 134.759Z" fill="#B55B52"/>
<path d="M58.1063 134.413H54.8467C54.7873 134.413 54.7296 134.433 54.6831 134.47C54.6365 134.507 54.6037 134.559 54.59 134.617L53.9992 137.277C53.9851 137.341 53.9856 137.408 54.0009 137.472C54.0161 137.536 54.0456 137.596 54.0871 137.646C54.1286 137.697 54.1812 137.738 54.2407 137.766C54.3003 137.794 54.3654 137.808 54.4311 137.807C55.6086 137.807 57.3118 137.721 58.7949 137.721C60.5306 137.721 62.0259 137.815 64.0591 137.815C65.2814 137.815 65.6278 136.572 65.1144 136.458C62.7716 135.949 60.8606 135.892 58.8356 134.645C58.619 134.501 58.3663 134.42 58.1063 134.413Z" fill="#263238"/>
<path opacity="0.2" d="M58.424 127.828L58.2691 131.402H55.2744L55.4292 127.828H58.424Z" fill="black"/>
<path d="M62.9549 58.6194C62.9549 58.6194 63.3623 81.0005 63.0404 90.1274C62.7022 99.6209 59.3734 130.709 59.3734 130.709H54.317C54.317 130.709 54.1295 100.175 53.9095 90.8526C53.661 80.6664 52.4346 58.6194 52.4346 58.6194H62.9549Z" fill="#263238"/>
<path d="M60.3636 128.688C60.384 128.688 60.0743 130.795 60.0743 130.795H53.9097L53.7385 128.916L60.3636 128.688Z" fill="#19AFC5"/>
<path d="M62.7755 32.7465C62.7755 32.7465 66.3692 38.2226 63.3581 60.4978H46.4491C46.3391 58.0531 48.3804 44.1714 46.009 32.5917C47.7786 32.251 49.5683 32.025 51.367 31.9153C53.6332 31.7849 55.9051 31.7849 58.1713 31.9153C59.7254 32.0719 61.2648 32.3498 62.7755 32.7465Z" fill="#19AFC5"/>
<path opacity="0.2" d="M64.5602 44.1428L61.0154 38.2674C61.0154 38.2674 62.3477 46.5957 64.389 50.3523C64.5276 48.0014 64.5765 45.9397 64.5602 44.1428Z" fill="black"/>
<path d="M66.0719 37.0329C66.6545 38.8949 67.2942 40.8018 67.9502 42.6679C68.6062 44.534 69.2907 46.3879 70.0404 48.1684L70.3256 48.8285C70.3502 48.8775 70.372 48.9278 70.3908 48.9792C70.4075 49.0171 70.4265 49.0538 70.4479 49.0893C70.6287 49.3591 70.8392 49.6078 71.0753 49.8308C71.7183 50.4295 72.4092 50.9746 73.1411 51.4606C73.9071 51.9903 74.7179 52.5037 75.5532 52.9885C76.3885 53.4734 77.2522 53.9705 78.0753 54.3983L76.4903 58.0979C74.4847 57.3619 72.5383 56.4738 70.6679 55.4414C69.667 54.8827 68.7131 54.2436 67.8158 53.5304C67.2809 53.0994 66.7958 52.6102 66.3693 52.0718C66.2471 51.8966 66.1289 51.7417 66.0108 51.5462C65.8926 51.3506 65.7622 51.1061 65.7256 51.0246L65.367 50.3116C64.4339 48.4129 63.5987 46.5142 62.8286 44.6073C62.0585 42.7005 61.3414 40.7814 60.6528 38.7971L66.0719 37.0329Z" fill="#19AFC5"/>
<path d="M58.7826 34.0993C57.7354 36.764 64.1038 47.4921 64.1038 47.4921L68.2476 43.5276C68.2476 43.5276 67.343 40.158 66.137 36.0998C64.9472 32.1109 59.7808 31.5527 58.7826 34.0993Z" fill="#19AFC5"/>
</svg>
