<svg width="144" height="28" viewBox="0 0 144 28" fill="none" xmlns="http://www.w3.org/2000/svg">
<g clip-path="url(#clip0)">
<rect x="38" y="4.66667" width="31.1111" height="18.6667" rx="2" fill="#0B2F0F"/>
<path d="M65.8704 4.66664H41.2407C39.4544 4.66664 38 5.97564 38 7.58334V20.4167C38 22.0243 39.4544 23.3333 41.2407 23.3333H65.8703C67.6566 23.3333 69.111 22.0243 69.111 20.4167V7.58334C69.1111 5.97564 67.6567 4.66664 65.8704 4.66664ZM67.8148 20.4166C67.8148 21.3815 66.9424 22.1666 65.8704 22.1666H41.2407C40.1687 22.1666 39.2963 21.3815 39.2963 20.4166V7.58334C39.2963 6.61849 40.1687 5.83334 41.2407 5.83334H65.8703C66.9424 5.83334 67.8148 6.61849 67.8148 7.58334V20.4166H67.8148Z" fill="black"/>
<path d="M50.3149 16.3334H42.5371C42.1793 16.3334 41.8889 16.5947 41.8889 16.9167C41.8889 17.2387 42.1793 17.5 42.5371 17.5H50.3149C50.6726 17.5 50.963 17.2387 50.963 16.9167C50.963 16.5947 50.6726 16.3334 50.3149 16.3334Z" fill="white"/>
<path d="M50.3149 18.6666H42.5371C42.1793 18.6666 41.8889 18.928 41.8889 19.25C41.8889 19.572 42.1793 19.8333 42.5371 19.8333H50.3149C50.6726 19.8333 50.963 19.572 50.963 19.25C50.963 18.928 50.6726 18.6666 50.3149 18.6666Z" fill="white"/>
<ellipse cx="60.5555" cy="17.8889" rx="2.33333" ry="2.33333" fill="#FF5656"/>
<ellipse cx="63.6666" cy="17.8889" rx="2.33333" ry="2.33333" fill="#FFF279"/>
</g>
<circle cx="82.3333" cy="13.2222" r="2.33333" fill="#555555"/>
<circle cx="88.5555" cy="13.2222" r="2.33333" fill="#555555"/>
<circle cx="94.7777" cy="13.2222" r="2.33333" fill="#555555"/>
<circle cx="101" cy="13.2222" r="2.33333" fill="#555555"/>
<path d="M111.56 17H110.651V10.9795L108.83 11.6484V10.8281L111.418 9.85645H111.56V17ZM114.621 13.4355L114.982 9.89062H118.625V10.7256H115.749L115.534 12.6641C115.882 12.459 116.278 12.3564 116.721 12.3564C117.368 12.3564 117.883 12.5713 118.264 13.001C118.645 13.4274 118.835 14.0052 118.835 14.7344C118.835 15.4668 118.636 16.0446 118.239 16.4678C117.845 16.8877 117.294 17.0977 116.584 17.0977C115.956 17.0977 115.443 16.9235 115.046 16.5752C114.649 16.2269 114.423 15.7451 114.367 15.1299H115.222C115.277 15.5368 115.422 15.8444 115.656 16.0527C115.891 16.2578 116.2 16.3604 116.584 16.3604C117.004 16.3604 117.333 16.2171 117.57 15.9307C117.811 15.6442 117.932 15.2487 117.932 14.7441C117.932 14.2689 117.801 13.888 117.541 13.6016C117.284 13.3118 116.94 13.167 116.511 13.167C116.117 13.167 115.808 13.2533 115.583 13.4258L115.344 13.6211L114.621 13.4355ZM124.133 11.7461C124.133 12.1009 124.038 12.4167 123.85 12.6934C123.664 12.9701 123.412 13.1865 123.093 13.3428C123.464 13.5023 123.757 13.735 123.972 14.041C124.19 14.347 124.299 14.6937 124.299 15.0811C124.299 15.6963 124.09 16.1862 123.674 16.5508C123.26 16.9154 122.715 17.0977 122.038 17.0977C121.354 17.0977 120.806 16.9154 120.393 16.5508C119.982 16.1829 119.777 15.693 119.777 15.0811C119.777 14.6969 119.882 14.3503 120.09 14.041C120.301 13.7318 120.593 13.4974 120.964 13.3379C120.648 13.1816 120.399 12.9652 120.217 12.6885C120.035 12.4118 119.943 12.0977 119.943 11.7461C119.943 11.1471 120.135 10.6719 120.52 10.3203C120.904 9.96875 121.41 9.79297 122.038 9.79297C122.663 9.79297 123.168 9.96875 123.552 10.3203C123.939 10.6719 124.133 11.1471 124.133 11.7461ZM123.396 15.0615C123.396 14.6644 123.269 14.3405 123.015 14.0898C122.764 13.8392 122.435 13.7139 122.028 13.7139C121.621 13.7139 121.294 13.8376 121.047 14.085C120.803 14.3324 120.681 14.6579 120.681 15.0615C120.681 15.4652 120.799 15.7826 121.037 16.0137C121.278 16.2448 121.612 16.3604 122.038 16.3604C122.461 16.3604 122.793 16.2448 123.034 16.0137C123.275 15.7793 123.396 15.4619 123.396 15.0615ZM122.038 10.5352C121.683 10.5352 121.395 10.6458 121.174 10.8672C120.956 11.0853 120.847 11.3831 120.847 11.7607C120.847 12.1221 120.954 12.415 121.169 12.6396C121.387 12.861 121.677 12.9717 122.038 12.9717C122.399 12.9717 122.688 12.861 122.902 12.6396C123.12 12.415 123.229 12.1221 123.229 11.7607C123.229 11.3994 123.117 11.1048 122.893 10.877C122.668 10.6491 122.383 10.5352 122.038 10.5352ZM129.748 11.7461C129.748 12.1009 129.654 12.4167 129.465 12.6934C129.279 12.9701 129.027 13.1865 128.708 13.3428C129.079 13.5023 129.372 13.735 129.587 14.041C129.805 14.347 129.914 14.6937 129.914 15.0811C129.914 15.6963 129.706 16.1862 129.289 16.5508C128.876 16.9154 128.33 17.0977 127.653 17.0977C126.97 17.0977 126.421 16.9154 126.008 16.5508C125.598 16.1829 125.393 15.693 125.393 15.0811C125.393 14.6969 125.497 14.3503 125.705 14.041C125.917 13.7318 126.208 13.4974 126.579 13.3379C126.263 13.1816 126.014 12.9652 125.832 12.6885C125.65 12.4118 125.559 12.0977 125.559 11.7461C125.559 11.1471 125.751 10.6719 126.135 10.3203C126.519 9.96875 127.025 9.79297 127.653 9.79297C128.278 9.79297 128.783 9.96875 129.167 10.3203C129.554 10.6719 129.748 11.1471 129.748 11.7461ZM129.011 15.0615C129.011 14.6644 128.884 14.3405 128.63 14.0898C128.379 13.8392 128.05 13.7139 127.644 13.7139C127.237 13.7139 126.91 13.8376 126.662 14.085C126.418 14.3324 126.296 14.6579 126.296 15.0615C126.296 15.4652 126.415 15.7826 126.652 16.0137C126.893 16.2448 127.227 16.3604 127.653 16.3604C128.076 16.3604 128.409 16.2448 128.649 16.0137C128.89 15.7793 129.011 15.4619 129.011 15.0615ZM127.653 10.5352C127.299 10.5352 127.01 10.6458 126.789 10.8672C126.571 11.0853 126.462 11.3831 126.462 11.7607C126.462 12.1221 126.569 12.415 126.784 12.6396C127.002 12.861 127.292 12.9717 127.653 12.9717C128.015 12.9717 128.303 12.861 128.518 12.6396C128.736 12.415 128.845 12.1221 128.845 11.7607C128.845 11.3994 128.732 11.1048 128.508 10.877C128.283 10.6491 127.998 10.5352 127.653 10.5352Z" fill="#555555"/>
<circle cx="9" cy="17" r="9" fill="#EAEAEA"/>
<defs>
<clipPath id="clip0">
<rect width="31.1111" height="28" fill="white" transform="translate(38)"/>
</clipPath>
</defs>
</svg>
