<svg width="150" height="146" viewBox="0 0 150 146" fill="none" xmlns="http://www.w3.org/2000/svg">
<path d="M57.8064 61.8024C79.5359 51.2533 124.418 3.4947 144.377 41.5913C161.08 73.4703 124.138 103.375 102.021 114.316C73.2504 128.553 30.9622 122.931 8.1977 96.019C-1.59218 84.431 -5.12453 68.0479 11.9538 64.9991C17.7159 63.9682 27.4977 67.7243 34.011 67.3966C42.3584 66.977 50.5339 65.3307 57.8064 61.8024Z" fill="#BDF4FB"/>
<path opacity="0.9" d="M57.8064 61.8024C79.5359 51.2533 124.418 3.4947 144.377 41.5913C161.08 73.4703 124.138 103.375 102.021 114.316C73.2504 128.553 30.9622 122.931 8.1977 96.019C-1.59218 84.431 -5.12453 68.0479 11.9538 64.9991C17.7159 63.9682 27.4977 67.7243 34.011 67.3966C42.3584 66.977 50.5339 65.3307 57.8064 61.8024Z" fill="#BDF4FB"/>
<path d="M70.0378 39.3497C69.1547 41.4954 63.956 41.3476 58.5097 39.1019C53.0633 36.8562 49.3591 33.2959 50.2422 31.1501C50.45 30.6547 51.0414 28.7966 51.6328 28.5408C53.6627 27.6817 57.5267 29.6117 61.7104 31.3379C65.6063 32.9363 70.0617 33.9792 70.753 36.093C71.1686 37.3797 70.2895 38.7383 70.0378 39.3497Z" fill="#00B3C8"/>
<path opacity="0.2" d="M70.753 36.093C71.0847 37.7753 70.3534 38.5824 70.0378 39.3496C69.7221 40.1168 68.799 40.6203 67.5084 40.7961C67.347 40.8236 67.1843 40.8423 67.0209 40.8521C66.0312 40.9103 65.0381 40.858 64.0599 40.6963C63.9201 40.6963 63.7802 40.6523 63.6364 40.6283C62.4882 40.4222 61.3569 40.131 60.2519 39.7572L59.8523 39.6214C59.4087 39.4655 58.9532 39.2937 58.4977 39.1059C58.0422 38.9181 57.6106 38.7063 57.1831 38.5185L56.8154 38.3427C55.8081 37.8446 54.8374 37.2757 53.9104 36.6404L53.5828 36.4087C52.7736 35.8367 52.0323 35.1745 51.3731 34.4347C51.2732 34.3228 51.1813 34.215 51.0933 34.1031C50.2342 33.0162 49.8946 31.9773 50.2342 31.1501C50.458 30.6187 50.9375 28.8006 51.6248 28.5368C52.4701 28.2987 53.3648 28.2987 54.2101 28.5368L54.6097 28.6327C56.6076 29.1442 59.125 30.283 61.6944 31.3419C64.7233 32.5926 68.3075 33.8913 70.0657 35.3897C70.1703 35.4778 70.2704 35.5711 70.3654 35.6695C70.5057 35.8001 70.6353 35.9417 70.753 36.093Z" fill="black"/>
<g opacity="0.2">
<path opacity="0.2" d="M54.8095 28.2891L54.6257 28.6247L51.381 34.4307C51.2811 34.3188 51.1892 34.211 51.1013 34.0991L54.2181 28.5288L54.4618 28.0973L54.8095 28.2891Z" fill="black"/>
</g>
<g opacity="0.2">
<path opacity="0.2" d="M57.263 30.6586L53.9185 36.6524L53.5908 36.4207L56.9154 30.4748L57.263 30.6586Z" fill="black"/>
</g>
<g opacity="0.2">
<path opacity="0.2" d="M63.4126 34.0951L60.2519 39.7572L59.8523 39.6214L63.049 33.8833L63.4126 34.0951Z" fill="black"/>
</g>
<g opacity="0.2">
<path opacity="0.2" d="M60.5516 32.4968L57.1911 38.5185L56.8235 38.3427L60.204 32.285L60.5516 32.4968Z" fill="black"/>
</g>
<g opacity="0.2">
<path opacity="0.2" d="M67.1409 35.19L64.06 40.6963C63.9202 40.6963 63.7803 40.6523 63.6365 40.6283L66.7892 34.9902L67.1409 35.19Z" fill="black"/>
</g>
<path d="M70.7289 37.4796C69.8458 39.6254 64.7111 39.5415 59.2608 37.2918C53.8104 35.0421 50.1102 31.4858 50.9973 29.34C51.8844 27.1942 57.0151 27.2821 62.4654 29.5278C67.9158 31.7735 71.612 35.3218 70.7289 37.4796Z" fill="#00B3C8"/>
<path opacity="0.2" d="M68.8748 36.7004C68.2515 38.2148 64.2476 38.003 59.9361 36.2249C55.6245 34.4467 52.6356 31.7735 53.259 30.2591C53.8823 28.7446 57.8862 28.9564 62.2017 30.7346C66.5173 32.5127 69.5022 35.186 68.8748 36.7004Z" fill="white"/>
<path d="M97.5773 19.9537C98.9998 21.7878 96.2906 26.2272 91.6275 29.8355C86.9643 33.4438 82.0374 34.8823 80.6189 33.0322C80.2912 32.6086 78.9646 31.1901 79.0445 30.5268C79.3122 28.341 82.9045 25.9515 86.4848 23.1784C89.8173 20.5971 92.9301 17.2485 95.1079 17.7001C96.4305 17.9917 97.1737 19.4343 97.5773 19.9537Z" fill="#00B3C8"/>
<path opacity="0.2" d="M95.1078 17.716C96.7341 18.2675 97.0698 19.3144 97.5773 19.9537C98.0847 20.5931 98.0647 21.66 97.5773 22.8707C97.5213 23.0186 97.4534 23.1664 97.3815 23.3182C96.9436 24.2066 96.4075 25.0429 95.7831 25.8117C95.6992 25.9235 95.6073 26.0314 95.5154 26.1433C94.7639 27.0396 93.9465 27.8784 93.0699 28.6527L92.7622 28.9204C92.4066 29.2281 92.031 29.5358 91.6434 29.8355C91.2558 30.1352 90.8682 30.4189 90.4766 30.6866C90.3687 30.7665 90.2528 30.8425 90.1449 30.9184C89.2113 31.5447 88.2338 32.1029 87.22 32.5887C87.0961 32.6526 86.9762 32.7045 86.8603 32.7605C85.9595 33.1772 85.0145 33.4908 84.0432 33.6955C83.8994 33.7275 83.7595 33.7515 83.6197 33.7714C82.2491 33.9752 81.1782 33.7714 80.6308 33.0482C80.2791 32.5927 78.9405 31.27 79.0564 30.5468C79.2654 29.6918 79.7098 28.9124 80.3391 28.2971C80.427 28.1972 80.5229 28.0973 80.6228 27.9934C82.0653 26.499 84.299 24.8966 86.4967 23.1984C89.09 21.2004 91.999 18.727 94.1688 17.9518C94.2998 17.9037 94.4331 17.8623 94.5684 17.8279C94.7452 17.7775 94.9255 17.7401 95.1078 17.716Z" fill="black"/>
<g opacity="0.2">
<path opacity="0.2" d="M80.4109 27.6658L80.6107 27.9934L84.0312 33.6955C83.8873 33.7275 83.7475 33.7515 83.6076 33.7714L80.327 28.2891L80.0713 27.8895L80.4109 27.6658Z" fill="black"/>
</g>
<g opacity="0.2">
<path opacity="0.2" d="M83.6835 26.7147L87.2078 32.5886C87.084 32.6526 86.9641 32.7045 86.8482 32.7605L83.3398 26.9185L83.6835 26.7147Z" fill="black"/>
</g>
<g opacity="0.2">
<path opacity="0.2" d="M89.7213 23.0945L93.0579 28.6567L92.7502 28.9244L89.3777 23.2983L89.7213 23.0945Z" fill="black"/>
</g>
<g opacity="0.2">
<path opacity="0.2" d="M86.9162 24.7767L90.4646 30.6866C90.3567 30.7665 90.2408 30.8425 90.1329 30.9184L86.5686 24.9805L86.9162 24.7767Z" fill="black"/>
</g>
<g opacity="0.2">
<path opacity="0.2" d="M92.5265 20.3973L95.7712 25.8117C95.6872 25.9235 95.5953 26.0314 95.5034 26.1433L92.1829 20.605L92.5265 20.3973Z" fill="black"/>
</g>
<path d="M90.4179 28.2673C95.078 24.6578 97.7044 20.2452 96.2841 18.4115C94.8638 16.5778 89.9346 18.0174 85.2745 21.627C80.6144 25.2365 77.9881 29.6491 79.4084 31.4828C80.8287 33.3165 85.7578 31.8769 90.4179 28.2673Z" fill="#00B3C8"/>
<path opacity="0.2" d="M89.8397 27.1552C93.528 24.2983 95.704 20.9316 94.7 19.6352C93.6959 18.3389 89.892 19.604 86.2037 22.4608C82.5153 25.3176 80.3394 28.6844 81.3434 29.9807C82.3475 31.277 86.1514 30.012 89.8397 27.1552Z" fill="white"/>
<path d="M78.2891 11.3626C77.8336 13.9919 71.9357 15.1027 65.2546 13.904C58.5735 12.7052 53.5347 9.6164 54.0022 6.98712C54.1101 6.37575 54.2979 4.15005 54.9253 3.70651C56.9991 2.24403 61.8182 3.46676 66.9489 4.37782C71.7439 5.22894 76.9905 5.29687 78.2891 7.50658C79.0763 8.86518 78.421 10.6114 78.2891 11.3626Z" fill="#00B3C8"/>
<path opacity="0.2" d="M78.2894 7.51058C79.0886 9.3247 78.4533 10.4076 78.2894 11.3506C78.1256 12.2936 77.2105 13.0808 75.804 13.6003C75.6322 13.6682 75.4524 13.7242 75.2685 13.7801C74.1684 14.0893 73.0373 14.2756 71.896 14.3355C71.7322 14.3355 71.5724 14.3355 71.4045 14.3635C70.0601 14.4129 68.7139 14.3635 67.3767 14.2156L66.9092 14.1557C66.3698 14.0878 65.8143 14.0079 65.2589 13.908C64.7035 13.8081 64.164 13.6962 63.6326 13.5723C63.4807 13.5403 63.3289 13.5004 63.1771 13.4644C61.9216 13.1544 60.6903 12.7538 59.4929 12.2657C59.345 12.2097 59.2052 12.1458 59.0653 12.0898C58.0143 11.6425 57.0171 11.0782 56.0924 10.4076C55.9525 10.3077 55.8247 10.2078 55.6928 10.1039C54.4541 9.09294 53.8187 8.00606 53.9985 6.99511C54.1184 6.33979 54.2143 4.198 54.9176 3.7145C55.6209 3.231 56.6278 3.07916 57.8266 3.07516H58.3061C60.7036 3.15508 63.7924 3.82239 66.9452 4.38181C70.6613 5.04513 75.0128 5.62453 77.3544 6.87923C77.4917 6.95203 77.6251 7.03205 77.754 7.11898C77.9424 7.23537 78.1214 7.3663 78.2894 7.51058Z" fill="black"/>
<g opacity="0.2">
<path opacity="0.2" d="M58.4376 2.66759L58.3098 3.08715L56.0881 10.4156C55.9482 10.3157 55.8203 10.2158 55.6885 10.1119L57.8223 3.08315L57.9901 2.53572L58.4376 2.66759Z" fill="black"/>
</g>
<g opacity="0.2">
<path opacity="0.2" d="M61.7782 4.71346L59.4886 12.2617C59.3407 12.2057 59.2009 12.1418 59.061 12.0858L61.3387 4.57361L61.7782 4.71346Z" fill="black"/>
</g>
<g opacity="0.2">
<path opacity="0.2" d="M69.5423 7.07902L67.3726 14.2276L66.905 14.1677L69.0988 6.94316L69.5423 7.07902Z" fill="black"/>
</g>
<g opacity="0.2">
<path opacity="0.2" d="M65.934 5.98415L63.6284 13.5763C63.4765 13.5443 63.3247 13.5044 63.1729 13.4684L65.4905 5.8403L65.934 5.98415Z" fill="black"/>
</g>
<g opacity="0.2">
<path opacity="0.2" d="M74.0057 7.3907L71.8919 14.3475C71.7281 14.3475 71.5682 14.3475 71.4004 14.3755L73.5622 7.25883L74.0057 7.3907Z" fill="black"/>
</g>
<path d="M78.6005 9.06697C79.0683 6.43797 74.0297 3.34264 67.3463 2.15337C60.663 0.964096 54.8659 2.13123 54.3981 4.76022C53.9303 7.38922 58.9689 10.4845 65.6522 11.6738C72.3355 12.8631 78.1327 11.696 78.6005 9.06697Z" fill="#00B3C8"/>
<path opacity="0.2" d="M76.326 8.66508C76.6566 6.8074 72.6374 4.53857 67.349 3.59751C62.0606 2.65646 57.5055 3.39953 57.175 5.25721C56.8444 7.11489 60.8635 9.38371 66.1519 10.3248C71.4403 11.2658 75.9954 10.5228 76.326 8.66508Z" fill="white"/>
<path d="M113.173 78.4892L72.0515 80.8867C70.5989 80.9722 69.1736 81.3187 67.8439 81.9096L23.1781 101.889C22.3944 102.233 21.7526 102.836 21.3599 103.597C20.9672 104.358 20.8473 105.23 21.0203 106.069L28.4006 140.973C28.5254 141.535 28.7771 142.061 29.1363 142.511C29.4956 142.96 29.953 143.322 30.4736 143.568C30.9941 143.814 31.564 143.938 32.1397 143.93C32.7154 143.922 33.2816 143.782 33.7951 143.522L77.8815 121.513L118.591 120.15C119.092 120.137 119.585 120.017 120.036 119.798C120.487 119.58 120.886 119.268 121.207 118.883C121.528 118.498 121.763 118.049 121.897 117.566C122.031 117.083 122.061 116.578 121.984 116.082L116.537 82.6609C116.254 80.9346 114.943 78.4372 113.173 78.4892Z" fill="#00B3C8"/>
<path opacity="0.1" d="M113.173 78.4892L72.0515 80.8867C70.5989 80.9722 69.1736 81.3187 67.8439 81.9096L23.1781 101.889C22.3944 102.233 21.7526 102.836 21.3599 103.597C20.9672 104.358 20.8473 105.23 21.0203 106.069L28.4006 140.973C28.5254 141.535 28.7771 142.061 29.1363 142.511C29.4956 142.96 29.953 143.322 30.4736 143.568C30.9941 143.814 31.564 143.938 32.1397 143.93C32.7154 143.922 33.2816 143.782 33.7951 143.522L77.8815 121.513L118.591 120.15C119.092 120.137 119.585 120.017 120.036 119.798C120.487 119.58 120.886 119.268 121.207 118.883C121.528 118.498 121.763 118.049 121.897 117.566C122.031 117.083 122.061 116.578 121.984 116.082L116.537 82.6609C116.254 80.9346 114.943 78.4372 113.173 78.4892Z" fill="black"/>
<path d="M30.6341 55.7625L9.0542 75.6549L47.7802 117.666L69.3601 97.7735L30.6341 55.7625Z" fill="#00B3C8"/>
<path opacity="0.5" d="M69.3544 97.7772L47.7727 117.669L9.05273 75.6601L23.2141 62.6056L30.6344 55.7647L31.8691 57.1073L69.3544 97.7772Z" fill="#FAFAFA"/>
<path d="M30.7726 58.3307L11.7312 75.8832L47.9547 115.18L66.9961 97.627L30.7726 58.3307Z" stroke="#00B3C8" stroke-miterlimit="10"/>
<path d="M43.6481 91.4075C45.8322 89.3942 45.5559 85.5417 43.0311 82.8027C40.5063 80.0637 36.689 79.4754 34.5049 81.4887C32.3208 83.502 32.5971 87.3544 35.1219 90.0935C37.6467 92.8325 41.464 93.4208 43.6481 91.4075Z" fill="#00B3C8"/>
<path opacity="0.1" d="M47.5447 100.618L39.8766 103.268L23.2139 62.6056L30.6342 55.7647L31.8689 57.1073L47.5447 100.618Z" fill="black"/>
<path d="M49.0392 39.3037L21.4473 49.3082L40.9236 103.023L68.5155 93.0187L49.0392 39.3037Z" fill="#00B3C8"/>
<path opacity="0.5" d="M49.0392 39.3037L21.4473 49.3082L40.9236 103.023L68.5155 93.0187L49.0392 39.3037Z" fill="#FAFAFA"/>
<path d="M48.1717 41.7259L23.8254 50.5536L42.0432 100.797L66.3895 91.9698L48.1717 41.7259Z" stroke="#00B3C8" stroke-miterlimit="10"/>
<path d="M47.2658 77.2054C50.0583 76.1929 51.2927 72.5331 50.0229 69.031C48.7531 65.5289 45.4599 63.5108 42.6674 64.5233C39.8749 65.5358 38.6405 69.1957 39.9103 72.6977C41.1801 76.1998 44.4733 78.218 47.2658 77.2054Z" fill="#00B3C8"/>
<path d="M113.441 79.9077L72.8827 82.1933C71.445 82.2721 70.0344 82.6177 68.723 83.2123L24.7126 103.08C23.9374 103.43 23.3049 104.035 22.9198 104.793C22.5348 105.552 22.4201 106.419 22.5947 107.251L29.9751 142.171C30.094 142.73 30.3393 143.254 30.6923 143.703C31.0453 144.152 31.4965 144.514 32.0113 144.761C32.526 145.009 33.0907 145.135 33.6618 145.13C34.2328 145.125 34.7952 144.989 35.3056 144.733L78.7407 122.847L118.891 121.577C119.388 121.561 119.876 121.439 120.323 121.22C120.769 121.001 121.163 120.689 121.479 120.305C121.796 119.921 122.026 119.474 122.156 118.994C122.286 118.514 122.312 118.012 122.232 117.521L116.769 84.1034C116.486 82.3612 115.191 79.8597 113.441 79.9077Z" fill="#00B3C8"/>
<path opacity="0.2" d="M74.5332 88.307L109.333 86.1652" stroke="black" stroke-width="2" stroke-linecap="round" stroke-linejoin="round"/>
<path opacity="0.2" d="M70.3652 89.2061L76.7227 118.408" stroke="black" stroke-width="2" stroke-linecap="round" stroke-linejoin="round"/>
<path opacity="0.2" d="M27.9773 115.571L32.4607 138.032C32.4607 138.032 35.8971 129.121 27.9773 115.571Z" fill="#FAFAFA"/>
<path opacity="0.2" d="M28.5647 115.835C28.7205 116.234 68.3875 99.2117 68.3875 99.2117C68.495 103.071 67.5301 106.884 65.6 110.228C63.67 113.572 60.8504 116.315 57.4548 118.152C45.5152 124.845 28.5647 115.835 28.5647 115.835Z" fill="#FAFAFA"/>
<path d="M54.9133 116.498C55.8622 116.498 56.6315 115.729 56.6315 114.78C56.6315 113.831 55.8622 113.061 54.9133 113.061C53.9643 113.061 53.1951 113.831 53.1951 114.78C53.1951 115.729 53.9643 116.498 54.9133 116.498Z" fill="#00B3C8"/>
<path opacity="0.2" d="M68.4075 99.2117C68.4075 99.2117 73.3264 106.616 72.1356 119.227L68.4075 99.2117Z" fill="black"/>
<g opacity="0.2">
<path opacity="0.2" d="M26.0791 106.748L26.9942 106.344" stroke="#FAFAFA" stroke-linecap="round" stroke-linejoin="round"/>
<path opacity="0.2" d="M28.8923 105.505L65.934 89.1301" stroke="#FAFAFA" stroke-linecap="round" stroke-linejoin="round" stroke-dasharray="5.2 5.2"/>
<path opacity="0.2" d="M66.8853 88.7106L67.7963 88.307" stroke="#FAFAFA" stroke-linecap="round" stroke-linejoin="round"/>
</g>
<path opacity="0.2" d="M75.7 94.8722L110.5 92.7264" stroke="black" stroke-width="2" stroke-linecap="round" stroke-linejoin="round"/>
<path opacity="0.2" d="M77.2661 103.06L112.066 100.914" stroke="black" stroke-width="2" stroke-linecap="round" stroke-linejoin="round"/>
<path d="M104.438 44.8959C104.438 44.8959 103.563 54.2183 100.099 55.0214C97.9533 55.4848 95.7165 55.2611 93.7053 54.3821L90.8883 52.2163L89.5137 57.0114C89.5137 57.0114 91.0161 59.0533 94.1529 57.6387C94.1529 57.6387 99.7471 60.1002 102.84 57.6387C105.933 55.1773 106.924 48.4243 106.924 48.4243L104.438 44.8959Z" fill="#B97964"/>
<path d="M107.223 40.3806C107.223 40.3806 104.806 36.2608 105.905 28.7926C107.003 21.3243 113.265 20.4012 115.682 20.9407C118.1 21.4801 120.078 23.8017 121.724 28.2211C123.371 32.6406 123.978 33.7914 126.723 33.0162C129.468 32.241 136.773 29.8195 138.807 31.9733C139.392 32.5616 139.823 33.285 140.062 34.0794C140.301 34.8739 140.34 35.7151 140.177 36.5286C140.177 36.5286 150.339 34.0591 149.46 43.1217C148.58 52.1844 133.916 60.6436 119.966 51.6889C106.016 42.7341 107.223 40.3806 107.223 40.3806Z" fill="#263238"/>
<path d="M107.111 62.3139C107.111 62.3139 104.35 86.0613 104.442 97.1978C104.534 108.334 108.49 134.579 108.49 134.579H113.369C113.369 134.579 112.725 113.593 112.817 106.412C112.909 99.2317 114.196 87.352 114.196 87.352C114.196 87.352 115.758 98.029 117.6 101.801C119.442 105.573 129.66 118.923 136.749 123.067L140.061 120.026C140.061 120.026 132.697 110.916 129.936 106.404C127.174 101.893 124.693 100.614 123.678 92.223C122.663 83.8316 124.417 70.4095 121.472 62.3099L107.111 62.3139Z" fill="#263238"/>
<path opacity="0.2" d="M114.196 87.352L112.074 72.2996C112.074 72.2996 110.4 81.3462 113.696 92.3948L114.196 87.352Z" fill="black"/>
<path d="M109.493 135.91L109.657 140.573L112.93 140.845L113.093 140.409V135.582L109.493 135.91Z" fill="#B97964"/>
<path d="M107.939 134.136L108.238 135.882L113.857 136.018L114.212 133.92L107.939 134.136Z" fill="#00B3C8"/>
<path d="M135.21 123.391L140.417 118.54L141.564 120.366L137.092 124.458L135.21 123.391Z" fill="#00B3C8"/>
<path d="M137.72 123.391L141.156 126.284L143.362 123.69L140.541 120.773L137.72 123.391Z" fill="#B97964"/>
<path d="M144.029 123.491L146.107 124.769C146.202 124.828 146.283 124.906 146.344 124.999C146.405 125.092 146.445 125.197 146.462 125.307C146.478 125.417 146.47 125.529 146.439 125.636C146.407 125.742 146.352 125.841 146.279 125.924C144.772 127.626 140.924 131.95 140.541 132.254C140.065 132.653 139.49 131.982 139.342 131.382C139.342 131.382 140.433 129.936 140.541 129.009C140.586 128.293 140.586 127.575 140.541 126.859C140.532 126.68 140.592 126.504 140.709 126.368L143.03 123.642C143.15 123.5 143.317 123.407 143.501 123.379C143.685 123.351 143.873 123.391 144.029 123.491Z" fill="#263238"/>
<path d="M113.729 140.973L114.16 143.37C114.18 143.48 114.176 143.592 114.147 143.7C114.119 143.808 114.067 143.908 113.996 143.994C113.925 144.079 113.836 144.148 113.735 144.196C113.634 144.244 113.524 144.269 113.413 144.269C111.139 144.269 105.353 144.293 104.87 144.213C104.266 144.113 104.374 143.25 104.73 142.747C104.73 142.747 106.532 142.595 107.287 142.047C107.849 141.607 108.383 141.132 108.886 140.625C109.014 140.499 109.185 140.426 109.365 140.421L112.941 140.337C113.127 140.33 113.309 140.391 113.454 140.508C113.598 140.625 113.696 140.79 113.729 140.973Z" fill="#263238"/>
<path d="M121.996 49.1435L126.983 45.6431C126.983 45.6431 125.656 40.3366 123.69 40.0729C121.724 39.8092 111.967 37.9511 105.761 40.0729C105.761 40.0729 103.531 40.7083 102.844 46.9698L105.497 47.8169C105.497 47.8169 106.448 59.5408 107.036 61.3469H121.197C121.197 61.3469 121.357 51.2653 121.996 49.1435Z" fill="#00B3C8"/>
<path d="M123.071 48.3883C123.071 48.3883 124.961 53.7827 125.297 56.6837C125.297 56.6837 120.806 54.8936 119.647 54.0744L118.768 50.9177L115.795 49.4672L114.912 51.8647L117.393 54.9415C117.393 54.9415 124.158 61.271 127.587 59.8245C131.015 58.378 126.232 46.1826 126.232 46.1826L123.071 48.3883Z" fill="#B97964"/>
<path d="M110.384 24.7687C110.384 24.7687 108.654 28.2211 108.786 31.0302C108.918 33.8393 110.336 34.9861 113.033 35.3817C113.033 35.3817 114.184 38.978 111.163 39.3416C110.932 39.3696 110.852 40.2847 110.868 40.4325C110.948 41.0159 111.527 41.3356 112.066 41.4714C112.635 41.5972 113.215 41.6616 113.797 41.6632C114.408 41.6843 115.016 41.5661 115.574 41.3176C116.133 41.069 116.628 40.6967 117.021 40.2287C117.085 40.1528 117.693 39.3776 117.693 39.3776C117.693 39.3776 116.25 38.6623 116.757 33.9792C117.446 33.531 117.975 32.8764 118.268 32.1091C118.544 31.9628 118.787 31.7631 118.985 31.5216C119.182 31.2801 119.33 31.0017 119.419 30.7026C119.635 29.7675 118.807 28.4729 117.297 29.7675C117.297 29.7675 114.452 28.329 113.373 23.2902C112.573 24.1075 111.519 24.6288 110.384 24.7687Z" fill="#B97964"/>
<path d="M111.195 30.263L111.439 28.4169L110.133 29.8634C110.267 30.0069 110.433 30.1175 110.618 30.1868C110.802 30.2561 111 30.2822 111.195 30.263Z" fill="#A24E3F"/>
<path d="M111.955 31.6136C111.955 31.6136 113.333 31.8254 113.996 30.9423" stroke="#222221" stroke-width="0.75" stroke-linecap="round" stroke-linejoin="round"/>
<path d="M113.333 25.8316C113.646 25.7427 113.977 25.7399 114.292 25.8236C114.606 25.9073 114.892 26.0743 115.119 26.3071" stroke="#222221" stroke-linecap="round" stroke-linejoin="round"/>
<path d="M110.948 25.432C110.948 25.432 110.148 25.3082 109.793 25.7597" stroke="#222221" stroke-linecap="round" stroke-linejoin="round"/>
<path d="M113.888 28.2611C113.853 28.5408 113.673 28.7446 113.489 28.7206C113.305 28.6967 113.181 28.4529 113.217 28.1732C113.253 27.8935 113.433 27.6897 113.617 27.7137C113.801 27.7377 113.924 27.9814 113.888 28.2611Z" fill="#222221"/>
<path d="M110.698 27.6427C110.735 27.3647 110.613 27.1198 110.427 27.0957C110.241 27.0715 110.061 27.2772 110.025 27.5552C109.989 27.8331 110.11 28.078 110.296 28.1022C110.482 28.1263 110.662 27.9206 110.698 27.6427Z" fill="#222221"/>
<path d="M113.621 27.7137L112.99 27.438C112.998 27.5071 113.024 27.5728 113.066 27.6287C113.107 27.6845 113.163 27.7286 113.226 27.7564C113.29 27.7843 113.36 27.795 113.429 27.7875C113.498 27.78 113.564 27.7545 113.621 27.7137Z" fill="#222221"/>
<path d="M110.488 27.1223L109.856 26.8466C109.865 26.9157 109.891 26.9814 109.933 27.0373C109.974 27.0931 110.029 27.1372 110.093 27.165C110.157 27.1929 110.227 27.2036 110.296 27.1961C110.365 27.1886 110.431 27.1632 110.488 27.1223Z" fill="#222221"/>
<path d="M106.54 60.7235V62.3898L121.884 62.5177L121.473 60.5357L106.54 60.7235Z" fill="#00B3C8"/>
<path opacity="0.4" d="M106.54 60.7235V62.3898L121.884 62.5177L121.473 60.5357L106.54 60.7235Z" fill="white"/>
<path d="M106.728 52.6359L98.2883 81.9896C98.0078 82.9726 97.4391 83.849 96.6556 84.5057C95.8721 85.1624 94.9098 85.5692 93.8929 85.6737C93.2455 85.7356 92.5923 85.676 91.9669 85.4979L75.8356 80.8587C74.5315 80.4825 73.4299 79.6044 72.7722 78.4172C72.1146 77.2299 71.9545 75.8303 72.3272 74.5253L80.7705 45.1636C81.1475 43.8614 82.0255 42.7617 83.2119 42.1056C84.3983 41.4494 85.7964 41.2904 87.0999 41.6633L103.243 46.2985C104.544 46.6788 105.642 47.5594 106.295 48.7473C106.948 49.9352 107.104 51.3335 106.728 52.6359Z" fill="#00B3C8"/>
<path opacity="0.2" d="M106.728 52.6359L98.2883 81.9896C98.0078 82.9726 97.4391 83.849 96.6556 84.5057C95.8721 85.1624 94.9098 85.5692 93.8929 85.6737C93.2455 85.7356 92.5923 85.676 91.9669 85.4979L75.8356 80.8587C74.5315 80.4825 73.4299 79.6044 72.7722 78.4172C72.1146 77.2299 71.9545 75.8303 72.3272 74.5253L80.7705 45.1636C81.1475 43.8614 82.0255 42.7617 83.2119 42.1056C84.3983 41.4494 85.7964 41.2904 87.0999 41.6633L103.243 46.2985C104.544 46.6788 105.642 47.5594 106.295 48.7473C106.948 49.9352 107.104 51.3335 106.728 52.6359Z" fill="black"/>
<path d="M105.325 52.9835L96.8858 82.3412C96.6724 83.0885 96.2911 83.7773 95.7711 84.3548C95.251 84.9324 94.6059 85.3835 93.8849 85.6737C93.2376 85.7356 92.5843 85.676 91.9589 85.4979L75.8356 80.8587C74.5315 80.4825 73.4299 79.6044 72.7722 78.4172C72.1146 77.2299 71.9545 75.8303 72.3272 74.5253L80.7705 45.1636C80.9841 44.4174 81.3656 43.7298 81.8857 43.1536C82.4058 42.5774 83.0508 42.1278 83.7714 41.8391C84.4187 41.7732 85.0727 41.8329 85.6974 42.0149L101.809 46.6701C103.11 47.0439 104.211 47.918 104.87 49.1011C105.529 50.2842 105.692 51.6801 105.325 52.9835Z" fill="#00B3C8"/>
<path opacity="0.5" d="M105.325 52.9835L96.8858 82.3412C96.6724 83.0885 96.2911 83.7773 95.7711 84.3548C95.251 84.9324 94.6059 85.3835 93.8849 85.6737C93.2376 85.7356 92.5843 85.676 91.9589 85.4979L75.8356 80.8587C74.5315 80.4825 73.4299 79.6044 72.7722 78.4172C72.1146 77.2299 71.9545 75.8303 72.3272 74.5253L80.7705 45.1636C80.9841 44.4174 81.3656 43.7298 81.8857 43.1536C82.4058 42.5774 83.0508 42.1278 83.7714 41.8391C84.4187 41.7732 85.0727 41.8329 85.6974 42.0149L101.809 46.6701C103.11 47.0439 104.211 47.918 104.87 49.1011C105.529 50.2842 105.692 51.6801 105.325 52.9835Z" fill="#FAFAFA"/>
<path d="M82.637 55.4799L80.9102 54.9932L74.6947 77.0464L76.4215 77.5331L82.637 55.4799Z" fill="#FAFAFA"/>
<path d="M78.9003 78.2334L77.1741 77.734L83.3876 55.6888L85.1099 56.1843L78.9003 78.2334Z" fill="#FAFAFA"/>
<path d="M81.4096 78.9527L79.6833 78.4572L85.8969 56.412L87.6231 56.9075L81.4096 78.9527Z" fill="#FAFAFA"/>
<path opacity="0.5" d="M97.6719 59.7965L95.9451 59.3098L89.7296 81.363L91.4565 81.8497L97.6719 59.7965Z" fill="black"/>
<path d="M97.4532 53.5629L96.6141 56.5559L95.5912 56.2681C95.0956 56.1276 94.676 55.7963 94.4244 55.3469C94.1727 54.8974 94.1095 54.3666 94.2485 53.8706L94.808 51.8727L96.8738 52.4641C97.0963 52.5331 97.2822 52.6876 97.3909 52.8936C97.4995 53.0997 97.5219 53.3404 97.4532 53.5629Z" fill="#FAFAFA"/>
<path d="M96.9616 52.0965L94.8958 51.5051L95.5151 49.3153C95.5843 49.0697 95.7011 48.8401 95.8591 48.6396C96.017 48.4392 96.2129 48.2718 96.4356 48.1471C96.6583 48.0224 96.9033 47.9428 97.1568 47.9129C97.4102 47.883 97.667 47.9033 97.9126 47.9727L98.9755 48.2724L98.0485 51.4971C98.0177 51.6086 97.965 51.7128 97.8933 51.8036C97.8217 51.8944 97.7326 51.9699 97.6313 52.0258C97.5301 52.0816 97.4186 52.1167 97.3036 52.1288C97.1886 52.1409 97.0723 52.1299 96.9616 52.0965Z" fill="#FAFAFA"/>
<path d="M98.9197 53.0635L100.998 53.6588L100.446 55.6128C100.378 55.8591 100.262 56.0893 100.104 56.2903C99.9462 56.4914 99.7502 56.6591 99.5273 56.784C99.3044 56.9088 99.0589 56.9882 98.8051 57.0177C98.5513 57.0471 98.2942 57.0259 98.0486 56.9554L96.9697 56.6518L97.8288 53.6628C97.8605 53.5515 97.914 53.4475 97.9861 53.357C98.0583 53.2665 98.1477 53.1911 98.2491 53.1354C98.3506 53.0796 98.4621 53.0446 98.5772 53.0322C98.6923 53.0199 98.8087 53.0305 98.9197 53.0635Z" fill="#FAFAFA"/>
<path d="M101.733 51.0655L101.106 53.2872L99.0278 52.6919C98.8053 52.6268 98.6175 52.4766 98.5052 52.2738C98.393 52.071 98.3654 51.832 98.4284 51.609L99.3554 48.3843L100.39 48.676C100.635 48.7447 100.865 48.8611 101.065 49.0184C101.265 49.1756 101.432 49.3708 101.557 49.5927C101.681 49.8146 101.761 50.0589 101.791 50.3116C101.822 50.5643 101.802 50.8205 101.733 51.0655Z" fill="#FAFAFA"/>
</svg>
