<svg width="154" height="140" viewBox="0 0 154 140" fill="none" xmlns="http://www.w3.org/2000/svg">
<path d="M63.8706 27.8714C46.9526 29.5494 28.2145 21.1279 13.0614 32.2144C-1.17184 42.6535 -2.58924 63.3459 3.16327 78.1279C17.1951 114.155 64.3128 106.839 93.8255 95.7684C120.914 85.6097 160.12 52.978 143.052 19.6C136.553 6.88681 120.547 -1.85448 106.235 0.336763C86.474 3.35318 84.2827 25.85 63.8706 27.8714Z" fill="#5EC7D6"/>
<path opacity="0.9" d="M63.8706 27.8714C46.9526 29.5494 28.2145 21.1279 13.0614 32.2144C-1.17184 42.6535 -2.58924 63.3459 3.16327 78.1279C17.1951 114.155 64.3128 106.839 93.8255 95.7684C120.914 85.6097 160.12 52.978 143.052 19.6C136.553 6.88681 120.547 -1.85448 106.235 0.336763C86.474 3.35318 84.2827 25.85 63.8706 27.8714Z" fill="#C8F9FF"/>
<path d="M76.5797 140C118.858 140 153.131 137.999 153.131 135.531C153.131 133.062 118.858 131.061 76.5797 131.061C34.3016 131.061 0.0283203 133.062 0.0283203 135.531C0.0283203 137.999 34.3016 140 76.5797 140Z" fill="#F5F5F5"/>
<path d="M63.8945 30.6905C63.9221 35.3691 60.5701 35.3217 60.6372 33.8687C60.7043 32.4158 59.8752 28.9375 60.6372 29.2731C61.3992 29.6086 63.8826 28.6216 63.8945 30.6905Z" fill="#263238"/>
<path d="M61.7861 39.1633C62.248 39.1277 63.1759 39.5581 63.2588 40.7781C63.2804 41.1325 63.384 41.4772 63.5614 41.7848C63.7389 42.0924 63.9853 42.3546 64.2814 42.5508C64.2814 42.5508 62.7455 42.7364 61.7387 41.9388C60.9175 41.2953 60.5543 39.8858 60.9846 39.5699C61.2204 39.3799 61.4935 39.2413 61.7861 39.1633Z" fill="#263238"/>
<path d="M61.1819 35.8389C61.9715 36.5377 62.694 38.3855 60.9134 39.262C59.1328 40.1385 56.3335 38.0972 56.3335 38.0972L59.4091 36.672L61.1819 35.8389Z" fill="#263238"/>
<path d="M62.0586 39.333C62.0151 39.0772 61.9436 38.827 61.8454 38.5868C61.8369 38.564 61.8234 38.5433 61.8058 38.5264C61.7883 38.5095 61.7671 38.4968 61.744 38.4892C61.7208 38.4816 61.6963 38.4794 61.6721 38.4826C61.648 38.4858 61.6249 38.4945 61.6045 38.5079L60.5109 39.2383C60.4889 39.2531 60.4709 39.2731 60.4584 39.2965C60.446 39.3199 60.4395 39.346 60.4395 39.3725C60.4395 39.399 60.446 39.4251 60.4584 39.4485C60.4709 39.4719 60.4889 39.4919 60.5109 39.5068C60.6682 39.6222 60.8377 39.7201 61.0162 39.7989C61.2729 39.9016 61.8059 39.6094 61.9875 39.4831C62.0124 39.4675 62.0324 39.445 62.045 39.4184C62.0576 39.3919 62.0623 39.3622 62.0586 39.333Z" fill="#00A6BF"/>
<path opacity="0.3" d="M62.0586 39.333C62.0151 39.0772 61.9436 38.827 61.8454 38.5868C61.8369 38.564 61.8234 38.5433 61.8058 38.5264C61.7883 38.5095 61.7671 38.4968 61.744 38.4892C61.7208 38.4816 61.6963 38.4794 61.6721 38.4826C61.648 38.4858 61.6249 38.4945 61.6045 38.5079L60.5109 39.2383C60.4889 39.2531 60.4709 39.2731 60.4584 39.2965C60.446 39.3199 60.4395 39.346 60.4395 39.3725C60.4395 39.399 60.446 39.4251 60.4584 39.4485C60.4709 39.4719 60.4889 39.4919 60.5109 39.5068C60.6682 39.6222 60.8377 39.7201 61.0162 39.7989C61.2729 39.9016 61.8059 39.6094 61.9875 39.4831C62.0124 39.4675 62.0324 39.445 62.045 39.4184C62.0576 39.3919 62.0623 39.3622 62.0586 39.333Z" fill="black"/>
<path d="M50.289 37.3945C49.8508 37.2484 48.8479 37.4458 48.4768 38.6145C48.3714 38.9536 48.1889 39.2637 47.9437 39.5205C47.6985 39.7774 47.3972 39.974 47.0634 40.095C47.0634 40.095 48.5123 40.6399 49.681 40.095C50.6286 39.6647 51.2998 38.3776 50.9721 37.967C50.7884 37.729 50.5554 37.5337 50.289 37.3945Z" fill="#263238"/>
<path d="M54.6398 29.3599C53.0408 29.7942 50.889 31.6893 51.8445 34.0148C50.9009 34.6584 49.6927 36.5101 51.1062 37.6945C52.6262 38.9698 56.3651 37.1813 56.3651 37.1813L56.3928 36.5732L56.8389 32.0486L54.6398 29.3599Z" fill="#263238"/>
<path d="M49.9849 37.4971C50.091 37.2581 50.2234 37.0317 50.3797 36.822C50.3953 36.803 50.4148 36.7877 50.437 36.7772C50.4592 36.7667 50.4835 36.7612 50.508 36.7612C50.5326 36.7612 50.5568 36.7667 50.579 36.7772C50.6012 36.7877 50.6208 36.803 50.6363 36.822L51.5207 37.7893C51.5386 37.809 51.5514 37.8327 51.5582 37.8584C51.565 37.884 51.5655 37.911 51.5597 37.9369C51.5539 37.9628 51.5419 37.987 51.5249 38.0073C51.5078 38.0277 51.486 38.0436 51.4615 38.0538C51.2821 38.127 51.0955 38.1812 50.9048 38.2157C50.6284 38.2552 50.202 37.8485 50.0362 37.6827C50.0094 37.661 49.9901 37.6314 49.9809 37.5981C49.9717 37.5649 49.9731 37.5296 49.9849 37.4971Z" fill="#00A6BF"/>
<path opacity="0.3" d="M49.9849 37.4971C50.091 37.2581 50.2234 37.0317 50.3797 36.822C50.3953 36.803 50.4148 36.7877 50.437 36.7772C50.4592 36.7667 50.4835 36.7612 50.508 36.7612C50.5326 36.7612 50.5568 36.7667 50.579 36.7772C50.6012 36.7877 50.6208 36.803 50.6363 36.822L51.5207 37.7893C51.5386 37.809 51.5514 37.8327 51.5582 37.8584C51.565 37.884 51.5655 37.911 51.5597 37.9369C51.5539 37.9628 51.5419 37.987 51.5249 38.0073C51.5078 38.0277 51.486 38.0436 51.4615 38.0538C51.2821 38.127 51.0955 38.1812 50.9048 38.2157C50.6284 38.2552 50.202 37.8485 50.0362 37.6827C50.0094 37.661 49.9901 37.6314 49.9809 37.5981C49.9717 37.5649 49.9731 37.5296 49.9849 37.4971Z" fill="black"/>
<path d="M64.3721 45.8397C65.1262 46.424 65.9513 47.0478 66.7804 47.6163C67.6096 48.1849 68.4426 48.7574 69.2994 49.2825C70.1562 49.8076 71.0248 50.2972 71.9012 50.763L72.5606 51.0986L73.2318 51.4105C73.4529 51.5171 73.6779 51.6119 73.9069 51.6988L74.2425 51.837C74.357 51.8804 74.4794 51.9357 74.5505 51.9554C74.9631 52.0818 75.3858 52.173 75.8139 52.2278C76.2798 52.2949 76.7694 52.3423 77.2668 52.3779C78.2578 52.441 79.2765 52.4687 80.2991 52.4726C81.3216 52.4766 82.3561 52.4726 83.3865 52.441C84.417 52.4094 85.4593 52.3858 86.4859 52.3542L86.6793 53.9058C84.6057 54.324 82.5116 54.6337 80.4057 54.8336C79.3436 54.9284 78.2776 54.9995 77.1879 55.0073C76.643 55.0073 76.0903 55.0074 75.5217 54.956C74.9104 54.92 74.3044 54.8208 73.7135 54.6599C73.5319 54.6125 73.4174 54.5652 73.2831 54.5217L72.8883 54.3835C72.6238 54.2967 72.3632 54.2019 72.0987 54.0953L71.3327 53.7874L70.5826 53.4557C69.5913 53.0086 68.6252 52.5077 67.6885 51.9554C66.7568 51.4066 65.8408 50.8381 64.9564 50.23C64.072 49.622 63.2192 48.9943 62.3506 48.2559L64.3721 45.8397Z" fill="#E4897B"/>
<path d="M60.2738 44.0669C61.2569 43.301 65.3038 45.8081 66.5356 46.8543L65.6394 52.2752C65.6394 52.2752 59.8158 49.8352 59.4644 48.1691C59.1012 46.4279 59.5315 44.6512 60.2738 44.0669Z" fill="#263238"/>
<path d="M86.0555 52.4884L88.4955 50.5972L88.689 53.5228C88.689 53.5228 87.007 54.5651 85.8976 53.9176L86.0555 52.4884Z" fill="#E4897B"/>
<path d="M90.6711 50.309L91.9187 51.6988L88.6733 53.5228L88.4799 50.5972L90.6711 50.309Z" fill="#E4897B"/>
<path d="M44.3153 131.673L47.3909 131.902L48.5122 124.823L45.4405 124.594L44.3153 131.673Z" fill="#E4897B"/>
<path d="M22.5569 121.779L25.1666 123.422L29.8137 117.91L27.2039 116.263L22.5569 121.779Z" fill="#E4897B"/>
<path d="M25.9917 122.833L23.5478 120.374C23.506 120.331 23.4501 120.305 23.3904 120.3C23.3308 120.296 23.2716 120.314 23.224 120.35L21.0012 122.012C20.947 122.056 20.9026 122.111 20.8709 122.173C20.8392 122.235 20.8208 122.303 20.8171 122.372C20.8134 122.442 20.8243 122.512 20.8493 122.577C20.8742 122.642 20.9125 122.701 20.9617 122.75C21.8264 123.591 22.2883 123.955 23.3622 125.036C24.0216 125.704 24.9178 126.742 25.8298 127.662C26.7419 128.582 27.6973 127.725 27.4091 127.267C26.0746 125.186 26.3155 124.409 26.2247 123.35C26.2113 123.156 26.1286 122.972 25.9917 122.833Z" fill="#263238"/>
<path d="M47.5963 131.46H44.1298C44.0688 131.46 44.0098 131.481 43.9629 131.52C43.916 131.559 43.8842 131.613 43.8732 131.673L43.3244 134.413C43.3117 134.483 43.3149 134.554 43.3339 134.622C43.3528 134.69 43.387 134.753 43.4338 134.806C43.4805 134.859 43.5387 134.9 43.6039 134.927C43.669 134.954 43.7395 134.966 43.81 134.962C45.0181 134.942 45.6064 134.871 47.1304 134.871C48.0661 134.871 50.6838 134.966 51.9906 134.966C53.2975 134.966 53.4278 133.687 52.8948 133.572C50.5061 133.051 48.8953 132.337 48.1175 131.65C47.9737 131.523 47.7877 131.456 47.5963 131.46Z" fill="#263238"/>
<path d="M48.5122 124.823L47.8884 128.756L44.8562 128.246L45.4366 124.598L48.5122 124.823Z" fill="#CE6F64"/>
<path d="M27.2038 116.267L29.8135 117.91L27.8908 120.192L25.2218 118.617L27.2038 116.267Z" fill="#CE6F64"/>
<path d="M46.6526 60.4716L58.9472 62.8682C65.2999 45.6659 63.918 45.1013 63.918 45.1013C63.0246 44.6104 62.1015 44.1752 61.1543 43.7984L60.9885 43.7353C60.1988 43.447 60.0409 43.4036 58.9907 43.0956C57.1824 42.6653 55.4965 42.306 53.4079 42.0099L53.0131 41.9546C52.6183 41.9072 52.259 41.8678 51.8958 41.8322C51.651 41.8046 51.4062 41.7888 51.1733 41.773L50.3836 41.7296C49.0333 41.6625 48.066 41.6822 48.066 41.6822C48.4411 52.4252 47.8331 55.5088 46.6526 60.4716Z" fill="#263238"/>
<path d="M55.1847 35.8389C55.1847 37.7024 54.8965 41.0623 53.4041 42.0178C53.4041 42.0178 53.5422 43.9366 56.8785 44.5841C60.5503 45.2987 58.9868 43.1035 58.9868 43.1035C57.0798 42.2349 57.4075 40.7583 58.0392 39.4317L55.1847 35.8389Z" fill="#E4897B"/>
<path d="M56.3494 37.3037L58.0392 39.4317C57.8912 39.7393 57.7696 40.059 57.676 40.3872C56.9298 40.1266 56.0414 39.0843 56.0967 38.267C56.1219 37.9333 56.2075 37.6068 56.3494 37.3037Z" fill="#CE6F64"/>
<path d="M55.007 31.5591C54.6121 34.5952 54.3713 35.8705 55.5873 37.7064C57.4153 40.4701 61.2293 40.2924 62.5283 37.4379C63.7127 34.8676 64.1549 30.3312 61.4504 28.5742C60.8566 28.1821 60.1725 27.9482 59.4629 27.895C58.7534 27.8417 58.042 27.9707 57.3963 28.2698C56.7507 28.5689 56.1922 29.0281 55.774 29.6038C55.3558 30.1795 55.0918 30.8526 55.007 31.5591Z" fill="#E4897B"/>
<path d="M64.8894 26.7502C64.9446 27.2316 64.9084 27.7192 64.7828 28.1873C64.7541 28.0285 64.7158 27.8716 64.6683 27.7175C63.5865 24.1404 58.7145 24.9932 57.2457 26.533C54.8768 25.8539 52.6224 26.3948 52.9225 29.2967C52.9599 30.0444 53.229 30.7619 53.6924 31.3498C53.3252 32.3684 53.6924 33.9911 54.9045 34.0385C56.6101 34.1056 58.2288 31.8473 58.8803 30.6075C60.0647 30.8089 61.7704 31.0024 63.0654 30.6865C63.2825 30.8168 63.4602 30.9076 63.4602 30.9076C64.8381 30.1693 65.8883 29.4547 64.8894 26.7502Z" fill="#263238"/>
<path d="M53.9569 33.6319C53.9085 34.221 54.0944 34.8055 54.4741 35.2585C54.9873 35.8547 55.6585 35.5033 55.8994 34.7966C56.1007 34.157 56.0731 33.0791 55.3861 32.7435C55.2347 32.6724 55.068 32.6402 54.901 32.65C54.7341 32.6597 54.5722 32.7111 54.4301 32.7994C54.2881 32.8877 54.1704 33.0101 54.0877 33.1555C54.0051 33.3009 53.9601 33.4646 53.9569 33.6319Z" fill="#E4897B"/>
<path d="M58.7617 62.8682C58.7617 62.8682 58.8091 87.2759 56.8113 96.4673C54.7345 106.03 48.6267 127.784 48.6267 127.784L44.2047 127.212C44.2047 127.212 47.6673 105.236 49.1399 95.7329C50.7469 85.3768 49.7638 61.1152 49.7638 61.1152L58.7617 62.8682Z" fill="#00A6BF"/>
<path opacity="0.3" d="M58.7617 62.8682C58.7617 62.8682 58.8091 87.2759 56.8113 96.4673C54.7345 106.03 48.6267 127.784 48.6267 127.784L44.2047 127.212C44.2047 127.212 47.6673 105.236 49.1399 95.7329C50.7469 85.3768 49.7638 61.1152 49.7638 61.1152L58.7617 62.8682Z" fill="black"/>
<path d="M49.3809 128.167L43.4468 127.401L43.6995 125.301L50.4351 126.091L49.3809 128.167Z" fill="#263238"/>
<path d="M55.7019 62.2365C55.7019 62.2365 49.0808 82.4078 45.7919 94.0273C42.3254 106.286 29.0358 119.845 29.0358 119.845L25.2258 117.641C25.2258 117.641 34.3067 104.77 37.6429 93.3324C44.4377 70.1131 41.6463 65.1937 46.6526 60.4716L55.7019 62.2365Z" fill="#00A6BF"/>
<path opacity="0.3" d="M55.7019 62.2365C55.7019 62.2365 49.0808 82.4078 45.7919 94.0273C42.3254 106.286 29.0358 119.845 29.0358 119.845L25.2258 117.641C25.2258 117.641 34.3067 104.77 37.6429 93.3324C44.4377 70.1131 41.6463 65.1937 46.6526 60.4716L55.7019 62.2365Z" fill="black"/>
<path d="M29.6556 120.456L24.3611 117.401L25.6798 115.513L31.5586 118.755L29.6556 120.456Z" fill="#263238"/>
<path d="M59.3894 33.2844C59.342 33.5292 59.4328 33.7503 59.5947 33.7819C59.7566 33.8135 59.9224 33.6397 59.9895 33.3871C60.0566 33.1344 59.9461 32.9172 59.7842 32.8856C59.6223 32.854 59.4368 33.0396 59.3894 33.2844Z" fill="#263238"/>
<path d="M62.1493 33.8214C62.1019 34.0662 62.1927 34.2912 62.3546 34.3228C62.5164 34.3544 62.6823 34.1806 62.7296 33.928C62.777 33.6753 62.6862 33.4581 62.5243 33.4305C62.3625 33.4029 62.1966 33.5726 62.1493 33.8214Z" fill="#263238"/>
<path d="M62.4531 33.4344L63.073 33.3831C63.073 33.3831 62.6821 33.7819 62.4531 33.4344Z" fill="#263238"/>
<path d="M61.3399 34.1017C61.4488 34.7003 61.6401 35.2809 61.9084 35.827C61.7669 35.8933 61.6126 35.9276 61.4563 35.9276C61.3001 35.9276 61.1458 35.8933 61.0043 35.827L61.3399 34.1017Z" fill="#DE5753"/>
<path d="M59.9699 36.6167C59.6399 36.5627 59.3278 36.4296 59.0604 36.2288C58.793 36.0281 58.5781 35.7656 58.434 35.4638C58.4302 35.455 58.4282 35.4455 58.4281 35.436C58.428 35.4264 58.4299 35.4169 58.4336 35.408C58.4373 35.3991 58.4427 35.3911 58.4496 35.3844C58.4564 35.3777 58.4646 35.3725 58.4735 35.369C58.4914 35.3624 58.5111 35.3627 58.5287 35.37C58.5463 35.3774 58.5605 35.3911 58.5683 35.4085C58.7062 35.6859 58.9074 35.9269 59.1557 36.1121C59.404 36.2973 59.6924 36.4214 59.9975 36.4745C60.0069 36.476 60.0159 36.4793 60.024 36.4842C60.0321 36.4892 60.0391 36.4958 60.0447 36.5035C60.0502 36.5112 60.0541 36.52 60.0562 36.5292C60.0582 36.5385 60.0584 36.5481 60.0568 36.5575C60.0529 36.5767 60.0417 36.5937 60.0254 36.6048C60.0092 36.6159 59.9892 36.6202 59.9699 36.6167Z" fill="#263238"/>
<path d="M58.7617 32.2342C58.7325 32.2339 58.7041 32.225 58.68 32.2084C58.656 32.1918 58.6375 32.1685 58.6268 32.1413C58.6162 32.1141 58.614 32.0843 58.6204 32.0558C58.6269 32.0274 58.6417 32.0015 58.663 31.9815C58.8324 31.8228 59.0371 31.7067 59.2602 31.6428C59.4834 31.5789 59.7185 31.5692 59.9462 31.6143C59.9835 31.6254 60.0151 31.6505 60.0342 31.6844C60.0534 31.7182 60.0586 31.7583 60.0488 31.7959C60.0387 31.833 60.0143 31.8645 59.9811 31.8837C59.9478 31.9029 59.9083 31.9083 59.8712 31.8986C59.6904 31.8665 59.5046 31.8769 59.3285 31.929C59.1524 31.9811 58.9908 32.0734 58.8565 32.1986C58.8303 32.2217 58.7966 32.2344 58.7617 32.2342Z" fill="#263238"/>
<path d="M63.6812 32.783C63.6523 32.7833 63.6239 32.7748 63.5999 32.7586C63.5759 32.7424 63.5575 32.7192 63.547 32.6922C63.4793 32.5212 63.3727 32.3683 63.2356 32.2456C63.0986 32.1229 62.9348 32.0339 62.7574 31.9855C62.7384 31.9821 62.7203 31.9751 62.7041 31.9647C62.6879 31.9544 62.6739 31.9409 62.6629 31.9252C62.6519 31.9094 62.6441 31.8916 62.64 31.8728C62.6359 31.854 62.6355 31.8346 62.6389 31.8157C62.6474 31.7784 62.6695 31.7456 62.7009 31.7237C62.7323 31.7018 62.7707 31.6924 62.8087 31.6972C63.0339 31.7535 63.2424 31.8627 63.4168 32.0159C63.5913 32.169 63.7266 32.3617 63.8115 32.5777C63.8193 32.5955 63.8234 32.6148 63.8236 32.6342C63.8238 32.6537 63.8201 32.673 63.8128 32.691C63.8054 32.7091 63.7945 32.7254 63.7807 32.7392C63.767 32.7529 63.7506 32.7638 63.7326 32.7712L63.6812 32.783Z" fill="#263238"/>
<path d="M59.7211 35.448C59.5989 35.4485 59.4782 35.4205 59.3685 35.3664C59.2589 35.3123 59.1634 35.2335 59.0894 35.1361C58.9037 34.8465 58.7798 34.5217 58.7255 34.182C58.6711 33.8423 58.6875 33.4951 58.7735 33.162C58.9986 31.9144 59.7803 30.8997 60.5186 30.8997C60.6415 30.9012 60.7625 30.9303 60.8726 30.985C60.9826 31.0397 61.0789 31.1185 61.1543 31.2156C61.3393 31.5054 61.4628 31.8302 61.5172 32.1698C61.5715 32.5094 61.5555 32.8565 61.4702 33.1897C61.2451 34.4373 60.4594 35.448 59.7211 35.448ZM60.5107 31.0103C59.8198 31.0103 59.0776 31.9894 58.8604 33.1897C58.7222 33.9793 58.8328 34.69 59.1565 35.0729C59.2223 35.1582 59.3066 35.2273 59.4031 35.2752C59.4995 35.3231 59.6055 35.3484 59.7132 35.3493C60.4081 35.3493 61.1464 34.3741 61.3636 33.1739H61.4109H61.3636C61.4473 32.8566 61.4643 32.5253 61.4133 32.2011C61.3623 31.8769 61.2446 31.5669 61.0674 31.2906C61.0027 31.2059 60.9198 31.1367 60.8248 31.0882C60.7298 31.0397 60.6252 31.0131 60.5186 31.0103H60.5107Z" fill="#FAFAFA"/>
<path d="M62.7889 35.8428C62.6612 35.8402 62.5357 35.809 62.4217 35.7516C62.3076 35.6943 62.2078 35.6121 62.1295 35.5112C61.9523 35.2454 61.8323 34.9456 61.7772 34.6308C61.7222 34.3161 61.7332 33.9934 61.8097 33.6832C62.0111 32.5224 62.7691 31.5827 63.4995 31.5827C63.6275 31.5859 63.7532 31.6176 63.8673 31.6757C63.9814 31.7338 64.081 31.8167 64.1589 31.9183C64.3349 32.184 64.4542 32.4831 64.5093 32.797C64.5643 33.1108 64.5539 33.4327 64.4787 33.7424C64.2813 34.9071 63.5232 35.8428 62.7889 35.8428ZM63.4877 31.6814C62.8007 31.6814 62.09 32.5856 61.9084 33.7029C61.8374 33.9989 61.8273 34.3063 61.8789 34.6063C61.9305 34.9063 62.0426 35.1927 62.2085 35.448C62.2779 35.5375 62.3664 35.6105 62.4674 35.6617C62.5684 35.7129 62.6796 35.741 62.7928 35.7441C63.4798 35.7441 64.1944 34.8439 64.3721 33.7266C64.4428 33.4308 64.453 33.1237 64.4021 32.8238C64.3512 32.524 64.2403 32.2374 64.076 31.9815C64.0069 31.8913 63.9187 31.8175 63.8176 31.7656C63.7166 31.7137 63.6052 31.685 63.4917 31.6814H63.4877Z" fill="#FAFAFA"/>
<path d="M26.8999 124.266C26.5051 124.266 26.0905 123.658 25.8773 123.307C25.8695 123.295 25.8654 123.282 25.8654 123.268C25.8654 123.254 25.8695 123.24 25.8773 123.228C25.8861 123.217 25.8976 123.208 25.9107 123.202C25.9238 123.197 25.9382 123.195 25.9523 123.197C26.0787 123.224 27.1644 123.461 27.3026 123.832C27.3183 123.873 27.3226 123.917 27.3149 123.961C27.3073 124.004 27.288 124.044 27.2592 124.077C27.2203 124.136 27.1669 124.185 27.1041 124.218C27.0412 124.251 26.971 124.268 26.8999 124.266ZM26.0747 123.378C26.3788 123.836 26.6749 124.109 26.8881 124.12C26.9354 124.121 26.9821 124.109 27.0235 124.086C27.065 124.063 27.0999 124.03 27.125 123.99C27.1383 123.976 27.1473 123.959 27.1508 123.94C27.1543 123.921 27.1522 123.901 27.1447 123.883C27.0736 123.686 26.509 123.489 26.0747 123.378Z" fill="#00A6BF"/>
<path d="M26.2524 123.378C26.1328 123.38 26.0134 123.367 25.8971 123.339C25.8852 123.335 25.8744 123.328 25.8655 123.319C25.8566 123.31 25.8499 123.299 25.8458 123.287C25.8366 123.265 25.8366 123.239 25.8458 123.216C25.8734 123.193 26.4775 122.596 26.9236 122.596H26.9552C27.0105 122.6 27.0643 122.615 27.1133 122.641C27.1623 122.667 27.2053 122.703 27.2395 122.746C27.2797 122.789 27.3047 122.843 27.3105 122.901C27.3162 122.959 27.3023 123.017 27.2711 123.066C27.1447 123.279 26.6394 123.378 26.2524 123.378ZM26.0748 123.224C26.4459 123.268 27.046 123.161 27.1684 122.983C27.1882 122.956 27.204 122.912 27.1447 122.837C27.1241 122.808 27.0969 122.784 27.0653 122.768C27.0338 122.751 26.9987 122.743 26.9631 122.742C26.6244 122.807 26.314 122.976 26.0748 123.224Z" fill="#00A6BF"/>
<path d="M48.7295 132.001C48.4027 131.992 48.0775 131.952 47.7582 131.883C47.743 131.879 47.7292 131.872 47.7186 131.86C47.708 131.849 47.7011 131.835 47.699 131.819C47.6972 131.804 47.7001 131.789 47.7071 131.776C47.7142 131.762 47.7251 131.751 47.7385 131.744C47.8846 131.673 49.1519 131.042 49.5191 131.255C49.5525 131.276 49.5802 131.305 49.5995 131.339C49.6188 131.374 49.6292 131.413 49.6297 131.452C49.6342 131.519 49.6226 131.586 49.5958 131.647C49.5689 131.708 49.5278 131.762 49.4757 131.804C49.256 131.951 48.9933 132.02 48.7295 132.001ZM48.0069 131.788C48.6821 131.898 49.1914 131.871 49.3888 131.701C49.4224 131.672 49.4489 131.635 49.466 131.594C49.4831 131.553 49.4905 131.508 49.4875 131.464C49.4883 131.449 49.485 131.434 49.4781 131.421C49.4711 131.408 49.4608 131.397 49.448 131.389C49.2506 131.275 48.5479 131.543 48.0069 131.788Z" fill="#00A6BF"/>
<path d="M47.7778 131.883C47.7636 131.887 47.7486 131.887 47.7344 131.883C47.7228 131.875 47.7136 131.864 47.708 131.852C47.7024 131.839 47.7006 131.825 47.7028 131.811C47.7028 131.756 47.8923 130.501 48.5793 130.501H48.6385C48.8359 130.52 48.8912 130.619 48.9031 130.702C48.9583 131.049 48.1924 131.721 47.8055 131.886L47.7778 131.883ZM48.5675 130.635C48.1213 130.635 47.9239 131.361 47.8568 131.677C48.2516 131.444 48.7767 130.919 48.7451 130.71C48.7451 130.71 48.7451 130.647 48.607 130.635H48.5675Z" fill="#00A6BF"/>
<path d="M59.6935 32.8975L60.3133 32.8422C60.3133 32.8422 59.9225 33.2449 59.6935 32.8975Z" fill="#263238"/>
<path d="M56.981 47.2097C51.8483 45.2632 50.2454 42.3494 50.3678 41.7375L51.1574 41.7849H51.2916C51.4811 41.7849 51.6865 41.8125 51.8799 41.8362C52.2432 41.8678 52.6182 41.9072 52.9973 41.9586L53.3921 42.0139C55.2765 42.242 57.1422 42.6049 58.9748 43.0996C59.8118 43.3444 60.0882 43.4234 60.5541 43.5892L60.9687 43.7392L61.1345 43.8024C61.5451 44.6868 61.4543 46.495 56.981 47.2097Z" fill="#E4897B"/>
<path d="M56.981 47.2097C51.8483 45.2632 50.2454 42.3494 50.3678 41.7375L51.1574 41.7849H51.2916C52.334 43.2654 54.616 45.3106 56.9415 45.5909C58.8129 45.1961 60.5778 44.746 60.562 43.5892L60.9765 43.7392L61.1424 43.8024C61.5451 44.6868 61.4543 46.495 56.981 47.2097Z" fill="#00A6BF"/>
<path opacity="0.3" d="M56.981 47.2097C51.8483 45.2632 50.2454 42.3494 50.3678 41.7375L51.1574 41.7849H51.2916C52.334 43.2654 54.616 45.3106 56.9415 45.5909C58.8129 45.1961 60.5778 44.746 60.562 43.5892L60.9765 43.7392L61.1424 43.8024C61.5451 44.6868 61.4543 46.495 56.981 47.2097Z" fill="black"/>
<path d="M46.6091 59.7136L45.8195 60.7085C45.7603 60.7835 45.8471 60.8901 45.9893 60.9178L58.8841 63.4288C58.9946 63.4525 59.0973 63.4288 59.117 63.3459L59.4408 62.268C59.4644 62.193 59.3815 62.1101 59.2591 62.0864L46.8066 59.6622C46.7719 59.655 46.7361 59.6558 46.7018 59.6647C46.6676 59.6736 46.6358 59.6903 46.6091 59.7136Z" fill="#263238"/>
<path d="M48.0109 61.431L47.6793 61.3679C47.6121 61.3679 47.5687 61.3126 47.5806 61.2692L48.0149 59.8715C48.0149 59.8281 48.0938 59.8083 48.157 59.8202L48.4926 59.8834C48.5597 59.8834 48.6031 59.9426 48.5913 59.9821L48.157 61.3837C48.1412 61.4065 48.1184 61.4235 48.092 61.4321C48.0656 61.4407 48.0371 61.4403 48.0109 61.431Z" fill="#00A6BF"/>
<path opacity="0.3" d="M48.0109 61.431L47.6793 61.3679C47.6121 61.3679 47.5687 61.3126 47.5806 61.2692L48.0149 59.8715C48.0149 59.8281 48.0938 59.8083 48.157 59.8202L48.4926 59.8834C48.5597 59.8834 48.6031 59.9426 48.5913 59.9821L48.157 61.3837C48.1412 61.4065 48.1184 61.4235 48.092 61.4321C48.0656 61.4407 48.0371 61.4403 48.0109 61.431Z" fill="black"/>
<path d="M48.8874 46.4477C48.7374 47.3834 48.5952 48.4218 48.4926 49.393C48.3899 50.3643 48.2991 51.3671 48.2518 52.3778C48.2254 52.8753 48.2096 53.3728 48.2044 53.8703C48.2044 54.3638 48.2044 54.8573 48.2044 55.3508C48.2239 56.3177 48.299 57.2826 48.4294 58.2409C48.5039 58.569 48.6377 58.8808 48.8242 59.1608C49.0606 59.5453 49.3245 59.9121 49.6139 60.2584C50.2451 61.0071 50.9201 61.7177 51.6354 62.3865C52.3579 63.0814 53.1159 63.7526 53.8937 64.408C54.6715 65.0634 55.473 65.7148 56.2626 66.3426L55.4138 67.6534C53.5557 66.635 51.779 65.4747 50.0995 64.1829C49.2325 63.5188 48.4144 62.7931 47.6516 62.0114C47.2449 61.5922 46.8714 61.1421 46.5343 60.6651C46.1172 60.1009 45.8203 59.4573 45.6617 58.7739L45.5157 57.9369C45.4643 57.6645 45.4288 57.392 45.3972 57.1236C45.3182 56.5787 45.2748 56.0378 45.2314 55.4969C45.1493 54.4211 45.1242 53.3418 45.1564 52.2633C45.188 51.1934 45.2472 50.1274 45.3538 49.0653C45.4604 48.0032 45.5946 46.9609 45.8078 45.8633L48.8874 46.4477Z" fill="#E4897B"/>
<path d="M46.2657 42.5074C44.5759 43.8734 44.9786 47.9322 44.9786 47.9322L50.664 49.8036C50.664 49.8036 50.4034 45.125 50.127 43.4431C49.7875 41.4414 47.924 41.161 46.2657 42.5074Z" fill="#263238"/>
<path d="M55.5676 66.0899L58.1379 65.1344L57.7431 67.5784C57.7431 67.5784 55.8795 68.2496 54.9241 67.3889L55.5676 66.0899Z" fill="#E4897B"/>
<path d="M61.1978 65.4977V67.3849L57.7432 67.5784L58.138 65.1344L61.1978 65.4977Z" fill="#E4897B"/>
<path d="M57.9406 63.3657L57.6089 63.3025C57.5418 63.3025 57.4984 63.2472 57.5102 63.2038L57.9445 61.8061C57.9445 61.7627 58.0235 61.7429 58.0906 61.7548L58.4223 61.818C58.4894 61.818 58.5328 61.8772 58.521 61.9167L58.0867 63.3183C58.0748 63.3578 58.0235 63.3814 57.9406 63.3657Z" fill="#00A6BF"/>
<path opacity="0.3" d="M57.9406 63.3657L57.6089 63.3025C57.5418 63.3025 57.4984 63.2472 57.5102 63.2038L57.9445 61.8061C57.9445 61.7627 58.0235 61.7429 58.0906 61.7548L58.4223 61.818C58.4894 61.818 58.5328 61.8772 58.521 61.9167L58.0867 63.3183C58.0748 63.3578 58.0235 63.3814 57.9406 63.3657Z" fill="black"/>
<path d="M52.9777 62.3944L52.6421 62.3312C52.5749 62.3312 52.5315 62.276 52.5473 62.2325L52.9816 60.8349C52.9816 60.7915 53.0566 60.7717 53.1237 60.7836L53.4593 60.8467C53.5225 60.8467 53.5699 60.9059 53.5541 60.9454L53.1198 62.347C53.108 62.3944 53.0448 62.4142 52.9777 62.3944Z" fill="#00A6BF"/>
<path opacity="0.3" d="M52.9777 62.3944L52.6421 62.3312C52.5749 62.3312 52.5315 62.276 52.5473 62.2325L52.9816 60.8349C52.9816 60.7915 53.0566 60.7717 53.1237 60.7836L53.4593 60.8467C53.5225 60.8467 53.5699 60.9059 53.5541 60.9454L53.1198 62.347C53.108 62.3944 53.0448 62.4142 52.9777 62.3944Z" fill="black"/>
<path d="M27.8316 85.4163L48.299 130.118C48.7682 131.134 49.6203 131.923 50.6692 132.312C51.7182 132.702 52.8787 132.661 53.8975 132.198L57.1469 130.714L132.388 96.2659C133.404 95.7982 134.194 94.9472 134.584 93.8988C134.975 92.8504 134.935 91.69 134.472 90.6713L116.386 51.1894L114.017 45.9739C113.547 44.9587 112.694 44.1703 111.646 43.7806C110.597 43.3909 109.437 43.4313 108.418 43.8932L29.9241 79.8217C28.9078 80.2896 28.1176 81.1401 27.7256 82.188C27.3337 83.236 27.3718 84.3963 27.8316 85.4163Z" fill="#00A6BF"/>
<path opacity="0.1" d="M27.8316 85.4163L48.299 130.118C48.7682 131.134 49.6203 131.923 50.6692 132.312C51.7182 132.702 52.8787 132.661 53.8975 132.198L57.1469 130.714L132.388 96.2659C133.404 95.7982 134.194 94.9472 134.584 93.8988C134.975 92.8504 134.935 91.69 134.472 90.6713L116.386 51.1894L114.017 45.9739C113.547 44.9587 112.694 44.1703 111.646 43.7806C110.597 43.3909 109.437 43.4313 108.418 43.8932L29.9241 79.8217C28.9078 80.2896 28.1176 81.1401 27.7256 82.188C27.3337 83.236 27.3718 84.3963 27.8316 85.4163Z" fill="white"/>
<path d="M46.2239 125.585L132.394 86.1332L122.309 64.106L36.139 103.558L46.2239 125.585Z" fill="#00A6BF"/>
<path opacity="0.3" d="M46.2239 125.585L132.394 86.1332L122.309 64.106L36.139 103.558L46.2239 125.585Z" fill="white"/>
<path d="M67.8957 107.109L122.35 82.1784L118.741 74.2951L64.2865 99.2262L67.8957 107.109Z" fill="#00A6BF"/>
<path opacity="0.8" d="M67.8957 107.109L122.35 82.1784L118.741 74.2951L64.2865 99.2262L67.8957 107.109Z" fill="white"/>
<path d="M38.0629 107.769L124.233 68.3167L118.852 56.5635L32.6819 96.0154L38.0629 107.769Z" fill="#00A6BF"/>
<path opacity="0.3" d="M38.0629 107.769L124.233 68.3167L118.852 56.5635L32.6819 96.0154L38.0629 107.769Z" fill="black"/>
<g style="mix-blend-mode:multiply">
<path d="M39.5341 85.9769L57.1469 130.698L132.388 96.2501C133.404 95.7824 134.194 94.9314 134.584 93.883C134.975 92.8346 134.935 91.6742 134.472 90.6555L116.386 51.1736L41.9188 80.5008C40.8786 80.9135 40.044 81.7211 39.5972 82.7471C39.1504 83.7731 39.1277 84.9342 39.5341 85.9769Z" fill="#00A6BF"/>
</g>
<path d="M139.123 71.8413L138.751 71.9722L139.367 73.7267L139.74 73.5958L139.123 71.8413Z" fill="#00A6BF"/>
<path opacity="0.1" d="M139.123 71.8413L138.751 71.9722L139.367 73.7267L139.74 73.5958L139.123 71.8413Z" fill="white"/>
<path d="M136.012 63.0189L135.639 63.1497L138.067 70.0636L138.44 69.9328L136.012 63.0189Z" fill="#00A6BF"/>
<path opacity="0.1" d="M136.012 63.0189L135.639 63.1497L138.067 70.0636L138.44 69.9328L136.012 63.0189Z" fill="white"/>
<path d="M44.7733 80.6548L126.224 52.0502C127.281 51.6824 128.44 51.748 129.449 52.2326C130.457 52.7172 131.233 53.5814 131.606 54.6362L147.896 101.023C148.264 102.08 148.199 103.24 147.715 104.249C147.232 105.258 146.368 106.034 145.314 106.409L63.8628 135.013C62.8055 135.38 61.6461 135.314 60.6374 134.83C59.6286 134.345 58.8522 133.482 58.4774 132.427L42.1872 86.0401C41.8193 84.9829 41.8848 83.8231 42.3694 82.814C42.854 81.805 43.7182 81.0287 44.7733 80.6548Z" fill="#00A6BF"/>
<path opacity="0.1" d="M44.7733 80.6548L126.224 52.0502C127.281 51.6824 128.44 51.748 129.449 52.2326C130.457 52.7172 131.233 53.5814 131.606 54.6362L147.896 101.023C148.264 102.08 148.199 103.24 147.715 104.249C147.232 105.258 146.368 106.034 145.314 106.409L63.8628 135.013C62.8055 135.38 61.6461 135.314 60.6374 134.83C59.6286 134.345 58.8522 133.482 58.4774 132.427L42.1872 86.0401C41.8193 84.9829 41.8848 83.8231 42.3694 82.814C42.854 81.805 43.7182 81.0287 44.7733 80.6548Z" fill="white"/>
<path d="M55.509 123.968L144.928 92.5668L137.841 72.3876L48.4226 103.789L55.509 123.968Z" fill="#00A6BF"/>
<path opacity="0.3" d="M55.509 123.968L144.928 92.5668L137.841 72.3876L48.4226 103.789L55.509 123.968Z" fill="white"/>
<path d="M109.665 71.9397L128.149 65.4484L127.138 62.5689L108.654 69.0601L109.665 71.9397Z" fill="#00A6BF"/>
<path opacity="0.8" d="M109.665 71.9397L128.149 65.4484L127.138 62.5689L108.654 69.0601L109.665 71.9397Z" fill="white"/>
<path d="M125.221 104.543L140.051 99.3354L139.522 97.8305L124.692 103.038L125.221 104.543Z" fill="#00A6BF"/>
<path opacity="0.8" d="M125.221 104.543L140.051 99.3354L139.522 97.8305L124.692 103.038L125.221 104.543Z" fill="white"/>
<path d="M121.951 108.927L141.061 102.216L140.532 100.711L121.422 107.422L121.951 108.927Z" fill="#00A6BF"/>
<path opacity="0.8" d="M121.951 108.927L141.061 102.216L140.532 100.711L121.422 107.422L121.951 108.927Z" fill="white"/>
<path d="M63.974 129.287L73.5291 125.932L72.3922 122.695L62.8372 126.05L63.974 129.287Z" fill="#00A6BF"/>
<path opacity="0.8" d="M63.974 129.287L73.5291 125.932L72.3922 122.695L62.8372 126.05L63.974 129.287Z" fill="white"/>
<path d="M123.481 94.967L134.638 91.0503C135.226 90.841 135.708 90.4079 135.979 89.8453C136.249 89.2827 136.287 88.636 136.083 88.0458C135.874 87.4576 135.441 86.9758 134.878 86.7052C134.315 86.4346 133.669 86.3971 133.079 86.6007L121.917 90.5213C121.329 90.7306 120.847 91.1637 120.576 91.7263C120.306 92.289 120.268 92.9357 120.472 93.5259C120.682 94.1143 121.116 94.5958 121.68 94.8657C122.243 95.1356 122.89 95.172 123.481 94.967Z" fill="#00A6BF"/>
<path d="M104.367 101.679L115.529 97.7583C116.113 97.5481 116.591 97.1172 116.86 96.5584C117.13 95.9995 117.169 95.3572 116.97 94.7695C116.76 94.1821 116.326 93.7012 115.764 93.4314C115.201 93.1616 114.555 93.1246 113.965 93.3284L102.808 97.249C102.22 97.4583 101.738 97.8914 101.467 98.454C101.197 99.0167 101.159 99.6634 101.363 100.254C101.576 100.838 102.011 101.315 102.573 101.582C103.135 101.849 103.78 101.884 104.367 101.679Z" fill="#00A6BF"/>
<path d="M85.2661 108.391L96.4276 104.47C97.01 104.258 97.4861 103.827 97.754 103.268C98.0219 102.71 98.0603 102.068 97.8608 101.481C97.6507 100.894 97.2173 100.413 96.6548 100.143C96.0922 99.8735 95.4459 99.8365 94.8563 100.04L83.6868 103.945C83.0994 104.155 82.6185 104.589 82.3487 105.151C82.0789 105.714 82.0419 106.36 82.2458 106.95C82.4557 107.541 82.8917 108.025 83.4579 108.295C84.0242 108.565 84.6745 108.6 85.2661 108.391Z" fill="#00A6BF"/>
<path d="M66.1449 115.103L77.3064 111.182C77.8909 110.973 78.3698 110.542 78.6401 109.983C78.9103 109.424 78.9503 108.782 78.7515 108.193C78.5414 107.606 78.108 107.125 77.5454 106.855C76.9829 106.585 76.3366 106.548 75.7469 106.752L64.5854 110.673C63.9972 110.882 63.5154 111.315 63.2448 111.878C62.9742 112.441 62.9367 113.087 63.1403 113.677C63.3536 114.262 63.7883 114.739 64.3505 115.006C64.9127 115.273 65.5573 115.307 66.1449 115.103Z" fill="#00A6BF"/>
<g opacity="0.8">
<path opacity="0.8" d="M123.481 94.9669L134.638 91.0503C135.226 90.841 135.708 90.4079 135.979 89.8453C136.249 89.2827 136.287 88.6359 136.083 88.0458C135.874 87.4576 135.441 86.9758 134.878 86.7052C134.315 86.4346 133.669 86.3971 133.079 86.6007L121.917 90.5213C121.329 90.7306 120.847 91.1637 120.576 91.7263C120.306 92.289 120.268 92.9357 120.472 93.5259C120.682 94.1143 121.116 94.5958 121.68 94.8657C122.243 95.1356 122.89 95.172 123.481 94.9669Z" fill="white"/>
<path opacity="0.8" d="M104.367 101.679L115.529 97.7583C116.113 97.5481 116.591 97.1172 116.86 96.5584C117.13 95.9995 117.169 95.3572 116.97 94.7695C116.76 94.1821 116.327 93.7012 115.764 93.4314C115.201 93.1616 114.555 93.1246 113.965 93.3284L102.808 97.249C102.22 97.4583 101.738 97.8914 101.467 98.454C101.197 99.0167 101.159 99.6634 101.363 100.254C101.576 100.838 102.011 101.315 102.573 101.582C103.135 101.849 103.78 101.884 104.367 101.679Z" fill="white"/>
<path opacity="0.8" d="M85.2659 108.391L96.4274 104.47C97.0097 104.258 97.4859 103.827 97.7538 103.268C98.0217 102.71 98.06 102.068 97.8606 101.481C97.6505 100.894 97.2171 100.413 96.6545 100.143C96.092 99.8735 95.4457 99.8365 94.856 100.04L83.6866 103.945C83.0991 104.155 82.6183 104.589 82.3485 105.151C82.0786 105.714 82.0416 106.36 82.2455 106.95C82.4555 107.541 82.8914 108.025 83.4577 108.295C84.0239 108.565 84.6742 108.6 85.2659 108.391Z" fill="white"/>
<path opacity="0.8" d="M66.1449 115.103L77.3064 111.182C77.8909 110.973 78.3698 110.542 78.6401 109.983C78.9103 109.424 78.9503 108.782 78.7515 108.193C78.5414 107.606 78.108 107.125 77.5454 106.855C76.9829 106.585 76.3366 106.548 75.7469 106.752L64.5854 110.673C63.9972 110.882 63.5154 111.315 63.2448 111.878C62.9742 112.441 62.9367 113.087 63.1403 113.677C63.3536 114.262 63.7883 114.739 64.3505 115.006C64.9127 115.273 65.5573 115.307 66.1449 115.103Z" fill="white"/>
</g>
<path d="M122.487 85.987L132.418 82.4994C133.262 82.2032 133.706 81.2792 133.409 80.4357L131.34 74.5425C131.044 73.699 130.12 73.2553 129.276 73.5516L119.345 77.0392C118.501 77.3354 118.058 78.2593 118.354 79.1029L120.423 84.9961C120.72 85.8396 121.644 86.2832 122.487 85.987Z" fill="#00A6BF"/>
<path opacity="0.3" d="M122.487 85.987L132.418 82.4994C133.262 82.2032 133.706 81.2792 133.409 80.4357L131.34 74.5425C131.044 73.699 130.12 73.2553 129.276 73.5516L119.345 77.0392C118.501 77.3354 118.058 78.2593 118.354 79.1029L120.423 84.9961C120.72 85.8396 121.644 86.2832 122.487 85.987Z" fill="black"/>
<path d="M63.9457 92.0887C62.513 92.0891 61.1323 91.5515 60.0771 90.5823C59.0219 89.6132 58.3691 88.2831 58.2478 86.8556C58.1266 85.428 58.5458 84.0069 59.4224 82.8737C60.2991 81.7404 61.5693 80.9777 62.9816 80.7364C64.3939 80.4952 65.8452 80.793 67.0484 81.5709C68.2515 82.3488 69.1187 83.5501 69.4783 84.937C69.8379 86.3239 69.6636 87.7952 68.9899 89.0597C68.3163 90.3242 67.1924 91.2897 65.8408 91.765C65.232 91.9795 64.5912 92.089 63.9457 92.0887ZM63.9457 81.0338C63.3394 81.035 62.7375 81.1378 62.1651 81.3378C60.8239 81.8093 59.7248 82.794 59.1096 84.0757C58.4943 85.3573 58.4132 86.8308 58.8841 88.1721C59.2105 89.0984 59.7853 89.9172 60.5455 90.5389C61.3058 91.1606 62.2223 91.5614 63.195 91.6975C64.1676 91.8336 65.1589 91.6997 66.0606 91.3105C66.9623 90.9212 67.7397 90.2916 68.3078 89.4905C68.8758 88.6893 69.2128 87.7474 69.2817 86.7678C69.3507 85.7881 69.1491 84.8083 68.6988 83.9354C68.2486 83.0626 67.5672 82.3303 66.7289 81.8186C65.8906 81.3068 64.9278 81.0354 63.9457 81.0338Z" fill="#00A6BF"/>
<path opacity="0.8" d="M63.9457 92.0887C62.513 92.0891 61.1323 91.5515 60.0771 90.5823C59.0219 89.6132 58.3691 88.2831 58.2478 86.8556C58.1266 85.428 58.5458 84.0069 59.4224 82.8737C60.2991 81.7404 61.5693 80.9777 62.9816 80.7364C64.3939 80.4952 65.8452 80.793 67.0484 81.5709C68.2515 82.3488 69.1187 83.5501 69.4783 84.937C69.8379 86.3239 69.6636 87.7952 68.9899 89.0597C68.3163 90.3242 67.1924 91.2897 65.8408 91.765C65.232 91.9795 64.5912 92.089 63.9457 92.0887ZM63.9457 81.0338C63.3394 81.035 62.7375 81.1378 62.1651 81.3378C60.8239 81.8093 59.7248 82.794 59.1096 84.0757C58.4943 85.3573 58.4132 86.8308 58.8841 88.1721C59.2105 89.0984 59.7853 89.9172 60.5455 90.5389C61.3058 91.1606 62.2223 91.5614 63.195 91.6975C64.1676 91.8336 65.1589 91.6997 66.0606 91.3105C66.9623 90.9212 67.7397 90.2916 68.3078 89.4905C68.8758 88.6893 69.2128 87.7474 69.2817 86.7678C69.3507 85.7881 69.1491 84.8083 68.6988 83.9354C68.2486 83.0626 67.5672 82.3303 66.7289 81.8186C65.8906 81.3068 64.9278 81.0354 63.9457 81.0338Z" fill="white"/>
<path d="M50.5533 91.0859C50.9173 92.1159 51.5783 93.015 52.4529 93.6696C53.3275 94.3242 54.3765 94.7049 55.4674 94.7638C56.5582 94.8226 57.642 94.5568 58.582 94.0001C59.5219 93.4434 60.2758 92.6206 60.7484 91.6357C61.221 90.6508 61.3912 89.5479 61.2375 88.4663C61.0837 87.3848 60.6129 86.373 59.8845 85.5588C59.1561 84.7447 58.2028 84.1646 57.1449 83.8919C56.0871 83.6192 54.9721 83.666 53.9409 84.0265C53.2542 84.2666 52.6217 84.6398 52.0795 85.1248C51.5374 85.6099 51.0963 86.1971 50.7816 86.853C50.4669 87.5088 50.2847 88.2203 50.2456 88.9467C50.2064 89.673 50.311 90.4 50.5533 91.0859Z" fill="#00A6BF"/>
<path opacity="0.8" d="M50.5533 91.0859C50.9173 92.1159 51.5783 93.015 52.4529 93.6696C53.3275 94.3242 54.3765 94.7049 55.4674 94.7638C56.5582 94.8226 57.642 94.5568 58.582 94.0001C59.5219 93.4434 60.2758 92.6206 60.7484 91.6357C61.221 90.6508 61.3912 89.5479 61.2375 88.4663C61.0837 87.3848 60.6129 86.373 59.8845 85.5588C59.1561 84.7447 58.2028 84.1646 57.1449 83.8919C56.0871 83.6192 54.9721 83.666 53.9409 84.0265C53.2542 84.2666 52.6217 84.6398 52.0795 85.1248C51.5374 85.6099 51.0963 86.1971 50.7816 86.853C50.4669 87.5088 50.2847 88.2203 50.2456 88.9467C50.2064 89.673 50.311 90.4 50.5533 91.0859Z" fill="white"/>
</svg>
